<?xml version="1.0" encoding="utf-8"?>
<svg xmlns="http://www.w3.org/2000/svg" xmlns:xlink="http://www.w3.org/1999/xlink" width="600" height="400" viewBox="0 0 2400 1600">
<defs>
  <clipPath id="clip660">
    <rect x="0" y="0" width="2400" height="1600"/>
  </clipPath>
</defs>
<path clip-path="url(#clip660)" d="
M0 1600 L2400 1600 L2400 0 L0 0  Z
  " fill="#ffffff" fill-rule="evenodd" fill-opacity="1"/>
<defs>
  <clipPath id="clip661">
    <rect x="480" y="0" width="1681" height="1600"/>
  </clipPath>
</defs>
<path clip-path="url(#clip660)" d="
M175.445 1423.18 L2352.76 1423.18 L2352.76 47.2441 L175.445 47.2441  Z
  " fill="#ffffff" fill-rule="evenodd" fill-opacity="1"/>
<defs>
  <clipPath id="clip662">
    <rect x="175" y="47" width="2178" height="1377"/>
  </clipPath>
</defs>
<polyline clip-path="url(#clip662)" style="stroke:#000000; stroke-linecap:butt; stroke-linejoin:round; stroke-width:2; stroke-opacity:0.1; fill:none" points="
  237.067,1423.18 237.067,47.2441 
  "/>
<polyline clip-path="url(#clip662)" style="stroke:#000000; stroke-linecap:butt; stroke-linejoin:round; stroke-width:2; stroke-opacity:0.1; fill:none" points="
  750.584,1423.18 750.584,47.2441 
  "/>
<polyline clip-path="url(#clip662)" style="stroke:#000000; stroke-linecap:butt; stroke-linejoin:round; stroke-width:2; stroke-opacity:0.1; fill:none" points="
  1264.1,1423.18 1264.1,47.2441 
  "/>
<polyline clip-path="url(#clip662)" style="stroke:#000000; stroke-linecap:butt; stroke-linejoin:round; stroke-width:2; stroke-opacity:0.1; fill:none" points="
  1777.62,1423.18 1777.62,47.2441 
  "/>
<polyline clip-path="url(#clip662)" style="stroke:#000000; stroke-linecap:butt; stroke-linejoin:round; stroke-width:2; stroke-opacity:0.1; fill:none" points="
  2291.13,1423.18 2291.13,47.2441 
  "/>
<polyline clip-path="url(#clip660)" style="stroke:#000000; stroke-linecap:butt; stroke-linejoin:round; stroke-width:4; stroke-opacity:1; fill:none" points="
  175.445,1423.18 2352.76,1423.18 
  "/>
<polyline clip-path="url(#clip660)" style="stroke:#000000; stroke-linecap:butt; stroke-linejoin:round; stroke-width:4; stroke-opacity:1; fill:none" points="
  237.067,1423.18 237.067,1404.28 
  "/>
<polyline clip-path="url(#clip660)" style="stroke:#000000; stroke-linecap:butt; stroke-linejoin:round; stroke-width:4; stroke-opacity:1; fill:none" points="
  750.584,1423.18 750.584,1404.28 
  "/>
<polyline clip-path="url(#clip660)" style="stroke:#000000; stroke-linecap:butt; stroke-linejoin:round; stroke-width:4; stroke-opacity:1; fill:none" points="
  1264.1,1423.18 1264.1,1404.28 
  "/>
<polyline clip-path="url(#clip660)" style="stroke:#000000; stroke-linecap:butt; stroke-linejoin:round; stroke-width:4; stroke-opacity:1; fill:none" points="
  1777.62,1423.18 1777.62,1404.28 
  "/>
<polyline clip-path="url(#clip660)" style="stroke:#000000; stroke-linecap:butt; stroke-linejoin:round; stroke-width:4; stroke-opacity:1; fill:none" points="
  2291.13,1423.18 2291.13,1404.28 
  "/>
<path clip-path="url(#clip660)" d="M214.452 1454.1 Q210.84 1454.1 209.012 1457.66 Q207.206 1461.2 207.206 1468.33 Q207.206 1475.44 209.012 1479.01 Q210.84 1482.55 214.452 1482.55 Q218.086 1482.55 219.891 1479.01 Q221.72 1475.44 221.72 1468.33 Q221.72 1461.2 219.891 1457.66 Q218.086 1454.1 214.452 1454.1 M214.452 1450.39 Q220.262 1450.39 223.317 1455 Q226.396 1459.58 226.396 1468.33 Q226.396 1477.06 223.317 1481.67 Q220.262 1486.25 214.452 1486.25 Q208.641 1486.25 205.563 1481.67 Q202.507 1477.06 202.507 1468.33 Q202.507 1459.58 205.563 1455 Q208.641 1450.39 214.452 1450.39 Z" fill="#000000" fill-rule="evenodd" fill-opacity="1" /><path clip-path="url(#clip660)" d="M234.614 1479.7 L239.498 1479.7 L239.498 1485.58 L234.614 1485.58 L234.614 1479.7 Z" fill="#000000" fill-rule="evenodd" fill-opacity="1" /><path clip-path="url(#clip660)" d="M259.683 1454.1 Q256.072 1454.1 254.243 1457.66 Q252.437 1461.2 252.437 1468.33 Q252.437 1475.44 254.243 1479.01 Q256.072 1482.55 259.683 1482.55 Q263.317 1482.55 265.123 1479.01 Q266.951 1475.44 266.951 1468.33 Q266.951 1461.2 265.123 1457.66 Q263.317 1454.1 259.683 1454.1 M259.683 1450.39 Q265.493 1450.39 268.549 1455 Q271.627 1459.58 271.627 1468.33 Q271.627 1477.06 268.549 1481.67 Q265.493 1486.25 259.683 1486.25 Q253.873 1486.25 250.794 1481.67 Q247.738 1477.06 247.738 1468.33 Q247.738 1459.58 250.794 1455 Q253.873 1450.39 259.683 1450.39 Z" fill="#000000" fill-rule="evenodd" fill-opacity="1" /><path clip-path="url(#clip660)" d="M722.32 1481.64 L738.64 1481.64 L738.64 1485.58 L716.695 1485.58 L716.695 1481.64 Q719.357 1478.89 723.941 1474.26 Q728.547 1469.61 729.728 1468.27 Q731.973 1465.74 732.852 1464.01 Q733.755 1462.25 733.755 1460.56 Q733.755 1457.8 731.811 1456.07 Q729.89 1454.33 726.788 1454.33 Q724.589 1454.33 722.135 1455.09 Q719.704 1455.86 716.927 1457.41 L716.927 1452.69 Q719.751 1451.55 722.204 1450.97 Q724.658 1450.39 726.695 1450.39 Q732.065 1450.39 735.26 1453.08 Q738.454 1455.77 738.454 1460.26 Q738.454 1462.39 737.644 1464.31 Q736.857 1466.2 734.751 1468.8 Q734.172 1469.47 731.07 1472.69 Q727.968 1475.88 722.32 1481.64 Z" fill="#000000" fill-rule="evenodd" fill-opacity="1" /><path clip-path="url(#clip660)" d="M748.454 1479.7 L753.338 1479.7 L753.338 1485.58 L748.454 1485.58 L748.454 1479.7 Z" fill="#000000" fill-rule="evenodd" fill-opacity="1" /><path clip-path="url(#clip660)" d="M763.57 1451.02 L781.926 1451.02 L781.926 1454.96 L767.852 1454.96 L767.852 1463.43 Q768.871 1463.08 769.889 1462.92 Q770.908 1462.73 771.926 1462.73 Q777.713 1462.73 781.093 1465.9 Q784.473 1469.08 784.473 1474.49 Q784.473 1480.07 781 1483.17 Q777.528 1486.25 771.209 1486.25 Q769.033 1486.25 766.764 1485.88 Q764.519 1485.51 762.112 1484.77 L762.112 1480.07 Q764.195 1481.2 766.417 1481.76 Q768.639 1482.32 771.116 1482.32 Q775.121 1482.32 777.459 1480.21 Q779.797 1478.1 779.797 1474.49 Q779.797 1470.88 777.459 1468.77 Q775.121 1466.67 771.116 1466.67 Q769.241 1466.67 767.366 1467.08 Q765.514 1467.5 763.57 1468.38 L763.57 1451.02 Z" fill="#000000" fill-rule="evenodd" fill-opacity="1" /><path clip-path="url(#clip660)" d="M1231.27 1451.02 L1249.62 1451.02 L1249.62 1454.96 L1235.55 1454.96 L1235.55 1463.43 Q1236.57 1463.08 1237.58 1462.92 Q1238.6 1462.73 1239.62 1462.73 Q1245.41 1462.73 1248.79 1465.9 Q1252.17 1469.08 1252.17 1474.49 Q1252.17 1480.07 1248.7 1483.17 Q1245.22 1486.25 1238.9 1486.25 Q1236.73 1486.25 1234.46 1485.88 Q1232.21 1485.51 1229.81 1484.77 L1229.81 1480.07 Q1231.89 1481.2 1234.11 1481.76 Q1236.33 1482.32 1238.81 1482.32 Q1242.82 1482.32 1245.15 1480.21 Q1247.49 1478.1 1247.49 1474.49 Q1247.49 1470.88 1245.15 1468.77 Q1242.82 1466.67 1238.81 1466.67 Q1236.94 1466.67 1235.06 1467.08 Q1233.21 1467.5 1231.27 1468.38 L1231.27 1451.02 Z" fill="#000000" fill-rule="evenodd" fill-opacity="1" /><path clip-path="url(#clip660)" d="M1261.38 1479.7 L1266.26 1479.7 L1266.26 1485.58 L1261.38 1485.58 L1261.38 1479.7 Z" fill="#000000" fill-rule="evenodd" fill-opacity="1" /><path clip-path="url(#clip660)" d="M1286.45 1454.1 Q1282.84 1454.1 1281.01 1457.66 Q1279.2 1461.2 1279.2 1468.33 Q1279.2 1475.44 1281.01 1479.01 Q1282.84 1482.55 1286.45 1482.55 Q1290.08 1482.55 1291.89 1479.01 Q1293.72 1475.44 1293.72 1468.33 Q1293.72 1461.2 1291.89 1457.66 Q1290.08 1454.1 1286.45 1454.1 M1286.45 1450.39 Q1292.26 1450.39 1295.32 1455 Q1298.39 1459.58 1298.39 1468.33 Q1298.39 1477.06 1295.32 1481.67 Q1292.26 1486.25 1286.45 1486.25 Q1280.64 1486.25 1277.56 1481.67 Q1274.51 1477.06 1274.51 1468.33 Q1274.51 1459.58 1277.56 1455 Q1280.64 1450.39 1286.45 1450.39 Z" fill="#000000" fill-rule="evenodd" fill-opacity="1" /><path clip-path="url(#clip660)" d="M1743.94 1451.02 L1766.16 1451.02 L1766.16 1453.01 L1753.61 1485.58 L1748.73 1485.58 L1760.53 1454.96 L1743.94 1454.96 L1743.94 1451.02 Z" fill="#000000" fill-rule="evenodd" fill-opacity="1" /><path clip-path="url(#clip660)" d="M1775.28 1479.7 L1780.16 1479.7 L1780.16 1485.58 L1775.28 1485.58 L1775.28 1479.7 Z" fill="#000000" fill-rule="evenodd" fill-opacity="1" /><path clip-path="url(#clip660)" d="M1790.39 1451.02 L1808.75 1451.02 L1808.75 1454.96 L1794.68 1454.96 L1794.68 1463.43 Q1795.7 1463.08 1796.71 1462.92 Q1797.73 1462.73 1798.75 1462.73 Q1804.54 1462.73 1807.92 1465.9 Q1811.3 1469.08 1811.3 1474.49 Q1811.3 1480.07 1807.83 1483.17 Q1804.35 1486.25 1798.03 1486.25 Q1795.86 1486.25 1793.59 1485.88 Q1791.34 1485.51 1788.94 1484.77 L1788.94 1480.07 Q1791.02 1481.2 1793.24 1481.76 Q1795.46 1482.32 1797.94 1482.32 Q1801.95 1482.32 1804.28 1480.21 Q1806.62 1478.1 1806.62 1474.49 Q1806.62 1470.88 1804.28 1468.77 Q1801.95 1466.67 1797.94 1466.67 Q1796.07 1466.67 1794.19 1467.08 Q1792.34 1467.5 1790.39 1468.38 L1790.39 1451.02 Z" fill="#000000" fill-rule="evenodd" fill-opacity="1" /><path clip-path="url(#clip660)" d="M2243.21 1481.64 L2250.84 1481.64 L2250.84 1455.28 L2242.53 1456.95 L2242.53 1452.69 L2250.8 1451.02 L2255.47 1451.02 L2255.47 1481.64 L2263.11 1481.64 L2263.11 1485.58 L2243.21 1485.58 L2243.21 1481.64 Z" fill="#000000" fill-rule="evenodd" fill-opacity="1" /><path clip-path="url(#clip660)" d="M2282.56 1454.1 Q2278.95 1454.1 2277.12 1457.66 Q2275.31 1461.2 2275.31 1468.33 Q2275.31 1475.44 2277.12 1479.01 Q2278.95 1482.55 2282.56 1482.55 Q2286.19 1482.55 2288 1479.01 Q2289.83 1475.44 2289.83 1468.33 Q2289.83 1461.2 2288 1457.66 Q2286.19 1454.1 2282.56 1454.1 M2282.56 1450.39 Q2288.37 1450.39 2291.42 1455 Q2294.5 1459.58 2294.5 1468.33 Q2294.5 1477.06 2291.42 1481.67 Q2288.37 1486.25 2282.56 1486.25 Q2276.75 1486.25 2273.67 1481.67 Q2270.61 1477.06 2270.61 1468.33 Q2270.61 1459.58 2273.67 1455 Q2276.75 1450.39 2282.56 1450.39 Z" fill="#000000" fill-rule="evenodd" fill-opacity="1" /><path clip-path="url(#clip660)" d="M2302.72 1479.7 L2307.6 1479.7 L2307.6 1485.58 L2302.72 1485.58 L2302.72 1479.7 Z" fill="#000000" fill-rule="evenodd" fill-opacity="1" /><path clip-path="url(#clip660)" d="M2327.79 1454.1 Q2324.18 1454.1 2322.35 1457.66 Q2320.54 1461.2 2320.54 1468.33 Q2320.54 1475.44 2322.35 1479.01 Q2324.18 1482.55 2327.79 1482.55 Q2331.42 1482.55 2333.23 1479.01 Q2335.06 1475.44 2335.06 1468.33 Q2335.06 1461.2 2333.23 1457.66 Q2331.42 1454.1 2327.79 1454.1 M2327.79 1450.39 Q2333.6 1450.39 2336.65 1455 Q2339.73 1459.58 2339.73 1468.33 Q2339.73 1477.06 2336.65 1481.67 Q2333.6 1486.25 2327.79 1486.25 Q2321.98 1486.25 2318.9 1481.67 Q2315.84 1477.06 2315.84 1468.33 Q2315.84 1459.58 2318.9 1455 Q2321.98 1450.39 2327.79 1450.39 Z" fill="#000000" fill-rule="evenodd" fill-opacity="1" /><path clip-path="url(#clip660)" d="M1095.22 1522.27 L1095.22 1532.4 L1107.28 1532.4 L1107.28 1536.95 L1095.22 1536.95 L1095.22 1556.3 Q1095.22 1560.66 1096.4 1561.9 Q1097.61 1563.14 1101.27 1563.14 L1107.28 1563.14 L1107.28 1568.04 L1101.27 1568.04 Q1094.49 1568.04 1091.91 1565.53 Q1089.33 1562.98 1089.33 1556.3 L1089.33 1536.95 L1085.03 1536.95 L1085.03 1532.4 L1089.33 1532.4 L1089.33 1522.27 L1095.22 1522.27 Z" fill="#000000" fill-rule="evenodd" fill-opacity="1" /><path clip-path="url(#clip660)" d="M1142.74 1539.24 Q1144.93 1535.29 1147.99 1533.41 Q1151.05 1531.54 1155.18 1531.54 Q1160.75 1531.54 1163.78 1535.45 Q1166.8 1539.33 1166.8 1546.53 L1166.8 1568.04 L1160.91 1568.04 L1160.91 1546.72 Q1160.91 1541.59 1159.1 1539.11 Q1157.28 1536.63 1153.56 1536.63 Q1149.01 1536.63 1146.37 1539.65 Q1143.73 1542.68 1143.73 1547.9 L1143.73 1568.04 L1137.84 1568.04 L1137.84 1546.72 Q1137.84 1541.56 1136.02 1539.11 Q1134.21 1536.63 1130.42 1536.63 Q1125.93 1536.63 1123.29 1539.68 Q1120.65 1542.71 1120.65 1547.9 L1120.65 1568.04 L1114.76 1568.04 L1114.76 1532.4 L1120.65 1532.4 L1120.65 1537.93 Q1122.65 1534.66 1125.46 1533.1 Q1128.26 1531.54 1132.11 1531.54 Q1135.99 1531.54 1138.7 1533.51 Q1141.43 1535.48 1142.74 1539.24 Z" fill="#000000" fill-rule="evenodd" fill-opacity="1" /><path clip-path="url(#clip660)" d="M1192.3 1536.5 Q1187.58 1536.5 1184.85 1540.19 Q1182.11 1543.85 1182.11 1550.25 Q1182.11 1556.65 1184.82 1560.34 Q1187.55 1564 1192.3 1564 Q1196.97 1564 1199.71 1560.31 Q1202.45 1556.62 1202.45 1550.25 Q1202.45 1543.92 1199.71 1540.23 Q1196.97 1536.5 1192.3 1536.5 M1192.3 1531.54 Q1199.93 1531.54 1204.29 1536.5 Q1208.66 1541.47 1208.66 1550.25 Q1208.66 1559 1204.29 1564 Q1199.93 1568.97 1192.3 1568.97 Q1184.62 1568.97 1180.26 1564 Q1175.94 1559 1175.94 1550.25 Q1175.94 1541.47 1180.26 1536.5 Q1184.62 1531.54 1192.3 1531.54 Z" fill="#000000" fill-rule="evenodd" fill-opacity="1" /><path clip-path="url(#clip660)" d="M1241.82 1537.81 L1241.82 1518.52 L1247.68 1518.52 L1247.68 1568.04 L1241.82 1568.04 L1241.82 1562.7 Q1239.97 1565.88 1237.14 1567.44 Q1234.34 1568.97 1230.39 1568.97 Q1223.93 1568.97 1219.86 1563.81 Q1215.82 1558.65 1215.82 1550.25 Q1215.82 1541.85 1219.86 1536.69 Q1223.93 1531.54 1230.39 1531.54 Q1234.34 1531.54 1237.14 1533.1 Q1239.97 1534.62 1241.82 1537.81 M1221.86 1550.25 Q1221.86 1556.71 1224.51 1560.4 Q1227.18 1564.07 1231.83 1564.07 Q1236.47 1564.07 1239.15 1560.4 Q1241.82 1556.71 1241.82 1550.25 Q1241.82 1543.79 1239.15 1540.13 Q1236.47 1536.44 1231.83 1536.44 Q1227.18 1536.44 1224.51 1540.13 Q1221.86 1543.79 1221.86 1550.25 Z" fill="#000000" fill-rule="evenodd" fill-opacity="1" /><path clip-path="url(#clip660)" d="M1290.23 1548.76 L1290.23 1551.62 L1263.3 1551.62 Q1263.69 1557.67 1266.93 1560.85 Q1270.21 1564 1276.04 1564 Q1279.41 1564 1282.56 1563.17 Q1285.74 1562.35 1288.86 1560.69 L1288.86 1566.23 Q1285.71 1567.57 1282.4 1568.27 Q1279.09 1568.97 1275.69 1568.97 Q1267.16 1568.97 1262.16 1564 Q1257.19 1559.04 1257.19 1550.57 Q1257.19 1541.82 1261.9 1536.69 Q1266.65 1531.54 1274.67 1531.54 Q1281.86 1531.54 1286.03 1536.18 Q1290.23 1540.8 1290.23 1548.76 M1284.38 1547.04 Q1284.31 1542.23 1281.67 1539.37 Q1279.06 1536.5 1274.73 1536.5 Q1269.83 1536.5 1266.87 1539.27 Q1263.94 1542.04 1263.5 1547.07 L1284.38 1547.04 Z" fill="#000000" fill-rule="evenodd" fill-opacity="1" /><path clip-path="url(#clip660)" d="M1299.84 1518.52 L1305.7 1518.52 L1305.7 1568.04 L1299.84 1568.04 L1299.84 1518.52 Z" fill="#000000" fill-rule="evenodd" fill-opacity="1" /><path clip-path="url(#clip660)" d="M1352.74 1518.58 Q1348.48 1525.9 1346.41 1533.06 Q1344.34 1540.23 1344.34 1547.58 Q1344.34 1554.93 1346.41 1562.16 Q1348.51 1569.35 1352.74 1576.64 L1347.65 1576.64 Q1342.88 1569.16 1340.49 1561.93 Q1338.13 1554.71 1338.13 1547.58 Q1338.13 1540.48 1340.49 1533.29 Q1342.84 1526.09 1347.65 1518.58 L1352.74 1518.58 Z" fill="#000000" fill-rule="evenodd" fill-opacity="1" /><path clip-path="url(#clip660)" d="M1378.94 1571.35 Q1376.46 1577.72 1374.1 1579.66 Q1371.74 1581.6 1367.8 1581.6 L1363.12 1581.6 L1363.12 1576.7 L1366.56 1576.7 Q1368.98 1576.7 1370.31 1575.56 Q1371.65 1574.41 1373.27 1570.14 L1374.32 1567.47 L1359.9 1532.4 L1366.11 1532.4 L1377.25 1560.28 L1388.39 1532.4 L1394.6 1532.4 L1378.94 1571.35 Z" fill="#000000" fill-rule="evenodd" fill-opacity="1" /><path clip-path="url(#clip660)" d="M1423.34 1537.87 Q1422.35 1537.3 1421.17 1537.04 Q1420.03 1536.76 1418.63 1536.76 Q1413.66 1536.76 1410.99 1540 Q1408.35 1543.22 1408.35 1549.27 L1408.35 1568.04 L1402.46 1568.04 L1402.46 1532.4 L1408.35 1532.4 L1408.35 1537.93 Q1410.19 1534.69 1413.15 1533.13 Q1416.11 1531.54 1420.35 1531.54 Q1420.95 1531.54 1421.68 1531.63 Q1422.42 1531.7 1423.31 1531.85 L1423.34 1537.87 Z" fill="#000000" fill-rule="evenodd" fill-opacity="1" /><path clip-path="url(#clip660)" d="M1428.56 1518.58 L1433.65 1518.58 Q1438.43 1526.09 1440.78 1533.29 Q1443.17 1540.48 1443.17 1547.58 Q1443.17 1554.71 1440.78 1561.93 Q1438.43 1569.16 1433.65 1576.64 L1428.56 1576.64 Q1432.79 1569.35 1434.86 1562.16 Q1436.96 1554.93 1436.96 1547.58 Q1436.96 1540.23 1434.86 1533.06 Q1432.79 1525.9 1428.56 1518.58 Z" fill="#000000" fill-rule="evenodd" fill-opacity="1" /><polyline clip-path="url(#clip662)" style="stroke:#000000; stroke-linecap:butt; stroke-linejoin:round; stroke-width:2; stroke-opacity:0.1; fill:none" points="
  175.445,1393.05 2352.76,1393.05 
  "/>
<polyline clip-path="url(#clip662)" style="stroke:#000000; stroke-linecap:butt; stroke-linejoin:round; stroke-width:2; stroke-opacity:0.1; fill:none" points="
  175.445,1131.67 2352.76,1131.67 
  "/>
<polyline clip-path="url(#clip662)" style="stroke:#000000; stroke-linecap:butt; stroke-linejoin:round; stroke-width:2; stroke-opacity:0.1; fill:none" points="
  175.445,870.302 2352.76,870.302 
  "/>
<polyline clip-path="url(#clip662)" style="stroke:#000000; stroke-linecap:butt; stroke-linejoin:round; stroke-width:2; stroke-opacity:0.1; fill:none" points="
  175.445,608.93 2352.76,608.93 
  "/>
<polyline clip-path="url(#clip662)" style="stroke:#000000; stroke-linecap:butt; stroke-linejoin:round; stroke-width:2; stroke-opacity:0.1; fill:none" points="
  175.445,347.558 2352.76,347.558 
  "/>
<polyline clip-path="url(#clip662)" style="stroke:#000000; stroke-linecap:butt; stroke-linejoin:round; stroke-width:2; stroke-opacity:0.1; fill:none" points="
  175.445,86.1857 2352.76,86.1857 
  "/>
<polyline clip-path="url(#clip660)" style="stroke:#000000; stroke-linecap:butt; stroke-linejoin:round; stroke-width:4; stroke-opacity:1; fill:none" points="
  175.445,1423.18 175.445,47.2441 
  "/>
<polyline clip-path="url(#clip660)" style="stroke:#000000; stroke-linecap:butt; stroke-linejoin:round; stroke-width:4; stroke-opacity:1; fill:none" points="
  175.445,1393.05 194.343,1393.05 
  "/>
<polyline clip-path="url(#clip660)" style="stroke:#000000; stroke-linecap:butt; stroke-linejoin:round; stroke-width:4; stroke-opacity:1; fill:none" points="
  175.445,1131.67 194.343,1131.67 
  "/>
<polyline clip-path="url(#clip660)" style="stroke:#000000; stroke-linecap:butt; stroke-linejoin:round; stroke-width:4; stroke-opacity:1; fill:none" points="
  175.445,870.302 194.343,870.302 
  "/>
<polyline clip-path="url(#clip660)" style="stroke:#000000; stroke-linecap:butt; stroke-linejoin:round; stroke-width:4; stroke-opacity:1; fill:none" points="
  175.445,608.93 194.343,608.93 
  "/>
<polyline clip-path="url(#clip660)" style="stroke:#000000; stroke-linecap:butt; stroke-linejoin:round; stroke-width:4; stroke-opacity:1; fill:none" points="
  175.445,347.558 194.343,347.558 
  "/>
<polyline clip-path="url(#clip660)" style="stroke:#000000; stroke-linecap:butt; stroke-linejoin:round; stroke-width:4; stroke-opacity:1; fill:none" points="
  175.445,86.1857 194.343,86.1857 
  "/>
<path clip-path="url(#clip660)" d="M127.501 1378.84 Q123.89 1378.84 122.061 1382.41 Q120.255 1385.95 120.255 1393.08 Q120.255 1400.19 122.061 1403.75 Q123.89 1407.29 127.501 1407.29 Q131.135 1407.29 132.941 1403.75 Q134.769 1400.19 134.769 1393.08 Q134.769 1385.95 132.941 1382.41 Q131.135 1378.84 127.501 1378.84 M127.501 1375.14 Q133.311 1375.14 136.367 1379.75 Q139.445 1384.33 139.445 1393.08 Q139.445 1401.81 136.367 1406.41 Q133.311 1411 127.501 1411 Q121.691 1411 118.612 1406.41 Q115.556 1401.81 115.556 1393.08 Q115.556 1384.33 118.612 1379.75 Q121.691 1375.14 127.501 1375.14 Z" fill="#000000" fill-rule="evenodd" fill-opacity="1" /><path clip-path="url(#clip660)" d="M119.538 1145.02 L127.177 1145.02 L127.177 1118.65 L118.867 1120.32 L118.867 1116.06 L127.13 1114.39 L131.806 1114.39 L131.806 1145.02 L139.445 1145.02 L139.445 1148.95 L119.538 1148.95 L119.538 1145.02 Z" fill="#000000" fill-rule="evenodd" fill-opacity="1" /><path clip-path="url(#clip660)" d="M123.126 883.647 L139.445 883.647 L139.445 887.582 L117.501 887.582 L117.501 883.647 Q120.163 880.892 124.746 876.262 Q129.353 871.61 130.533 870.267 Q132.779 867.744 133.658 866.008 Q134.561 864.249 134.561 862.559 Q134.561 859.804 132.617 858.068 Q130.695 856.332 127.593 856.332 Q125.394 856.332 122.941 857.096 Q120.51 857.86 117.732 859.411 L117.732 854.689 Q120.556 853.554 123.01 852.976 Q125.464 852.397 127.501 852.397 Q132.871 852.397 136.066 855.082 Q139.26 857.767 139.26 862.258 Q139.26 864.388 138.45 866.309 Q137.663 868.207 135.556 870.8 Q134.978 871.471 131.876 874.688 Q128.774 877.883 123.126 883.647 Z" fill="#000000" fill-rule="evenodd" fill-opacity="1" /><path clip-path="url(#clip660)" d="M132.316 607.576 Q135.672 608.293 137.547 610.562 Q139.445 612.83 139.445 616.164 Q139.445 621.279 135.927 624.08 Q132.408 626.881 125.927 626.881 Q123.751 626.881 121.436 626.441 Q119.144 626.025 116.691 625.168 L116.691 620.654 Q118.635 621.789 120.95 622.367 Q123.265 622.946 125.788 622.946 Q130.186 622.946 132.478 621.21 Q134.792 619.474 134.792 616.164 Q134.792 613.108 132.64 611.395 Q130.51 609.659 126.691 609.659 L122.663 609.659 L122.663 605.816 L126.876 605.816 Q130.325 605.816 132.154 604.451 Q133.982 603.062 133.982 600.469 Q133.982 597.807 132.084 596.395 Q130.209 594.96 126.691 594.96 Q124.769 594.96 122.57 595.377 Q120.371 595.793 117.732 596.673 L117.732 592.506 Q120.394 591.766 122.709 591.395 Q125.047 591.025 127.107 591.025 Q132.431 591.025 135.533 593.455 Q138.635 595.863 138.635 599.983 Q138.635 602.853 136.992 604.844 Q135.348 606.812 132.316 607.576 Z" fill="#000000" fill-rule="evenodd" fill-opacity="1" /><path clip-path="url(#clip660)" d="M129.862 334.352 L118.056 352.801 L129.862 352.801 L129.862 334.352 M128.635 330.278 L134.515 330.278 L134.515 352.801 L139.445 352.801 L139.445 356.69 L134.515 356.69 L134.515 364.838 L129.862 364.838 L129.862 356.69 L114.26 356.69 L114.26 352.176 L128.635 330.278 Z" fill="#000000" fill-rule="evenodd" fill-opacity="1" /><path clip-path="url(#clip660)" d="M118.543 68.9057 L136.899 68.9057 L136.899 72.8408 L122.825 72.8408 L122.825 81.313 Q123.843 80.9658 124.862 80.8038 Q125.88 80.6186 126.899 80.6186 Q132.686 80.6186 136.066 83.7899 Q139.445 86.9611 139.445 92.3778 Q139.445 97.9564 135.973 101.058 Q132.501 104.137 126.181 104.137 Q124.005 104.137 121.737 103.767 Q119.492 103.396 117.084 102.655 L117.084 97.9564 Q119.168 99.0907 121.39 99.6462 Q123.612 100.202 126.089 100.202 Q130.093 100.202 132.431 98.0953 Q134.769 95.9889 134.769 92.3778 Q134.769 88.7667 132.431 86.6602 Q130.093 84.5537 126.089 84.5537 Q124.214 84.5537 122.339 84.9704 Q120.487 85.3871 118.543 86.2667 L118.543 68.9057 Z" fill="#000000" fill-rule="evenodd" fill-opacity="1" /><path clip-path="url(#clip660)" d="M14.479 939.44 L19.3487 939.44 L19.3487 945.042 Q19.3487 948.193 20.6219 949.434 Q21.895 950.643 25.2052 950.643 L28.3562 950.643 L28.3562 940.999 L32.9077 940.999 L32.9077 950.643 L64.0042 950.643 L64.0042 956.532 L32.9077 956.532 L32.9077 962.133 L28.3562 962.133 L28.3562 956.532 L25.8736 956.532 Q19.9216 956.532 17.2162 953.763 Q14.479 950.994 14.479 944.978 L14.479 939.44 Z" fill="#000000" fill-rule="evenodd" fill-opacity="1" /><path clip-path="url(#clip660)" d="M14.479 934.538 L14.479 928.682 L64.0042 928.682 L64.0042 934.538 L14.479 934.538 Z" fill="#000000" fill-rule="evenodd" fill-opacity="1" /><path clip-path="url(#clip660)" d="M49.9359 917.032 L28.3562 917.032 L28.3562 911.176 L49.7131 911.176 Q54.7739 911.176 57.3202 909.203 Q59.8346 907.229 59.8346 903.283 Q59.8346 898.54 56.8109 895.803 Q53.7872 893.034 48.5673 893.034 L28.3562 893.034 L28.3562 887.177 L64.0042 887.177 L64.0042 893.034 L58.5296 893.034 Q61.7762 895.166 63.3676 897.999 Q64.9272 900.8 64.9272 904.524 Q64.9272 910.667 61.1078 913.85 Q57.2883 917.032 49.9359 917.032 M27.4968 902.296 L27.4968 902.296 Z" fill="#000000" fill-rule="evenodd" fill-opacity="1" /><path clip-path="url(#clip660)" d="M28.3562 845.482 L45.7028 858.372 L64.0042 844.814 L64.0042 851.72 L49.9996 862.096 L64.0042 872.473 L64.0042 879.379 L45.3526 865.534 L28.3562 878.202 L28.3562 871.295 L41.0558 861.842 L28.3562 852.389 L28.3562 845.482 Z" fill="#000000" fill-rule="evenodd" fill-opacity="1" /><path clip-path="url(#clip660)" d="M14.5426 801.75 Q21.8632 806.015 29.0246 808.083 Q36.186 810.152 43.5384 810.152 Q50.8908 810.152 58.1159 808.083 Q65.3091 805.983 72.5979 801.75 L72.5979 806.842 Q65.1182 811.616 57.8931 814.004 Q50.668 816.359 43.5384 816.359 Q36.4406 816.359 29.2474 814.004 Q22.0542 811.648 14.5426 806.842 L14.5426 801.75 Z" fill="#000000" fill-rule="evenodd" fill-opacity="1" /><path clip-path="url(#clip660)" d="M35.1993 762.632 Q31.2526 760.436 29.3747 757.381 Q27.4968 754.325 27.4968 750.187 Q27.4968 744.617 31.4117 741.594 Q35.2948 738.57 42.4881 738.57 L64.0042 738.57 L64.0042 744.458 L42.679 744.458 Q37.5546 744.458 35.072 746.272 Q32.5894 748.087 32.5894 751.811 Q32.5894 756.362 35.6131 759.004 Q38.6368 761.646 43.8567 761.646 L64.0042 761.646 L64.0042 767.534 L42.679 767.534 Q37.5228 767.534 35.072 769.348 Q32.5894 771.162 32.5894 774.95 Q32.5894 779.438 35.6449 782.079 Q38.6686 784.721 43.8567 784.721 L64.0042 784.721 L64.0042 790.61 L28.3562 790.61 L28.3562 784.721 L33.8944 784.721 Q30.616 782.716 29.0564 779.915 Q27.4968 777.114 27.4968 773.263 Q27.4968 769.38 29.4702 766.674 Q31.4436 763.937 35.1993 762.632 Z" fill="#000000" fill-rule="evenodd" fill-opacity="1" /><path clip-path="url(#clip660)" d="M32.4621 713.075 Q32.4621 717.786 36.1542 720.523 Q39.8145 723.26 46.212 723.26 Q52.6095 723.26 56.3017 720.555 Q59.9619 717.818 59.9619 713.075 Q59.9619 708.396 56.2698 705.659 Q52.5777 702.922 46.212 702.922 Q39.8781 702.922 36.186 705.659 Q32.4621 708.396 32.4621 713.075 M27.4968 713.075 Q27.4968 705.436 32.4621 701.076 Q37.4273 696.715 46.212 696.715 Q54.9649 696.715 59.9619 701.076 Q64.9272 705.436 64.9272 713.075 Q64.9272 720.746 59.9619 725.106 Q54.9649 729.435 46.212 729.435 Q37.4273 729.435 32.4621 725.106 Q27.4968 720.746 27.4968 713.075 Z" fill="#000000" fill-rule="evenodd" fill-opacity="1" /><path clip-path="url(#clip660)" d="M14.479 687.008 L14.479 681.151 L64.0042 681.151 L64.0042 687.008 L14.479 687.008 Z" fill="#000000" fill-rule="evenodd" fill-opacity="1" /><path clip-path="url(#clip660)" d="M67.3143 633.345 Q73.68 635.827 75.6216 638.183 Q77.5631 640.538 77.5631 644.485 L77.5631 649.164 L72.6615 649.164 L72.6615 645.726 Q72.6615 643.307 71.5157 641.97 Q70.3699 640.633 66.1048 639.01 L63.4312 637.96 L28.3562 652.378 L28.3562 646.172 L56.238 635.032 L28.3562 623.892 L28.3562 617.685 L67.3143 633.345 Z" fill="#000000" fill-rule="evenodd" fill-opacity="1" /><path clip-path="url(#clip660)" d="M33.8307 588.944 Q33.2578 589.931 33.0032 591.108 Q32.7167 592.254 32.7167 593.655 Q32.7167 598.62 35.9632 601.293 Q39.1779 603.935 45.2253 603.935 L64.0042 603.935 L64.0042 609.823 L28.3562 609.823 L28.3562 603.935 L33.8944 603.935 Q30.6479 602.089 29.0883 599.129 Q27.4968 596.169 27.4968 591.936 Q27.4968 591.331 27.5923 590.599 Q27.656 589.867 27.8151 588.976 L33.8307 588.944 Z" fill="#000000" fill-rule="evenodd" fill-opacity="1" /><path clip-path="url(#clip660)" d="M43.5384 589.931 L43.5384 572.775 L48.7583 572.775 L48.7583 589.931 L43.5384 589.931 Z" fill="#000000" fill-rule="evenodd" fill-opacity="1" /><path clip-path="url(#clip660)" d="M58.5933 561.508 L58.5933 551.004 L22.3406 551.004 L24.6323 562.431 L18.7758 562.431 L16.4842 551.068 L16.4842 544.639 L58.5933 544.639 L58.5933 534.135 L64.0042 534.135 L64.0042 561.508 L58.5933 561.508 Z" fill="#000000" fill-rule="evenodd" fill-opacity="1" /><path clip-path="url(#clip660)" d="M14.5426 522.9 L14.5426 517.807 Q22.0542 513.033 29.2474 510.678 Q36.4406 508.29 43.5384 508.29 Q50.668 508.29 57.8931 510.678 Q65.1182 513.033 72.5979 517.807 L72.5979 522.9 Q65.3091 518.667 58.1159 516.598 Q50.8908 514.497 43.5384 514.497 Q36.186 514.497 29.0246 516.598 Q21.8632 518.667 14.5426 522.9 Z" fill="#000000" fill-rule="evenodd" fill-opacity="1" /><polyline clip-path="url(#clip662)" style="stroke:#009af9; stroke-linecap:butt; stroke-linejoin:round; stroke-width:4; stroke-opacity:1; fill:none" points="
  237.067,86.1857 237.067,86.1857 237.074,86.2069 237.141,86.419 237.258,86.7924 237.468,87.4596 237.839,88.6385 238.501,90.7384 239.734,94.6401 242.929,104.699 
  246.124,114.681 249.319,124.585 254.277,139.802 259.235,154.836 264.193,169.69 269.151,184.366 279.2,213.573 289.249,242.074 299.298,269.886 309.347,297.026 
  328.321,346.497 347.296,393.735 366.271,438.841 385.245,481.912 416.54,548.742 447.834,610.67 479.129,668.057 510.423,721.234 541.718,770.51 573.012,816.172 
  604.307,858.485 682.626,951.276 736.833,1005.89 791.041,1053.75 845.248,1095.69 899.456,1132.45 953.664,1164.66 1007.87,1192.9 1062.08,1217.64 1116.29,1239.32 
  1170.49,1258.32 1224.7,1274.98 1278.91,1289.57 1365.72,1309.28 1452.54,1325.24 1539.35,1338.15 1626.17,1348.61 1712.98,1357.07 1799.79,1363.92 1886.61,1369.47 
  1973.42,1373.96 2060.24,1377.6 2147.05,1380.54 2233.86,1382.92 2291.13,1384.24 
  "/>
<polyline clip-path="url(#clip662)" style="stroke:#e26f46; stroke-linecap:butt; stroke-linejoin:round; stroke-width:4; stroke-opacity:1; fill:none" points="
  237.067,86.1857 237.067,86.1857 237.074,86.2069 237.141,86.419 237.258,86.7924 237.468,87.4596 237.839,88.6385 238.501,90.7384 239.734,94.6401 242.929,104.699 
  246.124,114.681 249.319,124.585 254.277,139.802 259.235,154.836 264.193,169.69 269.151,184.366 279.2,213.573 289.249,242.074 299.298,269.886 309.347,297.026 
  328.321,346.497 347.296,393.735 366.271,438.841 385.245,481.912 416.54,548.742 447.834,610.67 479.129,668.057 510.423,721.234 541.718,770.51 573.012,816.172 
  604.307,858.485 682.626,951.276 736.833,1005.89 791.041,1053.75 845.248,1095.69 899.456,1132.45 953.664,1164.66 1007.87,1192.9 1062.08,1217.64 1116.29,1239.32 
  1170.49,1258.32 1224.7,1274.98 1278.91,1289.57 1365.72,1309.28 1452.54,1325.24 1539.35,1338.15 1626.17,1348.61 1712.98,1357.07 1799.79,1363.92 1886.61,1369.47 
  1973.42,1373.96 2060.24,1377.6 2147.05,1380.54 2233.86,1382.92 2291.13,1384.24 
  "/>
<path clip-path="url(#clip660)" d="
M1654.95 248.629 L2280.18 248.629 L2280.18 93.1086 L1654.95 93.1086  Z
  " fill="#ffffff" fill-rule="evenodd" fill-opacity="1"/>
<polyline clip-path="url(#clip660)" style="stroke:#000000; stroke-linecap:butt; stroke-linejoin:round; stroke-width:4; stroke-opacity:1; fill:none" points="
  1654.95,248.629 2280.18,248.629 2280.18,93.1086 1654.95,93.1086 1654.95,248.629 
  "/>
<polyline clip-path="url(#clip660)" style="stroke:#009af9; stroke-linecap:butt; stroke-linejoin:round; stroke-width:4; stroke-opacity:1; fill:none" points="
  1679.14,144.949 1824.29,144.949 
  "/>
<path clip-path="url(#clip660)" d="M1853.16 145.724 L1853.16 158.386 L1860.66 158.386 Q1864.44 158.386 1866.24 156.835 Q1868.07 155.261 1868.07 152.043 Q1868.07 148.803 1866.24 147.275 Q1864.44 145.724 1860.66 145.724 L1853.16 145.724 M1853.16 131.511 L1853.16 141.928 L1860.08 141.928 Q1863.51 141.928 1865.18 140.655 Q1866.87 139.358 1866.87 136.719 Q1866.87 134.104 1865.18 132.807 Q1863.51 131.511 1860.08 131.511 L1853.16 131.511 M1848.49 127.669 L1860.43 127.669 Q1865.78 127.669 1868.67 129.891 Q1871.56 132.113 1871.56 136.21 Q1871.56 139.382 1870.08 141.257 Q1868.6 143.131 1865.73 143.594 Q1869.18 144.335 1871.08 146.696 Q1873 149.034 1873 152.553 Q1873 157.182 1869.85 159.705 Q1866.7 162.229 1860.89 162.229 L1848.49 162.229 L1848.49 127.669 Z" fill="#000000" fill-rule="evenodd" fill-opacity="1" /><path clip-path="url(#clip660)" d="M1890.87 139.289 Q1887.44 139.289 1885.45 141.974 Q1883.46 144.636 1883.46 149.289 Q1883.46 153.942 1885.43 156.627 Q1887.42 159.289 1890.87 159.289 Q1894.27 159.289 1896.26 156.604 Q1898.25 153.918 1898.25 149.289 Q1898.25 144.682 1896.26 141.997 Q1894.27 139.289 1890.87 139.289 M1890.87 135.678 Q1896.43 135.678 1899.6 139.289 Q1902.77 142.9 1902.77 149.289 Q1902.77 155.655 1899.6 159.289 Q1896.43 162.9 1890.87 162.9 Q1885.29 162.9 1882.12 159.289 Q1878.97 155.655 1878.97 149.289 Q1878.97 142.9 1882.12 139.289 Q1885.29 135.678 1890.87 135.678 Z" fill="#000000" fill-rule="evenodd" fill-opacity="1" /><path clip-path="url(#clip660)" d="M1929.92 136.303 L1920.55 148.919 L1930.41 162.229 L1925.38 162.229 L1917.84 152.043 L1910.29 162.229 L1905.27 162.229 L1915.34 148.664 L1906.12 136.303 L1911.15 136.303 L1918.02 145.539 L1924.9 136.303 L1929.92 136.303 Z" fill="#000000" fill-rule="evenodd" fill-opacity="1" /><path clip-path="url(#clip660)" d="M1937.84 158.293 L1945.48 158.293 L1945.48 131.928 L1937.17 133.595 L1937.17 129.335 L1945.43 127.669 L1950.11 127.669 L1950.11 158.293 L1957.74 158.293 L1957.74 162.229 L1937.84 162.229 L1937.84 158.293 Z" fill="#000000" fill-rule="evenodd" fill-opacity="1" /><path clip-path="url(#clip660)" d="M1967.19 156.349 L1972.07 156.349 L1972.07 162.229 L1967.19 162.229 L1967.19 156.349 Z" fill="#000000" fill-rule="evenodd" fill-opacity="1" /><path clip-path="url(#clip660)" d="M1998.72 140.238 L1998.72 126.21 L2002.98 126.21 L2002.98 162.229 L1998.72 162.229 L1998.72 158.34 Q1997.37 160.655 1995.31 161.789 Q1993.28 162.9 1990.41 162.9 Q1985.71 162.9 1982.74 159.15 Q1979.8 155.4 1979.8 149.289 Q1979.8 143.178 1982.74 139.428 Q1985.71 135.678 1990.41 135.678 Q1993.28 135.678 1995.31 136.812 Q1997.37 137.923 1998.72 140.238 M1984.2 149.289 Q1984.2 153.988 1986.12 156.673 Q1988.07 159.335 1991.45 159.335 Q1994.83 159.335 1996.77 156.673 Q1998.72 153.988 1998.72 149.289 Q1998.72 144.59 1996.77 141.928 Q1994.83 139.243 1991.45 139.243 Q1988.07 139.243 1986.12 141.928 Q1984.2 144.59 1984.2 149.289 Z" fill="#000000" fill-rule="evenodd" fill-opacity="1" /><path clip-path="url(#clip660)" d="M2033.92 148.201 L2033.92 150.284 L2014.34 150.284 Q2014.62 154.682 2016.98 156.997 Q2019.36 159.289 2023.6 159.289 Q2026.05 159.289 2028.35 158.687 Q2030.66 158.085 2032.93 156.881 L2032.93 160.909 Q2030.64 161.881 2028.23 162.391 Q2025.82 162.9 2023.35 162.9 Q2017.14 162.9 2013.51 159.289 Q2009.9 155.678 2009.9 149.52 Q2009.9 143.155 2013.32 139.428 Q2016.77 135.678 2022.61 135.678 Q2027.84 135.678 2030.87 139.057 Q2033.92 142.414 2033.92 148.201 M2029.67 146.951 Q2029.62 143.456 2027.7 141.372 Q2025.8 139.289 2022.65 139.289 Q2019.09 139.289 2016.93 141.303 Q2014.8 143.317 2014.48 146.974 L2029.67 146.951 Z" fill="#000000" fill-rule="evenodd" fill-opacity="1" /><path clip-path="url(#clip660)" d="M2059.57 137.298 L2059.57 141.28 Q2057.77 140.284 2055.94 139.798 Q2054.13 139.289 2052.28 139.289 Q2048.14 139.289 2045.85 141.928 Q2043.55 144.544 2043.55 149.289 Q2043.55 154.034 2045.85 156.673 Q2048.14 159.289 2052.28 159.289 Q2054.13 159.289 2055.94 158.803 Q2057.77 158.293 2059.57 157.298 L2059.57 161.233 Q2057.79 162.067 2055.87 162.483 Q2053.97 162.9 2051.82 162.9 Q2045.96 162.9 2042.51 159.219 Q2039.06 155.539 2039.06 149.289 Q2039.06 142.946 2042.54 139.312 Q2046.03 135.678 2052.1 135.678 Q2054.06 135.678 2055.94 136.095 Q2057.81 136.488 2059.57 137.298 Z" fill="#000000" fill-rule="evenodd" fill-opacity="1" /><path clip-path="url(#clip660)" d="M2078.76 149.196 Q2073.6 149.196 2071.61 150.377 Q2069.62 151.557 2069.62 154.405 Q2069.62 156.673 2071.1 158.016 Q2072.61 159.335 2075.17 159.335 Q2078.72 159.335 2080.85 156.835 Q2083 154.312 2083 150.145 L2083 149.196 L2078.76 149.196 M2087.26 147.437 L2087.26 162.229 L2083 162.229 L2083 158.293 Q2081.54 160.655 2079.36 161.789 Q2077.19 162.9 2074.04 162.9 Q2070.06 162.9 2067.7 160.678 Q2065.36 158.432 2065.36 154.682 Q2065.36 150.307 2068.28 148.085 Q2071.22 145.863 2077.03 145.863 L2083 145.863 L2083 145.446 Q2083 142.507 2081.05 140.909 Q2079.13 139.289 2075.64 139.289 Q2073.42 139.289 2071.31 139.821 Q2069.2 140.354 2067.26 141.419 L2067.26 137.483 Q2069.6 136.581 2071.8 136.141 Q2073.99 135.678 2076.08 135.678 Q2081.7 135.678 2084.48 138.594 Q2087.26 141.511 2087.26 147.437 Z" fill="#000000" fill-rule="evenodd" fill-opacity="1" /><path clip-path="url(#clip660)" d="M2106.82 164.636 Q2105.01 169.266 2103.3 170.678 Q2101.59 172.09 2098.72 172.09 L2095.31 172.09 L2095.31 168.525 L2097.81 168.525 Q2099.57 168.525 2100.54 167.692 Q2101.52 166.858 2102.7 163.756 L2103.46 161.812 L2092.98 136.303 L2097.49 136.303 L2105.59 156.581 L2113.69 136.303 L2118.21 136.303 L2106.82 164.636 Z" fill="#000000" fill-rule="evenodd" fill-opacity="1" /><path clip-path="url(#clip660)" d="M2143.79 170.099 L2143.79 173.409 L2119.16 173.409 L2119.16 170.099 L2143.79 170.099 Z" fill="#000000" fill-rule="evenodd" fill-opacity="1" /><path clip-path="url(#clip660)" d="M2160.91 126.21 L2160.91 129.752 L2156.84 129.752 Q2154.55 129.752 2153.65 130.678 Q2152.77 131.604 2152.77 134.011 L2152.77 136.303 L2159.78 136.303 L2159.78 139.613 L2152.77 139.613 L2152.77 162.229 L2148.48 162.229 L2148.48 139.613 L2144.41 139.613 L2144.41 136.303 L2148.48 136.303 L2148.48 134.497 Q2148.48 130.169 2150.5 128.201 Q2152.51 126.21 2156.89 126.21 L2160.91 126.21 Z" fill="#000000" fill-rule="evenodd" fill-opacity="1" /><path clip-path="url(#clip660)" d="M2164.48 126.21 L2168.74 126.21 L2168.74 162.229 L2164.48 162.229 L2164.48 126.21 Z" fill="#000000" fill-rule="evenodd" fill-opacity="1" /><path clip-path="url(#clip660)" d="M2177.21 151.997 L2177.21 136.303 L2181.47 136.303 L2181.47 151.835 Q2181.47 155.516 2182.91 157.368 Q2184.34 159.196 2187.21 159.196 Q2190.66 159.196 2192.65 156.997 Q2194.66 154.798 2194.66 151.002 L2194.66 136.303 L2198.92 136.303 L2198.92 162.229 L2194.66 162.229 L2194.66 158.247 Q2193.11 160.608 2191.05 161.766 Q2189.02 162.9 2186.31 162.9 Q2181.84 162.9 2179.53 160.122 Q2177.21 157.344 2177.21 151.997 M2187.93 135.678 L2187.93 135.678 Z" fill="#000000" fill-rule="evenodd" fill-opacity="1" /><path clip-path="url(#clip660)" d="M2229.25 136.303 L2219.87 148.919 L2229.73 162.229 L2224.71 162.229 L2217.16 152.043 L2209.62 162.229 L2204.6 162.229 L2214.66 148.664 L2205.45 136.303 L2210.47 136.303 L2217.35 145.539 L2224.22 136.303 L2229.25 136.303 Z" fill="#000000" fill-rule="evenodd" fill-opacity="1" /><polyline clip-path="url(#clip660)" style="stroke:#e26f46; stroke-linecap:butt; stroke-linejoin:round; stroke-width:4; stroke-opacity:1; fill:none" points="
  1679.14,196.789 1824.29,196.789 
  "/>
<path clip-path="url(#clip660)" d="M1864.99 178.05 L1864.99 181.592 L1860.92 181.592 Q1858.62 181.592 1857.72 182.518 Q1856.84 183.444 1856.84 185.851 L1856.84 188.143 L1863.86 188.143 L1863.86 191.453 L1856.84 191.453 L1856.84 214.069 L1852.56 214.069 L1852.56 191.453 L1848.49 191.453 L1848.49 188.143 L1852.56 188.143 L1852.56 186.337 Q1852.56 182.009 1854.57 180.041 Q1856.59 178.05 1860.96 178.05 L1864.99 178.05 Z" fill="#000000" fill-rule="evenodd" fill-opacity="1" /><path clip-path="url(#clip660)" d="M1868.56 178.05 L1872.81 178.05 L1872.81 214.069 L1868.56 214.069 L1868.56 178.05 Z" fill="#000000" fill-rule="evenodd" fill-opacity="1" /><path clip-path="url(#clip660)" d="M1881.29 203.837 L1881.29 188.143 L1885.55 188.143 L1885.55 203.675 Q1885.55 207.356 1886.98 209.208 Q1888.42 211.036 1891.29 211.036 Q1894.74 211.036 1896.73 208.837 Q1898.74 206.638 1898.74 202.842 L1898.74 188.143 L1903 188.143 L1903 214.069 L1898.74 214.069 L1898.74 210.087 Q1897.19 212.448 1895.13 213.606 Q1893.09 214.74 1890.38 214.74 Q1885.92 214.74 1883.6 211.962 Q1881.29 209.184 1881.29 203.837 M1892 187.518 L1892 187.518 Z" fill="#000000" fill-rule="evenodd" fill-opacity="1" /><path clip-path="url(#clip660)" d="M1933.32 188.143 L1923.95 200.759 L1933.81 214.069 L1928.79 214.069 L1921.24 203.883 L1913.69 214.069 L1908.67 214.069 L1918.74 200.504 L1909.53 188.143 L1914.55 188.143 L1921.43 197.379 L1928.3 188.143 L1933.32 188.143 Z" fill="#000000" fill-rule="evenodd" fill-opacity="1" /><path clip-path="url(#clip660)" d="M1944.69 197.564 L1944.69 210.226 L1952.19 210.226 Q1955.96 210.226 1957.77 208.675 Q1959.6 207.101 1959.6 203.883 Q1959.6 200.643 1957.77 199.115 Q1955.96 197.564 1952.19 197.564 L1944.69 197.564 M1944.69 183.351 L1944.69 193.768 L1951.61 193.768 Q1955.04 193.768 1956.7 192.495 Q1958.39 191.198 1958.39 188.559 Q1958.39 185.944 1956.7 184.647 Q1955.04 183.351 1951.61 183.351 L1944.69 183.351 M1940.01 179.509 L1951.96 179.509 Q1957.3 179.509 1960.2 181.731 Q1963.09 183.953 1963.09 188.05 Q1963.09 191.222 1961.61 193.097 Q1960.13 194.971 1957.26 195.434 Q1960.71 196.175 1962.61 198.536 Q1964.53 200.874 1964.53 204.393 Q1964.53 209.022 1961.38 211.545 Q1958.23 214.069 1952.42 214.069 L1940.01 214.069 L1940.01 179.509 Z" fill="#000000" fill-rule="evenodd" fill-opacity="1" /><path clip-path="url(#clip660)" d="M1982.4 191.129 Q1978.97 191.129 1976.98 193.814 Q1974.99 196.476 1974.99 201.129 Q1974.99 205.782 1976.96 208.467 Q1978.95 211.129 1982.4 211.129 Q1985.8 211.129 1987.79 208.444 Q1989.78 205.758 1989.78 201.129 Q1989.78 196.522 1987.79 193.837 Q1985.8 191.129 1982.4 191.129 M1982.4 187.518 Q1987.95 187.518 1991.12 191.129 Q1994.3 194.74 1994.3 201.129 Q1994.3 207.495 1991.12 211.129 Q1987.95 214.74 1982.4 214.74 Q1976.82 214.74 1973.65 211.129 Q1970.5 207.495 1970.5 201.129 Q1970.5 194.74 1973.65 191.129 Q1976.82 187.518 1982.4 187.518 Z" fill="#000000" fill-rule="evenodd" fill-opacity="1" /><path clip-path="url(#clip660)" d="M2021.45 188.143 L2012.07 200.759 L2021.93 214.069 L2016.91 214.069 L2009.36 203.883 L2001.82 214.069 L1996.8 214.069 L2006.86 200.504 L1997.65 188.143 L2002.68 188.143 L2009.55 197.379 L2016.42 188.143 L2021.45 188.143 Z" fill="#000000" fill-rule="evenodd" fill-opacity="1" /><path clip-path="url(#clip660)" d="M2048.67 200.041 L2048.67 202.124 L2029.09 202.124 Q2029.36 206.522 2031.73 208.837 Q2034.11 211.129 2038.35 211.129 Q2040.8 211.129 2043.09 210.527 Q2045.41 209.925 2047.67 208.721 L2047.67 212.749 Q2045.38 213.721 2042.98 214.231 Q2040.57 214.74 2038.09 214.74 Q2031.89 214.74 2028.25 211.129 Q2024.64 207.518 2024.64 201.36 Q2024.64 194.995 2028.07 191.268 Q2031.52 187.518 2037.35 187.518 Q2042.58 187.518 2045.61 190.897 Q2048.67 194.254 2048.67 200.041 M2044.41 198.791 Q2044.36 195.296 2042.44 193.212 Q2040.55 191.129 2037.4 191.129 Q2033.83 191.129 2031.68 193.143 Q2029.55 195.157 2029.23 198.814 L2044.41 198.791 Z" fill="#000000" fill-rule="evenodd" fill-opacity="1" /><path clip-path="url(#clip660)" d="M2072.19 188.907 L2072.19 192.934 Q2070.38 192.009 2068.44 191.546 Q2066.49 191.083 2064.41 191.083 Q2061.24 191.083 2059.64 192.055 Q2058.07 193.027 2058.07 194.971 Q2058.07 196.453 2059.2 197.309 Q2060.34 198.143 2063.76 198.907 L2065.22 199.231 Q2069.76 200.203 2071.66 201.985 Q2073.58 203.745 2073.58 206.916 Q2073.58 210.527 2070.71 212.633 Q2067.86 214.74 2062.86 214.74 Q2060.78 214.74 2058.51 214.323 Q2056.26 213.93 2053.76 213.12 L2053.76 208.721 Q2056.12 209.948 2058.42 210.573 Q2060.71 211.175 2062.95 211.175 Q2065.96 211.175 2067.58 210.157 Q2069.2 209.115 2069.2 207.24 Q2069.2 205.504 2068.02 204.578 Q2066.86 203.652 2062.91 202.796 L2061.42 202.448 Q2057.47 201.615 2055.71 199.902 Q2053.95 198.166 2053.95 195.157 Q2053.95 191.499 2056.54 189.509 Q2059.13 187.518 2063.9 187.518 Q2066.26 187.518 2068.35 187.865 Q2070.43 188.212 2072.19 188.907 Z" fill="#000000" fill-rule="evenodd" fill-opacity="1" /><path clip-path="url(#clip660)" d="M2080.96 208.189 L2085.85 208.189 L2085.85 214.069 L2080.96 214.069 L2080.96 208.189 Z" fill="#000000" fill-rule="evenodd" fill-opacity="1" /><path clip-path="url(#clip660)" d="M2108.55 178.05 L2108.55 181.592 L2104.48 181.592 Q2102.19 181.592 2101.29 182.518 Q2100.41 183.444 2100.41 185.851 L2100.41 188.143 L2107.42 188.143 L2107.42 191.453 L2100.41 191.453 L2100.41 214.069 L2096.12 214.069 L2096.12 191.453 L2092.05 191.453 L2092.05 188.143 L2096.12 188.143 L2096.12 186.337 Q2096.12 182.009 2098.14 180.041 Q2100.15 178.05 2104.53 178.05 L2108.55 178.05 Z" fill="#000000" fill-rule="evenodd" fill-opacity="1" /><path clip-path="url(#clip660)" d="M2112.12 178.05 L2116.38 178.05 L2116.38 214.069 L2112.12 214.069 L2112.12 178.05 Z" fill="#000000" fill-rule="evenodd" fill-opacity="1" /><path clip-path="url(#clip660)" d="M2124.85 203.837 L2124.85 188.143 L2129.11 188.143 L2129.11 203.675 Q2129.11 207.356 2130.54 209.208 Q2131.98 211.036 2134.85 211.036 Q2138.3 211.036 2140.29 208.837 Q2142.3 206.638 2142.3 202.842 L2142.3 188.143 L2146.56 188.143 L2146.56 214.069 L2142.3 214.069 L2142.3 210.087 Q2140.75 212.448 2138.69 213.606 Q2136.66 214.74 2133.95 214.74 Q2129.48 214.74 2127.17 211.962 Q2124.85 209.184 2124.85 203.837 M2135.57 187.518 L2135.57 187.518 Z" fill="#000000" fill-rule="evenodd" fill-opacity="1" /><path clip-path="url(#clip660)" d="M2176.89 188.143 L2167.51 200.759 L2177.37 214.069 L2172.35 214.069 L2164.8 203.883 L2157.26 214.069 L2152.23 214.069 L2162.3 200.504 L2153.09 188.143 L2158.11 188.143 L2164.99 197.379 L2171.86 188.143 L2176.89 188.143 Z" fill="#000000" fill-rule="evenodd" fill-opacity="1" /><path clip-path="url(#clip660)" d="M2203.09 221.939 L2203.09 225.249 L2178.46 225.249 L2178.46 221.939 L2203.09 221.939 Z" fill="#000000" fill-rule="evenodd" fill-opacity="1" /><path clip-path="url(#clip660)" d="M2211.96 197.564 L2211.96 210.226 L2219.46 210.226 Q2223.23 210.226 2225.03 208.675 Q2226.86 207.101 2226.86 203.883 Q2226.86 200.643 2225.03 199.115 Q2223.23 197.564 2219.46 197.564 L2211.96 197.564 M2211.96 183.351 L2211.96 193.768 L2218.88 193.768 Q2222.3 193.768 2223.97 192.495 Q2225.66 191.198 2225.66 188.559 Q2225.66 185.944 2223.97 184.647 Q2222.3 183.351 2218.88 183.351 L2211.96 183.351 M2207.28 179.509 L2219.22 179.509 Q2224.57 179.509 2227.47 181.731 Q2230.36 183.953 2230.36 188.05 Q2230.36 191.222 2228.88 193.097 Q2227.4 194.971 2224.53 195.434 Q2227.97 196.175 2229.87 198.536 Q2231.79 200.874 2231.79 204.393 Q2231.79 209.022 2228.65 211.545 Q2225.5 214.069 2219.69 214.069 L2207.28 214.069 L2207.28 179.509 Z" fill="#000000" fill-rule="evenodd" fill-opacity="1" /></svg>
