<?xml version="1.0" encoding="utf-8"?>
<svg xmlns="http://www.w3.org/2000/svg" xmlns:xlink="http://www.w3.org/1999/xlink" width="600" height="400" viewBox="0 0 2400 1600">
<defs>
  <clipPath id="clip110">
    <rect x="0" y="0" width="2400" height="1600"/>
  </clipPath>
</defs>
<path clip-path="url(#clip110)" d="M0 1600 L2400 1600 L2400 0 L0 0  Z" fill="#ffffff" fill-rule="evenodd" fill-opacity="1"/>
<defs>
  <clipPath id="clip111">
    <rect x="480" y="0" width="1681" height="1600"/>
  </clipPath>
</defs>
<path clip-path="url(#clip110)" d="M249.449 1423.18 L2352.76 1423.18 L2352.76 47.2441 L249.449 47.2441  Z" fill="#ffffff" fill-rule="evenodd" fill-opacity="1"/>
<defs>
  <clipPath id="clip112">
    <rect x="249" y="47" width="2104" height="1377"/>
  </clipPath>
</defs>
<polyline clip-path="url(#clip112)" style="stroke:#000000; stroke-linecap:round; stroke-linejoin:round; stroke-width:2; stroke-opacity:0.1; fill:none" points="308.977,1423.18 308.977,47.2441 "/>
<polyline clip-path="url(#clip112)" style="stroke:#000000; stroke-linecap:round; stroke-linejoin:round; stroke-width:2; stroke-opacity:0.1; fill:none" points="805.04,1423.18 805.04,47.2441 "/>
<polyline clip-path="url(#clip112)" style="stroke:#000000; stroke-linecap:round; stroke-linejoin:round; stroke-width:2; stroke-opacity:0.1; fill:none" points="1301.1,1423.18 1301.1,47.2441 "/>
<polyline clip-path="url(#clip112)" style="stroke:#000000; stroke-linecap:round; stroke-linejoin:round; stroke-width:2; stroke-opacity:0.1; fill:none" points="1797.17,1423.18 1797.17,47.2441 "/>
<polyline clip-path="url(#clip112)" style="stroke:#000000; stroke-linecap:round; stroke-linejoin:round; stroke-width:2; stroke-opacity:0.1; fill:none" points="2293.23,1423.18 2293.23,47.2441 "/>
<polyline clip-path="url(#clip110)" style="stroke:#000000; stroke-linecap:round; stroke-linejoin:round; stroke-width:4; stroke-opacity:1; fill:none" points="249.449,1423.18 2352.76,1423.18 "/>
<polyline clip-path="url(#clip110)" style="stroke:#000000; stroke-linecap:round; stroke-linejoin:round; stroke-width:4; stroke-opacity:1; fill:none" points="308.977,1423.18 308.977,1404.28 "/>
<polyline clip-path="url(#clip110)" style="stroke:#000000; stroke-linecap:round; stroke-linejoin:round; stroke-width:4; stroke-opacity:1; fill:none" points="805.04,1423.18 805.04,1404.28 "/>
<polyline clip-path="url(#clip110)" style="stroke:#000000; stroke-linecap:round; stroke-linejoin:round; stroke-width:4; stroke-opacity:1; fill:none" points="1301.1,1423.18 1301.1,1404.28 "/>
<polyline clip-path="url(#clip110)" style="stroke:#000000; stroke-linecap:round; stroke-linejoin:round; stroke-width:4; stroke-opacity:1; fill:none" points="1797.17,1423.18 1797.17,1404.28 "/>
<polyline clip-path="url(#clip110)" style="stroke:#000000; stroke-linecap:round; stroke-linejoin:round; stroke-width:4; stroke-opacity:1; fill:none" points="2293.23,1423.18 2293.23,1404.28 "/>
<path clip-path="url(#clip110)" d="M308.977 1454.1 Q305.366 1454.1 303.537 1457.66 Q301.732 1461.2 301.732 1468.33 Q301.732 1475.44 303.537 1479.01 Q305.366 1482.55 308.977 1482.55 Q312.611 1482.55 314.417 1479.01 Q316.245 1475.44 316.245 1468.33 Q316.245 1461.2 314.417 1457.66 Q312.611 1454.1 308.977 1454.1 M308.977 1450.39 Q314.787 1450.39 317.843 1455 Q320.921 1459.58 320.921 1468.33 Q320.921 1477.06 317.843 1481.67 Q314.787 1486.25 308.977 1486.25 Q303.167 1486.25 300.088 1481.67 Q297.033 1477.06 297.033 1468.33 Q297.033 1459.58 300.088 1455 Q303.167 1450.39 308.977 1450.39 Z" fill="#000000" fill-rule="nonzero" fill-opacity="1" /><path clip-path="url(#clip110)" d="M784.311 1481.64 L800.63 1481.64 L800.63 1485.58 L778.686 1485.58 L778.686 1481.64 Q781.348 1478.89 785.931 1474.26 Q790.538 1469.61 791.718 1468.27 Q793.963 1465.74 794.843 1464.01 Q795.746 1462.25 795.746 1460.56 Q795.746 1457.8 793.801 1456.07 Q791.88 1454.33 788.778 1454.33 Q786.579 1454.33 784.126 1455.09 Q781.695 1455.86 778.917 1457.41 L778.917 1452.69 Q781.741 1451.55 784.195 1450.97 Q786.649 1450.39 788.686 1450.39 Q794.056 1450.39 797.251 1453.08 Q800.445 1455.77 800.445 1460.26 Q800.445 1462.39 799.635 1464.31 Q798.848 1466.2 796.741 1468.8 Q796.163 1469.47 793.061 1472.69 Q789.959 1475.88 784.311 1481.64 Z" fill="#000000" fill-rule="nonzero" fill-opacity="1" /><path clip-path="url(#clip110)" d="M810.491 1451.02 L828.848 1451.02 L828.848 1454.96 L814.774 1454.96 L814.774 1463.43 Q815.792 1463.08 816.811 1462.92 Q817.829 1462.73 818.848 1462.73 Q824.635 1462.73 828.014 1465.9 Q831.394 1469.08 831.394 1474.49 Q831.394 1480.07 827.922 1483.17 Q824.449 1486.25 818.13 1486.25 Q815.954 1486.25 813.686 1485.88 Q811.44 1485.51 809.033 1484.77 L809.033 1480.07 Q811.116 1481.2 813.338 1481.76 Q815.561 1482.32 818.037 1482.32 Q822.042 1482.32 824.38 1480.21 Q826.718 1478.1 826.718 1474.49 Q826.718 1470.88 824.38 1468.77 Q822.042 1466.67 818.037 1466.67 Q816.162 1466.67 814.287 1467.08 Q812.436 1467.5 810.491 1468.38 L810.491 1451.02 Z" fill="#000000" fill-rule="nonzero" fill-opacity="1" /><path clip-path="url(#clip110)" d="M1275.8 1451.02 L1294.16 1451.02 L1294.16 1454.96 L1280.08 1454.96 L1280.08 1463.43 Q1281.1 1463.08 1282.12 1462.92 Q1283.14 1462.73 1284.16 1462.73 Q1289.95 1462.73 1293.32 1465.9 Q1296.7 1469.08 1296.7 1474.49 Q1296.7 1480.07 1293.23 1483.17 Q1289.76 1486.25 1283.44 1486.25 Q1281.26 1486.25 1279 1485.88 Q1276.75 1485.51 1274.34 1484.77 L1274.34 1480.07 Q1276.43 1481.2 1278.65 1481.76 Q1280.87 1482.32 1283.35 1482.32 Q1287.35 1482.32 1289.69 1480.21 Q1292.03 1478.1 1292.03 1474.49 Q1292.03 1470.88 1289.69 1468.77 Q1287.35 1466.67 1283.35 1466.67 Q1281.47 1466.67 1279.6 1467.08 Q1277.75 1467.5 1275.8 1468.38 L1275.8 1451.02 Z" fill="#000000" fill-rule="nonzero" fill-opacity="1" /><path clip-path="url(#clip110)" d="M1315.92 1454.1 Q1312.31 1454.1 1310.48 1457.66 Q1308.67 1461.2 1308.67 1468.33 Q1308.67 1475.44 1310.48 1479.01 Q1312.31 1482.55 1315.92 1482.55 Q1319.55 1482.55 1321.36 1479.01 Q1323.19 1475.44 1323.19 1468.33 Q1323.19 1461.2 1321.36 1457.66 Q1319.55 1454.1 1315.92 1454.1 M1315.92 1450.39 Q1321.73 1450.39 1324.78 1455 Q1327.86 1459.58 1327.86 1468.33 Q1327.86 1477.06 1324.78 1481.67 Q1321.73 1486.25 1315.92 1486.25 Q1310.11 1486.25 1307.03 1481.67 Q1303.97 1477.06 1303.97 1468.33 Q1303.97 1459.58 1307.03 1455 Q1310.11 1450.39 1315.92 1450.39 Z" fill="#000000" fill-rule="nonzero" fill-opacity="1" /><path clip-path="url(#clip110)" d="M1771.02 1451.02 L1793.24 1451.02 L1793.24 1453.01 L1780.7 1485.58 L1775.81 1485.58 L1787.62 1454.96 L1771.02 1454.96 L1771.02 1451.02 Z" fill="#000000" fill-rule="nonzero" fill-opacity="1" /><path clip-path="url(#clip110)" d="M1802.41 1451.02 L1820.76 1451.02 L1820.76 1454.96 L1806.69 1454.96 L1806.69 1463.43 Q1807.71 1463.08 1808.73 1462.92 Q1809.75 1462.73 1810.76 1462.73 Q1816.55 1462.73 1819.93 1465.9 Q1823.31 1469.08 1823.31 1474.49 Q1823.31 1480.07 1819.84 1483.17 Q1816.37 1486.25 1810.05 1486.25 Q1807.87 1486.25 1805.6 1485.88 Q1803.36 1485.51 1800.95 1484.77 L1800.95 1480.07 Q1803.03 1481.2 1805.26 1481.76 Q1807.48 1482.32 1809.95 1482.32 Q1813.96 1482.32 1816.3 1480.21 Q1818.64 1478.1 1818.64 1474.49 Q1818.64 1470.88 1816.3 1468.77 Q1813.96 1466.67 1809.95 1466.67 Q1808.08 1466.67 1806.2 1467.08 Q1804.35 1467.5 1802.41 1468.38 L1802.41 1451.02 Z" fill="#000000" fill-rule="nonzero" fill-opacity="1" /><path clip-path="url(#clip110)" d="M2252.84 1481.64 L2260.47 1481.64 L2260.47 1455.28 L2252.16 1456.95 L2252.16 1452.69 L2260.43 1451.02 L2265.1 1451.02 L2265.1 1481.64 L2272.74 1481.64 L2272.74 1485.58 L2252.84 1485.58 L2252.84 1481.64 Z" fill="#000000" fill-rule="nonzero" fill-opacity="1" /><path clip-path="url(#clip110)" d="M2292.19 1454.1 Q2288.58 1454.1 2286.75 1457.66 Q2284.94 1461.2 2284.94 1468.33 Q2284.94 1475.44 2286.75 1479.01 Q2288.58 1482.55 2292.19 1482.55 Q2295.82 1482.55 2297.63 1479.01 Q2299.46 1475.44 2299.46 1468.33 Q2299.46 1461.2 2297.63 1457.66 Q2295.82 1454.1 2292.19 1454.1 M2292.19 1450.39 Q2298 1450.39 2301.05 1455 Q2304.13 1459.58 2304.13 1468.33 Q2304.13 1477.06 2301.05 1481.67 Q2298 1486.25 2292.19 1486.25 Q2286.38 1486.25 2283.3 1481.67 Q2280.24 1477.06 2280.24 1468.33 Q2280.24 1459.58 2283.3 1455 Q2286.38 1450.39 2292.19 1450.39 Z" fill="#000000" fill-rule="nonzero" fill-opacity="1" /><path clip-path="url(#clip110)" d="M2322.35 1454.1 Q2318.74 1454.1 2316.91 1457.66 Q2315.1 1461.2 2315.1 1468.33 Q2315.1 1475.44 2316.91 1479.01 Q2318.74 1482.55 2322.35 1482.55 Q2325.98 1482.55 2327.79 1479.01 Q2329.62 1475.44 2329.62 1468.33 Q2329.62 1461.2 2327.79 1457.66 Q2325.98 1454.1 2322.35 1454.1 M2322.35 1450.39 Q2328.16 1450.39 2331.21 1455 Q2334.29 1459.58 2334.29 1468.33 Q2334.29 1477.06 2331.21 1481.67 Q2328.16 1486.25 2322.35 1486.25 Q2316.54 1486.25 2313.46 1481.67 Q2310.4 1477.06 2310.4 1468.33 Q2310.4 1459.58 2313.46 1455 Q2316.54 1450.39 2322.35 1450.39 Z" fill="#000000" fill-rule="nonzero" fill-opacity="1" /><path clip-path="url(#clip110)" d="M1132.22 1522.27 L1132.22 1532.4 L1144.28 1532.4 L1144.28 1536.95 L1132.22 1536.95 L1132.22 1556.3 Q1132.22 1560.66 1133.4 1561.9 Q1134.61 1563.14 1138.27 1563.14 L1144.28 1563.14 L1144.28 1568.04 L1138.27 1568.04 Q1131.49 1568.04 1128.91 1565.53 Q1126.33 1562.98 1126.33 1556.3 L1126.33 1536.95 L1122.04 1536.95 L1122.04 1532.4 L1126.33 1532.4 L1126.33 1522.27 L1132.22 1522.27 Z" fill="#000000" fill-rule="nonzero" fill-opacity="1" /><path clip-path="url(#clip110)" d="M1179.74 1539.24 Q1181.94 1535.29 1184.99 1533.41 Q1188.05 1531.54 1192.19 1531.54 Q1197.76 1531.54 1200.78 1535.45 Q1203.8 1539.33 1203.8 1546.53 L1203.8 1568.04 L1197.91 1568.04 L1197.91 1546.72 Q1197.91 1541.59 1196.1 1539.11 Q1194.29 1536.63 1190.56 1536.63 Q1186.01 1536.63 1183.37 1539.65 Q1180.73 1542.68 1180.73 1547.9 L1180.73 1568.04 L1174.84 1568.04 L1174.84 1546.72 Q1174.84 1541.56 1173.02 1539.11 Q1171.21 1536.63 1167.42 1536.63 Q1162.94 1536.63 1160.29 1539.68 Q1157.65 1542.71 1157.65 1547.9 L1157.65 1568.04 L1151.76 1568.04 L1151.76 1532.4 L1157.65 1532.4 L1157.65 1537.93 Q1159.66 1534.66 1162.46 1533.1 Q1165.26 1531.54 1169.11 1531.54 Q1172.99 1531.54 1175.7 1533.51 Q1178.44 1535.48 1179.74 1539.24 Z" fill="#000000" fill-rule="nonzero" fill-opacity="1" /><path clip-path="url(#clip110)" d="M1229.3 1536.5 Q1224.59 1536.5 1221.85 1540.19 Q1219.11 1543.85 1219.11 1550.25 Q1219.11 1556.65 1221.82 1560.34 Q1224.56 1564 1229.3 1564 Q1233.98 1564 1236.71 1560.31 Q1239.45 1556.62 1239.45 1550.25 Q1239.45 1543.92 1236.71 1540.23 Q1233.98 1536.5 1229.3 1536.5 M1229.3 1531.54 Q1236.94 1531.54 1241.3 1536.5 Q1245.66 1541.47 1245.66 1550.25 Q1245.66 1559 1241.3 1564 Q1236.94 1568.97 1229.3 1568.97 Q1221.63 1568.97 1217.27 1564 Q1212.94 1559 1212.94 1550.25 Q1212.94 1541.47 1217.27 1536.5 Q1221.63 1531.54 1229.3 1531.54 Z" fill="#000000" fill-rule="nonzero" fill-opacity="1" /><path clip-path="url(#clip110)" d="M1278.82 1537.81 L1278.82 1518.52 L1284.68 1518.52 L1284.68 1568.04 L1278.82 1568.04 L1278.82 1562.7 Q1276.98 1565.88 1274.14 1567.44 Q1271.34 1568.97 1267.4 1568.97 Q1260.94 1568.97 1256.86 1563.81 Q1252.82 1558.65 1252.82 1550.25 Q1252.82 1541.85 1256.86 1536.69 Q1260.94 1531.54 1267.4 1531.54 Q1271.34 1531.54 1274.14 1533.1 Q1276.98 1534.62 1278.82 1537.81 M1258.87 1550.25 Q1258.87 1556.71 1261.51 1560.4 Q1264.18 1564.07 1268.83 1564.07 Q1273.48 1564.07 1276.15 1560.4 Q1278.82 1556.71 1278.82 1550.25 Q1278.82 1543.79 1276.15 1540.13 Q1273.48 1536.44 1268.83 1536.44 Q1264.18 1536.44 1261.51 1540.13 Q1258.87 1543.79 1258.87 1550.25 Z" fill="#000000" fill-rule="nonzero" fill-opacity="1" /><path clip-path="url(#clip110)" d="M1327.23 1548.76 L1327.23 1551.62 L1300.31 1551.62 Q1300.69 1557.67 1303.94 1560.85 Q1307.21 1564 1313.04 1564 Q1316.41 1564 1319.56 1563.17 Q1322.75 1562.35 1325.87 1560.69 L1325.87 1566.23 Q1322.71 1567.57 1319.4 1568.27 Q1316.09 1568.97 1312.69 1568.97 Q1304.16 1568.97 1299.16 1564 Q1294.2 1559.04 1294.2 1550.57 Q1294.2 1541.82 1298.91 1536.69 Q1303.65 1531.54 1311.67 1531.54 Q1318.86 1531.54 1323.03 1536.18 Q1327.23 1540.8 1327.23 1548.76 M1321.38 1547.04 Q1321.31 1542.23 1318.67 1539.37 Q1316.06 1536.5 1311.73 1536.5 Q1306.83 1536.5 1303.87 1539.27 Q1300.94 1542.04 1300.5 1547.07 L1321.38 1547.04 Z" fill="#000000" fill-rule="nonzero" fill-opacity="1" /><path clip-path="url(#clip110)" d="M1336.85 1518.52 L1342.7 1518.52 L1342.7 1568.04 L1336.85 1568.04 L1336.85 1518.52 Z" fill="#000000" fill-rule="nonzero" fill-opacity="1" /><path clip-path="url(#clip110)" d="M1389.75 1518.58 Q1385.48 1525.9 1383.41 1533.06 Q1381.34 1540.23 1381.34 1547.58 Q1381.34 1554.93 1383.41 1562.16 Q1385.51 1569.35 1389.75 1576.64 L1384.65 1576.64 Q1379.88 1569.16 1377.49 1561.93 Q1375.14 1554.71 1375.14 1547.58 Q1375.14 1540.48 1377.49 1533.29 Q1379.85 1526.09 1384.65 1518.58 L1389.75 1518.58 Z" fill="#000000" fill-rule="nonzero" fill-opacity="1" /><path clip-path="url(#clip110)" d="M1415.94 1571.35 Q1413.46 1577.72 1411.1 1579.66 Q1408.75 1581.6 1404.8 1581.6 L1400.12 1581.6 L1400.12 1576.7 L1403.56 1576.7 Q1405.98 1576.7 1407.31 1575.56 Q1408.65 1574.41 1410.27 1570.14 L1411.32 1567.47 L1396.91 1532.4 L1403.11 1532.4 L1414.25 1560.28 L1425.39 1532.4 L1431.6 1532.4 L1415.94 1571.35 Z" fill="#000000" fill-rule="nonzero" fill-opacity="1" /><path clip-path="url(#clip110)" d="M1460.34 1537.87 Q1459.35 1537.3 1458.18 1537.04 Q1457.03 1536.76 1455.63 1536.76 Q1450.66 1536.76 1447.99 1540 Q1445.35 1543.22 1445.35 1549.27 L1445.35 1568.04 L1439.46 1568.04 L1439.46 1532.4 L1445.35 1532.4 L1445.35 1537.93 Q1447.2 1534.69 1450.16 1533.13 Q1453.12 1531.54 1457.35 1531.54 Q1457.95 1531.54 1458.69 1531.63 Q1459.42 1531.7 1460.31 1531.85 L1460.34 1537.87 Z" fill="#000000" fill-rule="nonzero" fill-opacity="1" /><path clip-path="url(#clip110)" d="M1465.56 1518.58 L1470.65 1518.58 Q1475.43 1526.09 1477.78 1533.29 Q1480.17 1540.48 1480.17 1547.58 Q1480.17 1554.71 1477.78 1561.93 Q1475.43 1569.16 1470.65 1576.64 L1465.56 1576.64 Q1469.79 1569.35 1471.86 1562.16 Q1473.96 1554.93 1473.96 1547.58 Q1473.96 1540.23 1471.86 1533.06 Q1469.79 1525.9 1465.56 1518.58 Z" fill="#000000" fill-rule="nonzero" fill-opacity="1" /><polyline clip-path="url(#clip112)" style="stroke:#000000; stroke-linecap:round; stroke-linejoin:round; stroke-width:2; stroke-opacity:0.1; fill:none" points="249.449,1345.95 2352.76,1345.95 "/>
<polyline clip-path="url(#clip112)" style="stroke:#000000; stroke-linecap:round; stroke-linejoin:round; stroke-width:2; stroke-opacity:0.1; fill:none" points="249.449,926.028 2352.76,926.028 "/>
<polyline clip-path="url(#clip112)" style="stroke:#000000; stroke-linecap:round; stroke-linejoin:round; stroke-width:2; stroke-opacity:0.1; fill:none" points="249.449,506.107 2352.76,506.107 "/>
<polyline clip-path="url(#clip112)" style="stroke:#000000; stroke-linecap:round; stroke-linejoin:round; stroke-width:2; stroke-opacity:0.1; fill:none" points="249.449,86.1857 2352.76,86.1857 "/>
<polyline clip-path="url(#clip110)" style="stroke:#000000; stroke-linecap:round; stroke-linejoin:round; stroke-width:4; stroke-opacity:1; fill:none" points="249.449,1423.18 249.449,47.2441 "/>
<polyline clip-path="url(#clip110)" style="stroke:#000000; stroke-linecap:round; stroke-linejoin:round; stroke-width:4; stroke-opacity:1; fill:none" points="249.449,1345.95 268.347,1345.95 "/>
<polyline clip-path="url(#clip110)" style="stroke:#000000; stroke-linecap:round; stroke-linejoin:round; stroke-width:4; stroke-opacity:1; fill:none" points="249.449,926.028 268.347,926.028 "/>
<polyline clip-path="url(#clip110)" style="stroke:#000000; stroke-linecap:round; stroke-linejoin:round; stroke-width:4; stroke-opacity:1; fill:none" points="249.449,506.107 268.347,506.107 "/>
<polyline clip-path="url(#clip110)" style="stroke:#000000; stroke-linecap:round; stroke-linejoin:round; stroke-width:4; stroke-opacity:1; fill:none" points="249.449,86.1857 268.347,86.1857 "/>
<path clip-path="url(#clip110)" d="M115.834 1328.67 L138.056 1328.67 L138.056 1330.66 L125.51 1363.23 L120.626 1363.23 L132.431 1332.6 L115.834 1332.6 L115.834 1328.67 Z" fill="#000000" fill-rule="nonzero" fill-opacity="1" /><path clip-path="url(#clip110)" d="M147.177 1357.35 L152.061 1357.35 L152.061 1363.23 L147.177 1363.23 L147.177 1357.35 Z" fill="#000000" fill-rule="nonzero" fill-opacity="1" /><path clip-path="url(#clip110)" d="M162.385 1362.51 L162.385 1358.25 Q164.144 1359.09 165.95 1359.53 Q167.755 1359.97 169.491 1359.97 Q174.121 1359.97 176.551 1356.86 Q179.005 1353.74 179.352 1347.4 Q178.01 1349.39 175.95 1350.45 Q173.889 1351.52 171.389 1351.52 Q166.204 1351.52 163.172 1348.39 Q160.163 1345.24 160.163 1339.8 Q160.163 1334.48 163.311 1331.26 Q166.459 1328.04 171.69 1328.04 Q177.686 1328.04 180.834 1332.65 Q184.005 1337.23 184.005 1345.98 Q184.005 1354.16 180.116 1359.04 Q176.251 1363.9 169.7 1363.9 Q167.94 1363.9 166.135 1363.55 Q164.329 1363.21 162.385 1362.51 M171.69 1347.86 Q174.839 1347.86 176.667 1345.71 Q178.519 1343.55 178.519 1339.8 Q178.519 1336.08 176.667 1333.92 Q174.839 1331.75 171.69 1331.75 Q168.542 1331.75 166.69 1333.92 Q164.862 1336.08 164.862 1339.8 Q164.862 1343.55 166.69 1345.71 Q168.542 1347.86 171.69 1347.86 Z" fill="#000000" fill-rule="nonzero" fill-opacity="1" /><path clip-path="url(#clip110)" d="M191.227 1328.67 L213.449 1328.67 L213.449 1330.66 L200.903 1363.23 L196.019 1363.23 L207.824 1332.6 L191.227 1332.6 L191.227 1328.67 Z" fill="#000000" fill-rule="nonzero" fill-opacity="1" /><path clip-path="url(#clip110)" d="M115.024 908.748 L137.246 908.748 L137.246 910.739 L124.7 943.308 L119.816 943.308 L131.621 912.683 L115.024 912.683 L115.024 908.748 Z" fill="#000000" fill-rule="nonzero" fill-opacity="1" /><path clip-path="url(#clip110)" d="M146.366 937.428 L151.251 937.428 L151.251 943.308 L146.366 943.308 L146.366 937.428 Z" fill="#000000" fill-rule="nonzero" fill-opacity="1" /><path clip-path="url(#clip110)" d="M161.575 942.59 L161.575 938.331 Q163.334 939.164 165.14 939.604 Q166.945 940.044 168.681 940.044 Q173.311 940.044 175.741 936.942 Q178.195 933.817 178.542 927.475 Q177.2 929.465 175.139 930.53 Q173.079 931.595 170.579 931.595 Q165.394 931.595 162.362 928.47 Q159.353 925.322 159.353 919.882 Q159.353 914.558 162.501 911.341 Q165.649 908.123 170.88 908.123 Q176.876 908.123 180.024 912.729 Q183.195 917.313 183.195 926.063 Q183.195 934.234 179.306 939.118 Q175.44 943.979 168.889 943.979 Q167.13 943.979 165.325 943.632 Q163.519 943.285 161.575 942.59 M170.88 927.938 Q174.028 927.938 175.857 925.785 Q177.709 923.632 177.709 919.882 Q177.709 916.155 175.857 914.003 Q174.028 911.827 170.88 911.827 Q167.732 911.827 165.88 914.003 Q164.052 916.155 164.052 919.882 Q164.052 923.632 165.88 925.785 Q167.732 927.938 170.88 927.938 Z" fill="#000000" fill-rule="nonzero" fill-opacity="1" /><path clip-path="url(#clip110)" d="M201.598 926.896 Q198.264 926.896 196.343 928.678 Q194.445 930.461 194.445 933.586 Q194.445 936.711 196.343 938.493 Q198.264 940.276 201.598 940.276 Q204.931 940.276 206.852 938.493 Q208.774 936.688 208.774 933.586 Q208.774 930.461 206.852 928.678 Q204.954 926.896 201.598 926.896 M196.922 924.905 Q193.913 924.165 192.223 922.104 Q190.556 920.044 190.556 917.081 Q190.556 912.938 193.496 910.53 Q196.459 908.123 201.598 908.123 Q206.76 908.123 209.699 910.53 Q212.639 912.938 212.639 917.081 Q212.639 920.044 210.949 922.104 Q209.283 924.165 206.297 924.905 Q209.676 925.692 211.551 927.984 Q213.449 930.276 213.449 933.586 Q213.449 938.609 210.371 941.294 Q207.315 943.979 201.598 943.979 Q195.88 943.979 192.801 941.294 Q189.746 938.609 189.746 933.586 Q189.746 930.276 191.644 927.984 Q193.542 925.692 196.922 924.905 M195.209 917.521 Q195.209 920.206 196.875 921.711 Q198.565 923.215 201.598 923.215 Q204.607 923.215 206.297 921.711 Q208.01 920.206 208.01 917.521 Q208.01 914.836 206.297 913.331 Q204.607 911.827 201.598 911.827 Q198.565 911.827 196.875 913.331 Q195.209 914.836 195.209 917.521 Z" fill="#000000" fill-rule="nonzero" fill-opacity="1" /><path clip-path="url(#clip110)" d="M115.117 488.827 L137.339 488.827 L137.339 490.818 L124.793 523.387 L119.908 523.387 L131.714 492.762 L115.117 492.762 L115.117 488.827 Z" fill="#000000" fill-rule="nonzero" fill-opacity="1" /><path clip-path="url(#clip110)" d="M146.459 517.507 L151.343 517.507 L151.343 523.387 L146.459 523.387 L146.459 517.507 Z" fill="#000000" fill-rule="nonzero" fill-opacity="1" /><path clip-path="url(#clip110)" d="M161.667 522.669 L161.667 518.41 Q163.427 519.243 165.232 519.683 Q167.038 520.123 168.774 520.123 Q173.403 520.123 175.834 517.021 Q178.288 513.896 178.635 507.554 Q177.292 509.544 175.232 510.609 Q173.172 511.674 170.672 511.674 Q165.487 511.674 162.454 508.549 Q159.445 505.401 159.445 499.961 Q159.445 494.637 162.593 491.419 Q165.741 488.202 170.973 488.202 Q176.968 488.202 180.116 492.808 Q183.288 497.392 183.288 506.142 Q183.288 514.313 179.399 519.197 Q175.533 524.058 168.982 524.058 Q167.223 524.058 165.417 523.711 Q163.612 523.364 161.667 522.669 M170.973 508.017 Q174.121 508.017 175.95 505.864 Q177.801 503.711 177.801 499.961 Q177.801 496.234 175.95 494.081 Q174.121 491.905 170.973 491.905 Q167.825 491.905 165.973 494.081 Q164.144 496.234 164.144 499.961 Q164.144 503.711 165.973 505.864 Q167.825 508.017 170.973 508.017 Z" fill="#000000" fill-rule="nonzero" fill-opacity="1" /><path clip-path="url(#clip110)" d="M191.829 522.669 L191.829 518.41 Q193.588 519.243 195.394 519.683 Q197.2 520.123 198.936 520.123 Q203.565 520.123 205.996 517.021 Q208.449 513.896 208.797 507.554 Q207.454 509.544 205.394 510.609 Q203.334 511.674 200.834 511.674 Q195.649 511.674 192.616 508.549 Q189.607 505.401 189.607 499.961 Q189.607 494.637 192.755 491.419 Q195.903 488.202 201.135 488.202 Q207.13 488.202 210.278 492.808 Q213.449 497.392 213.449 506.142 Q213.449 514.313 209.561 519.197 Q205.695 524.058 199.144 524.058 Q197.385 524.058 195.579 523.711 Q193.774 523.364 191.829 522.669 M201.135 508.017 Q204.283 508.017 206.112 505.864 Q207.963 503.711 207.963 499.961 Q207.963 496.234 206.112 494.081 Q204.283 491.905 201.135 491.905 Q197.987 491.905 196.135 494.081 Q194.306 496.234 194.306 499.961 Q194.306 503.711 196.135 505.864 Q197.987 508.017 201.135 508.017 Z" fill="#000000" fill-rule="nonzero" fill-opacity="1" /><path clip-path="url(#clip110)" d="M126.112 87.0537 Q122.779 87.0537 120.857 88.8361 Q118.959 90.6185 118.959 93.7435 Q118.959 96.8685 120.857 98.6509 Q122.779 100.433 126.112 100.433 Q129.445 100.433 131.367 98.6509 Q133.288 96.8453 133.288 93.7435 Q133.288 90.6185 131.367 88.8361 Q129.468 87.0537 126.112 87.0537 M121.436 85.063 Q118.427 84.3223 116.737 82.2621 Q115.07 80.2019 115.07 77.239 Q115.07 73.0955 118.01 70.6881 Q120.973 68.2807 126.112 68.2807 Q131.274 68.2807 134.214 70.6881 Q137.154 73.0955 137.154 77.239 Q137.154 80.2019 135.464 82.2621 Q133.797 84.3223 130.811 85.063 Q134.191 85.85 136.066 88.1417 Q137.964 90.4333 137.964 93.7435 Q137.964 98.7666 134.885 101.452 Q131.83 104.137 126.112 104.137 Q120.394 104.137 117.316 101.452 Q114.26 98.7666 114.26 93.7435 Q114.26 90.4333 116.158 88.1417 Q118.056 85.85 121.436 85.063 M119.723 77.6788 Q119.723 80.3639 121.39 81.8686 Q123.08 83.3732 126.112 83.3732 Q129.121 83.3732 130.811 81.8686 Q132.524 80.3639 132.524 77.6788 Q132.524 74.9936 130.811 73.489 Q129.121 71.9844 126.112 71.9844 Q123.08 71.9844 121.39 73.489 Q119.723 74.9936 119.723 77.6788 Z" fill="#000000" fill-rule="nonzero" fill-opacity="1" /><path clip-path="url(#clip110)" d="M146.274 97.5861 L151.158 97.5861 L151.158 103.466 L146.274 103.466 L146.274 97.5861 Z" fill="#000000" fill-rule="nonzero" fill-opacity="1" /><path clip-path="url(#clip110)" d="M171.343 71.9844 Q167.732 71.9844 165.903 75.5492 Q164.098 79.0908 164.098 86.2204 Q164.098 93.3268 165.903 96.8916 Q167.732 100.433 171.343 100.433 Q174.977 100.433 176.783 96.8916 Q178.612 93.3268 178.612 86.2204 Q178.612 79.0908 176.783 75.5492 Q174.977 71.9844 171.343 71.9844 M171.343 68.2807 Q177.153 68.2807 180.209 72.8871 Q183.288 77.4704 183.288 86.2204 Q183.288 94.9472 180.209 99.5537 Q177.153 104.137 171.343 104.137 Q165.533 104.137 162.454 99.5537 Q159.399 94.9472 159.399 86.2204 Q159.399 77.4704 162.454 72.8871 Q165.533 68.2807 171.343 68.2807 Z" fill="#000000" fill-rule="nonzero" fill-opacity="1" /><path clip-path="url(#clip110)" d="M201.505 71.9844 Q197.894 71.9844 196.065 75.5492 Q194.26 79.0908 194.26 86.2204 Q194.26 93.3268 196.065 96.8916 Q197.894 100.433 201.505 100.433 Q205.139 100.433 206.945 96.8916 Q208.774 93.3268 208.774 86.2204 Q208.774 79.0908 206.945 75.5492 Q205.139 71.9844 201.505 71.9844 M201.505 68.2807 Q207.315 68.2807 210.371 72.8871 Q213.449 77.4704 213.449 86.2204 Q213.449 94.9472 210.371 99.5537 Q207.315 104.137 201.505 104.137 Q195.695 104.137 192.616 99.5537 Q189.561 94.9472 189.561 86.2204 Q189.561 77.4704 192.616 72.8871 Q195.695 68.2807 201.505 68.2807 Z" fill="#000000" fill-rule="nonzero" fill-opacity="1" /><path clip-path="url(#clip110)" d="M58.657 768.361 L77.5631 768.361 L77.5631 774.25 L28.3562 774.25 L28.3562 768.361 L33.7671 768.361 Q30.5842 766.515 29.0564 763.714 Q27.4968 760.882 27.4968 756.967 Q27.4968 750.474 32.6531 746.432 Q37.8093 742.357 46.212 742.357 Q54.6147 742.357 59.771 746.432 Q64.9272 750.474 64.9272 756.967 Q64.9272 760.882 63.3994 763.714 Q61.8398 766.515 58.657 768.361 M46.212 748.437 Q39.7508 748.437 36.0905 751.11 Q32.3984 753.752 32.3984 758.399 Q32.3984 763.046 36.0905 765.72 Q39.7508 768.361 46.212 768.361 Q52.6732 768.361 56.3653 765.72 Q60.0256 763.046 60.0256 758.399 Q60.0256 753.752 56.3653 751.11 Q52.6732 748.437 46.212 748.437 Z" fill="#000000" fill-rule="nonzero" fill-opacity="1" /><path clip-path="url(#clip110)" d="M16.4842 732.395 L16.4842 725.966 L35.9632 725.966 L35.9632 702.604 L16.4842 702.604 L16.4842 696.174 L64.0042 696.174 L64.0042 702.604 L41.3741 702.604 L41.3741 725.966 L64.0042 725.966 L64.0042 732.395 L16.4842 732.395 Z" fill="#000000" fill-rule="nonzero" fill-opacity="1" /><polyline clip-path="url(#clip112)" style="stroke:#009af9; stroke-linecap:round; stroke-linejoin:round; stroke-width:4; stroke-opacity:1; fill:none" points="308.977,86.1857 308.978,1384.24 308.979,1384.24 308.98,1384.23 308.984,1384.22 308.991,1384.2 309.005,1384.15 309.033,1384.07 309.088,1383.89 309.2,1383.55 309.422,1382.85 309.867,1381.47 310.312,1380.09 310.758,1378.71 311.648,1375.97 312.538,1373.23 313.429,1370.51 315.209,1365.11 318.771,1354.47 322.332,1344.04 325.893,1333.81 329.455,1323.79 336.577,1304.32 343.7,1285.61 350.822,1267.63 360.038,1245.39 369.253,1224.26 378.469,1204.18 387.684,1185.09 396.9,1166.96 406.115,1149.72 424.546,1117.77 440.97,1091.91 455.752,1070.55 477.026,1042.7 498.3,1017.93 519.574,995.885 540.848,976.268 562.121,958.81 583.395,943.272 604.669,929.441 647.217,906.169 689.764,887.726 728.057,874.421 766.35,863.623 804.643,854.861 842.936,847.749 881.229,841.977 919.522,837.291 957.815,833.488 996.108,830.401 1034.4,827.894 1072.69,825.86 1110.99,824.208 1149.28,822.867 1187.57,821.779 1225.87,820.895 1264.16,820.177 1302.45,819.595 1340.74,819.122 1379.04,818.738 1455.62,818.174 1532.21,817.802 1608.79,817.558 1685.38,817.396 1761.97,817.289 1838.55,817.219 1915.14,817.172 1991.72,817.141 2068.31,817.121 2144.89,817.108 2221.48,817.099 2293.23,817.093 "/>
<path clip-path="url(#clip110)" d="M1666.41 196.789 L2282.65 196.789 L2282.65 93.1086 L1666.41 93.1086  Z" fill="#ffffff" fill-rule="evenodd" fill-opacity="1"/>
<polyline clip-path="url(#clip110)" style="stroke:#000000; stroke-linecap:round; stroke-linejoin:round; stroke-width:4; stroke-opacity:1; fill:none" points="1666.41,196.789 2282.65,196.789 2282.65,93.1086 1666.41,93.1086 1666.41,196.789 "/>
<polyline clip-path="url(#clip110)" style="stroke:#009af9; stroke-linecap:round; stroke-linejoin:round; stroke-width:4; stroke-opacity:1; fill:none" points="1689.78,144.949 1830,144.949 "/>
<path clip-path="url(#clip110)" d="M1865.27 139.289 Q1861.85 139.289 1859.86 141.974 Q1857.87 144.636 1857.87 149.289 Q1857.87 153.942 1859.83 156.627 Q1861.82 159.289 1865.27 159.289 Q1868.68 159.289 1870.67 156.604 Q1872.66 153.918 1872.66 149.289 Q1872.66 144.682 1870.67 141.997 Q1868.68 139.289 1865.27 139.289 M1865.27 135.678 Q1870.83 135.678 1874 139.289 Q1877.17 142.9 1877.17 149.289 Q1877.17 155.655 1874 159.289 Q1870.83 162.9 1865.27 162.9 Q1859.69 162.9 1856.52 159.289 Q1853.38 155.655 1853.38 149.289 Q1853.38 142.9 1856.52 139.289 Q1859.69 135.678 1865.27 135.678 Z" fill="#000000" fill-rule="nonzero" fill-opacity="1" /><path clip-path="url(#clip110)" d="M1902.89 137.298 L1902.89 141.28 Q1901.08 140.284 1899.25 139.798 Q1897.45 139.289 1895.6 139.289 Q1891.45 139.289 1889.16 141.928 Q1886.87 144.544 1886.87 149.289 Q1886.87 154.034 1889.16 156.673 Q1891.45 159.289 1895.6 159.289 Q1897.45 159.289 1899.25 158.803 Q1901.08 158.293 1902.89 157.298 L1902.89 161.233 Q1901.11 162.067 1899.18 162.483 Q1897.29 162.9 1895.13 162.9 Q1889.28 162.9 1885.83 159.219 Q1882.38 155.539 1882.38 149.289 Q1882.38 142.946 1885.85 139.312 Q1889.35 135.678 1895.41 135.678 Q1897.38 135.678 1899.25 136.095 Q1901.13 136.488 1902.89 137.298 Z" fill="#000000" fill-rule="nonzero" fill-opacity="1" /><path clip-path="url(#clip110)" d="M1932.47 148.201 L1932.47 150.284 L1912.89 150.284 Q1913.17 154.682 1915.53 156.997 Q1917.91 159.289 1922.15 159.289 Q1924.6 159.289 1926.89 158.687 Q1929.21 158.085 1931.48 156.881 L1931.48 160.909 Q1929.18 161.881 1926.78 162.391 Q1924.37 162.9 1921.89 162.9 Q1915.69 162.9 1912.06 159.289 Q1908.44 155.678 1908.44 149.52 Q1908.44 143.155 1911.87 139.428 Q1915.32 135.678 1921.15 135.678 Q1926.38 135.678 1929.42 139.057 Q1932.47 142.414 1932.47 148.201 M1928.21 146.951 Q1928.17 143.456 1926.24 141.372 Q1924.35 139.289 1921.2 139.289 Q1917.63 139.289 1915.48 141.303 Q1913.35 143.317 1913.03 146.974 L1928.21 146.951 Z" fill="#000000" fill-rule="nonzero" fill-opacity="1" /><path clip-path="url(#clip110)" d="M1951.24 149.196 Q1946.08 149.196 1944.09 150.377 Q1942.1 151.557 1942.1 154.405 Q1942.1 156.673 1943.58 158.016 Q1945.09 159.335 1947.66 159.335 Q1951.2 159.335 1953.33 156.835 Q1955.48 154.312 1955.48 150.145 L1955.48 149.196 L1951.24 149.196 M1959.74 147.437 L1959.74 162.229 L1955.48 162.229 L1955.48 158.293 Q1954.02 160.655 1951.85 161.789 Q1949.67 162.9 1946.52 162.9 Q1942.54 162.9 1940.18 160.678 Q1937.84 158.432 1937.84 154.682 Q1937.84 150.307 1940.76 148.085 Q1943.7 145.863 1949.51 145.863 L1955.48 145.863 L1955.48 145.446 Q1955.48 142.507 1953.54 140.909 Q1951.62 139.289 1948.12 139.289 Q1945.9 139.289 1943.79 139.821 Q1941.68 140.354 1939.74 141.419 L1939.74 137.483 Q1942.08 136.581 1944.28 136.141 Q1946.48 135.678 1948.56 135.678 Q1954.18 135.678 1956.96 138.594 Q1959.74 141.511 1959.74 147.437 Z" fill="#000000" fill-rule="nonzero" fill-opacity="1" /><path clip-path="url(#clip110)" d="M1990.06 146.581 L1990.06 162.229 L1985.8 162.229 L1985.8 146.719 Q1985.8 143.039 1984.37 141.21 Q1982.93 139.382 1980.06 139.382 Q1976.62 139.382 1974.62 141.581 Q1972.63 143.78 1972.63 147.576 L1972.63 162.229 L1968.35 162.229 L1968.35 136.303 L1972.63 136.303 L1972.63 140.331 Q1974.16 137.993 1976.22 136.835 Q1978.3 135.678 1981.01 135.678 Q1985.48 135.678 1987.77 138.456 Q1990.06 141.21 1990.06 146.581 Z" fill="#000000" fill-rule="nonzero" fill-opacity="1" /><path clip-path="url(#clip110)" d="M1999.16 156.349 L2004.05 156.349 L2004.05 162.229 L1999.16 162.229 L1999.16 156.349 Z" fill="#000000" fill-rule="nonzero" fill-opacity="1" /><path clip-path="url(#clip110)" d="M2017.75 158.34 L2017.75 172.09 L2013.47 172.09 L2013.47 136.303 L2017.75 136.303 L2017.75 140.238 Q2019.09 137.923 2021.13 136.812 Q2023.19 135.678 2026.04 135.678 Q2030.76 135.678 2033.7 139.428 Q2036.66 143.178 2036.66 149.289 Q2036.66 155.4 2033.7 159.15 Q2030.76 162.9 2026.04 162.9 Q2023.19 162.9 2021.13 161.789 Q2019.09 160.655 2017.75 158.34 M2032.24 149.289 Q2032.24 144.59 2030.3 141.928 Q2028.37 139.243 2024.99 139.243 Q2021.61 139.243 2019.67 141.928 Q2017.75 144.59 2017.75 149.289 Q2017.75 153.988 2019.67 156.673 Q2021.61 159.335 2024.99 159.335 Q2028.37 159.335 2030.3 156.673 Q2032.24 153.988 2032.24 149.289 Z" fill="#000000" fill-rule="nonzero" fill-opacity="1" /><path clip-path="url(#clip110)" d="M2043.91 127.669 L2048.58 127.669 L2048.58 141.835 L2065.57 141.835 L2065.57 127.669 L2070.25 127.669 L2070.25 162.229 L2065.57 162.229 L2065.57 145.77 L2048.58 145.77 L2048.58 162.229 L2043.91 162.229 L2043.91 127.669 Z" fill="#000000" fill-rule="nonzero" fill-opacity="1" /><path clip-path="url(#clip110)" d="M2089.6 126.257 Q2086.5 131.581 2084.99 136.789 Q2083.49 141.997 2083.49 147.344 Q2083.49 152.692 2084.99 157.946 Q2086.52 163.178 2089.6 168.479 L2085.9 168.479 Q2082.42 163.039 2080.69 157.784 Q2078.98 152.53 2078.98 147.344 Q2078.98 142.182 2080.69 136.951 Q2082.4 131.72 2085.9 126.257 L2089.6 126.257 Z" fill="#000000" fill-rule="nonzero" fill-opacity="1" /><path clip-path="url(#clip110)" d="M2116.52 137.298 L2116.52 141.28 Q2114.72 140.284 2112.89 139.798 Q2111.08 139.289 2109.23 139.289 Q2105.09 139.289 2102.79 141.928 Q2100.5 144.544 2100.5 149.289 Q2100.5 154.034 2102.79 156.673 Q2105.09 159.289 2109.23 159.289 Q2111.08 159.289 2112.89 158.803 Q2114.72 158.293 2116.52 157.298 L2116.52 161.233 Q2114.74 162.067 2112.82 162.483 Q2110.92 162.9 2108.77 162.9 Q2102.91 162.9 2099.46 159.219 Q2096.01 155.539 2096.01 149.289 Q2096.01 142.946 2099.48 139.312 Q2102.98 135.678 2109.04 135.678 Q2111.01 135.678 2112.89 136.095 Q2114.76 136.488 2116.52 137.298 Z" fill="#000000" fill-rule="nonzero" fill-opacity="1" /><path clip-path="url(#clip110)" d="M2146.1 148.201 L2146.1 150.284 L2126.52 150.284 Q2126.8 154.682 2129.16 156.997 Q2131.54 159.289 2135.78 159.289 Q2138.23 159.289 2140.53 158.687 Q2142.84 158.085 2145.11 156.881 L2145.11 160.909 Q2142.82 161.881 2140.41 162.391 Q2138 162.9 2135.53 162.9 Q2129.32 162.9 2125.69 159.289 Q2122.08 155.678 2122.08 149.52 Q2122.08 143.155 2125.5 139.428 Q2128.95 135.678 2134.79 135.678 Q2140.02 135.678 2143.05 139.057 Q2146.1 142.414 2146.1 148.201 M2141.85 146.951 Q2141.8 143.456 2139.88 141.372 Q2137.98 139.289 2134.83 139.289 Q2131.27 139.289 2129.11 141.303 Q2126.98 143.317 2126.66 146.974 L2141.85 146.951 Z" fill="#000000" fill-rule="nonzero" fill-opacity="1" /><path clip-path="url(#clip110)" d="M2153.1 126.21 L2157.35 126.21 L2157.35 162.229 L2153.1 162.229 L2153.1 126.21 Z" fill="#000000" fill-rule="nonzero" fill-opacity="1" /><path clip-path="url(#clip110)" d="M2166.27 126.21 L2170.53 126.21 L2170.53 162.229 L2166.27 162.229 L2166.27 126.21 Z" fill="#000000" fill-rule="nonzero" fill-opacity="1" /><path clip-path="url(#clip110)" d="M2179.99 140.701 L2209.67 140.701 L2209.67 144.59 L2179.99 144.59 L2179.99 140.701 M2179.99 150.145 L2209.67 150.145 L2209.67 154.081 L2179.99 154.081 L2179.99 150.145 Z" fill="#000000" fill-rule="nonzero" fill-opacity="1" /><path clip-path="url(#clip110)" d="M2220.57 158.293 L2228.21 158.293 L2228.21 131.928 L2219.9 133.595 L2219.9 129.335 L2228.16 127.669 L2232.84 127.669 L2232.84 158.293 L2240.48 158.293 L2240.48 162.229 L2220.57 162.229 L2220.57 158.293 Z" fill="#000000" fill-rule="nonzero" fill-opacity="1" /><path clip-path="url(#clip110)" d="M2248.65 126.257 L2252.35 126.257 Q2255.83 131.72 2257.54 136.951 Q2259.28 142.182 2259.28 147.344 Q2259.28 152.53 2257.54 157.784 Q2255.83 163.039 2252.35 168.479 L2248.65 168.479 Q2251.73 163.178 2253.23 157.946 Q2254.76 152.692 2254.76 147.344 Q2254.76 141.997 2253.23 136.789 Q2251.73 131.581 2248.65 126.257 Z" fill="#000000" fill-rule="nonzero" fill-opacity="1" /></svg>
