<?xml version="1.0" encoding="utf-8"?>
<svg xmlns="http://www.w3.org/2000/svg" xmlns:xlink="http://www.w3.org/1999/xlink" width="600" height="400" viewBox="0 0 2400 1600">
<defs>
  <clipPath id="clip720">
    <rect x="0" y="0" width="2400" height="1600"/>
  </clipPath>
</defs>
<path clip-path="url(#clip720)" d="M0 1600 L2400 1600 L2400 0 L0 0  Z" fill="#ffffff" fill-rule="evenodd" fill-opacity="1"/>
<defs>
  <clipPath id="clip721">
    <rect x="480" y="0" width="1681" height="1600"/>
  </clipPath>
</defs>
<path clip-path="url(#clip720)" d="M174.126 1423.18 L2352.76 1423.18 L2352.76 47.2441 L174.126 47.2441  Z" fill="#ffffff" fill-rule="evenodd" fill-opacity="1"/>
<defs>
  <clipPath id="clip722">
    <rect x="174" y="47" width="2180" height="1377"/>
  </clipPath>
</defs>
<polyline clip-path="url(#clip722)" style="stroke:#000000; stroke-linecap:round; stroke-linejoin:round; stroke-width:2; stroke-opacity:0.1; fill:none" points="235.785,1423.18 235.785,47.2441 "/>
<polyline clip-path="url(#clip722)" style="stroke:#000000; stroke-linecap:round; stroke-linejoin:round; stroke-width:2; stroke-opacity:0.1; fill:none" points="749.613,1423.18 749.613,47.2441 "/>
<polyline clip-path="url(#clip722)" style="stroke:#000000; stroke-linecap:round; stroke-linejoin:round; stroke-width:2; stroke-opacity:0.1; fill:none" points="1263.44,1423.18 1263.44,47.2441 "/>
<polyline clip-path="url(#clip722)" style="stroke:#000000; stroke-linecap:round; stroke-linejoin:round; stroke-width:2; stroke-opacity:0.1; fill:none" points="1777.27,1423.18 1777.27,47.2441 "/>
<polyline clip-path="url(#clip722)" style="stroke:#000000; stroke-linecap:round; stroke-linejoin:round; stroke-width:2; stroke-opacity:0.1; fill:none" points="2291.1,1423.18 2291.1,47.2441 "/>
<polyline clip-path="url(#clip720)" style="stroke:#000000; stroke-linecap:round; stroke-linejoin:round; stroke-width:4; stroke-opacity:1; fill:none" points="174.126,1423.18 2352.76,1423.18 "/>
<polyline clip-path="url(#clip720)" style="stroke:#000000; stroke-linecap:round; stroke-linejoin:round; stroke-width:4; stroke-opacity:1; fill:none" points="235.785,1423.18 235.785,1404.28 "/>
<polyline clip-path="url(#clip720)" style="stroke:#000000; stroke-linecap:round; stroke-linejoin:round; stroke-width:4; stroke-opacity:1; fill:none" points="749.613,1423.18 749.613,1404.28 "/>
<polyline clip-path="url(#clip720)" style="stroke:#000000; stroke-linecap:round; stroke-linejoin:round; stroke-width:4; stroke-opacity:1; fill:none" points="1263.44,1423.18 1263.44,1404.28 "/>
<polyline clip-path="url(#clip720)" style="stroke:#000000; stroke-linecap:round; stroke-linejoin:round; stroke-width:4; stroke-opacity:1; fill:none" points="1777.27,1423.18 1777.27,1404.28 "/>
<polyline clip-path="url(#clip720)" style="stroke:#000000; stroke-linecap:round; stroke-linejoin:round; stroke-width:4; stroke-opacity:1; fill:none" points="2291.1,1423.18 2291.1,1404.28 "/>
<path clip-path="url(#clip720)" d="M235.785 1454.1 Q232.174 1454.1 230.345 1457.66 Q228.54 1461.2 228.54 1468.33 Q228.54 1475.44 230.345 1479.01 Q232.174 1482.55 235.785 1482.55 Q239.419 1482.55 241.225 1479.01 Q243.054 1475.44 243.054 1468.33 Q243.054 1461.2 241.225 1457.66 Q239.419 1454.1 235.785 1454.1 M235.785 1450.39 Q241.595 1450.39 244.651 1455 Q247.729 1459.58 247.729 1468.33 Q247.729 1477.06 244.651 1481.67 Q241.595 1486.25 235.785 1486.25 Q229.975 1486.25 226.896 1481.67 Q223.841 1477.06 223.841 1468.33 Q223.841 1459.58 226.896 1455 Q229.975 1450.39 235.785 1450.39 Z" fill="#000000" fill-rule="nonzero" fill-opacity="1" /><path clip-path="url(#clip720)" d="M724.312 1451.02 L742.669 1451.02 L742.669 1454.96 L728.595 1454.96 L728.595 1463.43 Q729.613 1463.08 730.632 1462.92 Q731.65 1462.73 732.669 1462.73 Q738.456 1462.73 741.835 1465.9 Q745.215 1469.08 745.215 1474.49 Q745.215 1480.07 741.743 1483.17 Q738.27 1486.25 731.951 1486.25 Q729.775 1486.25 727.507 1485.88 Q725.261 1485.51 722.854 1484.77 L722.854 1480.07 Q724.937 1481.2 727.159 1481.76 Q729.382 1482.32 731.858 1482.32 Q735.863 1482.32 738.201 1480.21 Q740.539 1478.1 740.539 1474.49 Q740.539 1470.88 738.201 1468.77 Q735.863 1466.67 731.858 1466.67 Q729.983 1466.67 728.108 1467.08 Q726.257 1467.5 724.312 1468.38 L724.312 1451.02 Z" fill="#000000" fill-rule="nonzero" fill-opacity="1" /><path clip-path="url(#clip720)" d="M764.428 1454.1 Q760.817 1454.1 758.988 1457.66 Q757.182 1461.2 757.182 1468.33 Q757.182 1475.44 758.988 1479.01 Q760.817 1482.55 764.428 1482.55 Q768.062 1482.55 769.867 1479.01 Q771.696 1475.44 771.696 1468.33 Q771.696 1461.2 769.867 1457.66 Q768.062 1454.1 764.428 1454.1 M764.428 1450.39 Q770.238 1450.39 773.293 1455 Q776.372 1459.58 776.372 1468.33 Q776.372 1477.06 773.293 1481.67 Q770.238 1486.25 764.428 1486.25 Q758.618 1486.25 755.539 1481.67 Q752.483 1477.06 752.483 1468.33 Q752.483 1459.58 755.539 1455 Q758.618 1450.39 764.428 1450.39 Z" fill="#000000" fill-rule="nonzero" fill-opacity="1" /><path clip-path="url(#clip720)" d="M1223.05 1481.64 L1230.69 1481.64 L1230.69 1455.28 L1222.38 1456.95 L1222.38 1452.69 L1230.64 1451.02 L1235.32 1451.02 L1235.32 1481.64 L1242.95 1481.64 L1242.95 1485.58 L1223.05 1485.58 L1223.05 1481.64 Z" fill="#000000" fill-rule="nonzero" fill-opacity="1" /><path clip-path="url(#clip720)" d="M1262.4 1454.1 Q1258.79 1454.1 1256.96 1457.66 Q1255.15 1461.2 1255.15 1468.33 Q1255.15 1475.44 1256.96 1479.01 Q1258.79 1482.55 1262.4 1482.55 Q1266.03 1482.55 1267.84 1479.01 Q1269.67 1475.44 1269.67 1468.33 Q1269.67 1461.2 1267.84 1457.66 Q1266.03 1454.1 1262.4 1454.1 M1262.4 1450.39 Q1268.21 1450.39 1271.26 1455 Q1274.34 1459.58 1274.34 1468.33 Q1274.34 1477.06 1271.26 1481.67 Q1268.21 1486.25 1262.4 1486.25 Q1256.59 1486.25 1253.51 1481.67 Q1250.45 1477.06 1250.45 1468.33 Q1250.45 1459.58 1253.51 1455 Q1256.59 1450.39 1262.4 1450.39 Z" fill="#000000" fill-rule="nonzero" fill-opacity="1" /><path clip-path="url(#clip720)" d="M1292.56 1454.1 Q1288.95 1454.1 1287.12 1457.66 Q1285.32 1461.2 1285.32 1468.33 Q1285.32 1475.44 1287.12 1479.01 Q1288.95 1482.55 1292.56 1482.55 Q1296.2 1482.55 1298 1479.01 Q1299.83 1475.44 1299.83 1468.33 Q1299.83 1461.2 1298 1457.66 Q1296.2 1454.1 1292.56 1454.1 M1292.56 1450.39 Q1298.37 1450.39 1301.43 1455 Q1304.51 1459.58 1304.51 1468.33 Q1304.51 1477.06 1301.43 1481.67 Q1298.37 1486.25 1292.56 1486.25 Q1286.75 1486.25 1283.67 1481.67 Q1280.62 1477.06 1280.62 1468.33 Q1280.62 1459.58 1283.67 1455 Q1286.75 1450.39 1292.56 1450.39 Z" fill="#000000" fill-rule="nonzero" fill-opacity="1" /><path clip-path="url(#clip720)" d="M1736.88 1481.64 L1744.51 1481.64 L1744.51 1455.28 L1736.2 1456.95 L1736.2 1452.69 L1744.47 1451.02 L1749.14 1451.02 L1749.14 1481.64 L1756.78 1481.64 L1756.78 1485.58 L1736.88 1485.58 L1736.88 1481.64 Z" fill="#000000" fill-rule="nonzero" fill-opacity="1" /><path clip-path="url(#clip720)" d="M1766.27 1451.02 L1784.63 1451.02 L1784.63 1454.96 L1770.56 1454.96 L1770.56 1463.43 Q1771.57 1463.08 1772.59 1462.92 Q1773.61 1462.73 1774.63 1462.73 Q1780.42 1462.73 1783.8 1465.9 Q1787.18 1469.08 1787.18 1474.49 Q1787.18 1480.07 1783.7 1483.17 Q1780.23 1486.25 1773.91 1486.25 Q1771.74 1486.25 1769.47 1485.88 Q1767.22 1485.51 1764.82 1484.77 L1764.82 1480.07 Q1766.9 1481.2 1769.12 1481.76 Q1771.34 1482.32 1773.82 1482.32 Q1777.82 1482.32 1780.16 1480.21 Q1782.5 1478.1 1782.5 1474.49 Q1782.5 1470.88 1780.16 1468.77 Q1777.82 1466.67 1773.82 1466.67 Q1771.94 1466.67 1770.07 1467.08 Q1768.22 1467.5 1766.27 1468.38 L1766.27 1451.02 Z" fill="#000000" fill-rule="nonzero" fill-opacity="1" /><path clip-path="url(#clip720)" d="M1806.39 1454.1 Q1802.78 1454.1 1800.95 1457.66 Q1799.14 1461.2 1799.14 1468.33 Q1799.14 1475.44 1800.95 1479.01 Q1802.78 1482.55 1806.39 1482.55 Q1810.02 1482.55 1811.83 1479.01 Q1813.66 1475.44 1813.66 1468.33 Q1813.66 1461.2 1811.83 1457.66 Q1810.02 1454.1 1806.39 1454.1 M1806.39 1450.39 Q1812.2 1450.39 1815.25 1455 Q1818.33 1459.58 1818.33 1468.33 Q1818.33 1477.06 1815.25 1481.67 Q1812.2 1486.25 1806.39 1486.25 Q1800.58 1486.25 1797.5 1481.67 Q1794.44 1477.06 1794.44 1468.33 Q1794.44 1459.58 1797.5 1455 Q1800.58 1450.39 1806.39 1450.39 Z" fill="#000000" fill-rule="nonzero" fill-opacity="1" /><path clip-path="url(#clip720)" d="M2254.79 1481.64 L2271.11 1481.64 L2271.11 1485.58 L2249.16 1485.58 L2249.16 1481.64 Q2251.83 1478.89 2256.41 1474.26 Q2261.02 1469.61 2262.2 1468.27 Q2264.44 1465.74 2265.32 1464.01 Q2266.22 1462.25 2266.22 1460.56 Q2266.22 1457.8 2264.28 1456.07 Q2262.36 1454.33 2259.26 1454.33 Q2257.06 1454.33 2254.6 1455.09 Q2252.17 1455.86 2249.4 1457.41 L2249.4 1452.69 Q2252.22 1451.55 2254.67 1450.97 Q2257.13 1450.39 2259.16 1450.39 Q2264.53 1450.39 2267.73 1453.08 Q2270.92 1455.77 2270.92 1460.26 Q2270.92 1462.39 2270.11 1464.31 Q2269.33 1466.2 2267.22 1468.8 Q2266.64 1469.47 2263.54 1472.69 Q2260.44 1475.88 2254.79 1481.64 Z" fill="#000000" fill-rule="nonzero" fill-opacity="1" /><path clip-path="url(#clip720)" d="M2290.92 1454.1 Q2287.31 1454.1 2285.48 1457.66 Q2283.68 1461.2 2283.68 1468.33 Q2283.68 1475.44 2285.48 1479.01 Q2287.31 1482.55 2290.92 1482.55 Q2294.56 1482.55 2296.36 1479.01 Q2298.19 1475.44 2298.19 1468.33 Q2298.19 1461.2 2296.36 1457.66 Q2294.56 1454.1 2290.92 1454.1 M2290.92 1450.39 Q2296.73 1450.39 2299.79 1455 Q2302.87 1459.58 2302.87 1468.33 Q2302.87 1477.06 2299.79 1481.67 Q2296.73 1486.25 2290.92 1486.25 Q2285.11 1486.25 2282.03 1481.67 Q2278.98 1477.06 2278.98 1468.33 Q2278.98 1459.58 2282.03 1455 Q2285.11 1450.39 2290.92 1450.39 Z" fill="#000000" fill-rule="nonzero" fill-opacity="1" /><path clip-path="url(#clip720)" d="M2321.08 1454.1 Q2317.47 1454.1 2315.65 1457.66 Q2313.84 1461.2 2313.84 1468.33 Q2313.84 1475.44 2315.65 1479.01 Q2317.47 1482.55 2321.08 1482.55 Q2324.72 1482.55 2326.52 1479.01 Q2328.35 1475.44 2328.35 1468.33 Q2328.35 1461.2 2326.52 1457.66 Q2324.72 1454.1 2321.08 1454.1 M2321.08 1450.39 Q2326.89 1450.39 2329.95 1455 Q2333.03 1459.58 2333.03 1468.33 Q2333.03 1477.06 2329.95 1481.67 Q2326.89 1486.25 2321.08 1486.25 Q2315.27 1486.25 2312.2 1481.67 Q2309.14 1477.06 2309.14 1468.33 Q2309.14 1459.58 2312.2 1455 Q2315.27 1450.39 2321.08 1450.39 Z" fill="#000000" fill-rule="nonzero" fill-opacity="1" /><path clip-path="url(#clip720)" d="M1094.56 1522.27 L1094.56 1532.4 L1106.62 1532.4 L1106.62 1536.95 L1094.56 1536.95 L1094.56 1556.3 Q1094.56 1560.66 1095.74 1561.9 Q1096.95 1563.14 1100.61 1563.14 L1106.62 1563.14 L1106.62 1568.04 L1100.61 1568.04 Q1093.83 1568.04 1091.25 1565.53 Q1088.67 1562.98 1088.67 1556.3 L1088.67 1536.95 L1084.37 1536.95 L1084.37 1532.4 L1088.67 1532.4 L1088.67 1522.27 L1094.56 1522.27 Z" fill="#000000" fill-rule="nonzero" fill-opacity="1" /><path clip-path="url(#clip720)" d="M1142.08 1539.24 Q1144.27 1535.29 1147.33 1533.41 Q1150.39 1531.54 1154.52 1531.54 Q1160.09 1531.54 1163.12 1535.45 Q1166.14 1539.33 1166.14 1546.53 L1166.14 1568.04 L1160.25 1568.04 L1160.25 1546.72 Q1160.25 1541.59 1158.44 1539.11 Q1156.62 1536.63 1152.9 1536.63 Q1148.35 1536.63 1145.71 1539.65 Q1143.07 1542.68 1143.07 1547.9 L1143.07 1568.04 L1137.18 1568.04 L1137.18 1546.72 Q1137.18 1541.56 1135.36 1539.11 Q1133.55 1536.63 1129.76 1536.63 Q1125.27 1536.63 1122.63 1539.68 Q1119.99 1542.71 1119.99 1547.9 L1119.99 1568.04 L1114.1 1568.04 L1114.1 1532.4 L1119.99 1532.4 L1119.99 1537.93 Q1121.99 1534.66 1124.8 1533.1 Q1127.6 1531.54 1131.45 1531.54 Q1135.33 1531.54 1138.04 1533.51 Q1140.77 1535.48 1142.08 1539.24 Z" fill="#000000" fill-rule="nonzero" fill-opacity="1" /><path clip-path="url(#clip720)" d="M1191.64 1536.5 Q1186.93 1536.5 1184.19 1540.19 Q1181.45 1543.85 1181.45 1550.25 Q1181.45 1556.65 1184.16 1560.34 Q1186.89 1564 1191.64 1564 Q1196.31 1564 1199.05 1560.31 Q1201.79 1556.62 1201.79 1550.25 Q1201.79 1543.92 1199.05 1540.23 Q1196.31 1536.5 1191.64 1536.5 M1191.64 1531.54 Q1199.27 1531.54 1203.64 1536.5 Q1208 1541.47 1208 1550.25 Q1208 1559 1203.64 1564 Q1199.27 1568.97 1191.64 1568.97 Q1183.96 1568.97 1179.6 1564 Q1175.28 1559 1175.28 1550.25 Q1175.28 1541.47 1179.6 1536.5 Q1183.96 1531.54 1191.64 1531.54 Z" fill="#000000" fill-rule="nonzero" fill-opacity="1" /><path clip-path="url(#clip720)" d="M1241.16 1537.81 L1241.16 1518.52 L1247.02 1518.52 L1247.02 1568.04 L1241.16 1568.04 L1241.16 1562.7 Q1239.31 1565.88 1236.48 1567.44 Q1233.68 1568.97 1229.73 1568.97 Q1223.27 1568.97 1219.2 1563.81 Q1215.16 1558.65 1215.16 1550.25 Q1215.16 1541.85 1219.2 1536.69 Q1223.27 1531.54 1229.73 1531.54 Q1233.68 1531.54 1236.48 1533.1 Q1239.31 1534.62 1241.16 1537.81 M1221.2 1550.25 Q1221.2 1556.71 1223.85 1560.4 Q1226.52 1564.07 1231.17 1564.07 Q1235.81 1564.07 1238.49 1560.4 Q1241.16 1556.71 1241.16 1550.25 Q1241.16 1543.79 1238.49 1540.13 Q1235.81 1536.44 1231.17 1536.44 Q1226.52 1536.44 1223.85 1540.13 Q1221.2 1543.79 1221.2 1550.25 Z" fill="#000000" fill-rule="nonzero" fill-opacity="1" /><path clip-path="url(#clip720)" d="M1289.57 1548.76 L1289.57 1551.62 L1262.65 1551.62 Q1263.03 1557.67 1266.27 1560.85 Q1269.55 1564 1275.38 1564 Q1278.75 1564 1281.9 1563.17 Q1285.08 1562.35 1288.2 1560.69 L1288.2 1566.23 Q1285.05 1567.57 1281.74 1568.27 Q1278.43 1568.97 1275.03 1568.97 Q1266.5 1568.97 1261.5 1564 Q1256.53 1559.04 1256.53 1550.57 Q1256.53 1541.82 1261.24 1536.69 Q1265.99 1531.54 1274.01 1531.54 Q1281.2 1531.54 1285.37 1536.18 Q1289.57 1540.8 1289.57 1548.76 M1283.72 1547.04 Q1283.65 1542.23 1281.01 1539.37 Q1278.4 1536.5 1274.07 1536.5 Q1269.17 1536.5 1266.21 1539.27 Q1263.28 1542.04 1262.84 1547.07 L1283.72 1547.04 Z" fill="#000000" fill-rule="nonzero" fill-opacity="1" /><path clip-path="url(#clip720)" d="M1299.18 1518.52 L1305.04 1518.52 L1305.04 1568.04 L1299.18 1568.04 L1299.18 1518.52 Z" fill="#000000" fill-rule="nonzero" fill-opacity="1" /><path clip-path="url(#clip720)" d="M1352.08 1518.58 Q1347.82 1525.9 1345.75 1533.06 Q1343.68 1540.23 1343.68 1547.58 Q1343.68 1554.93 1345.75 1562.16 Q1347.85 1569.35 1352.08 1576.64 L1346.99 1576.64 Q1342.22 1569.16 1339.83 1561.93 Q1337.47 1554.71 1337.47 1547.58 Q1337.47 1540.48 1339.83 1533.29 Q1342.18 1526.09 1346.99 1518.58 L1352.08 1518.58 Z" fill="#000000" fill-rule="nonzero" fill-opacity="1" /><path clip-path="url(#clip720)" d="M1378.28 1571.35 Q1375.8 1577.72 1373.44 1579.66 Q1371.08 1581.6 1367.14 1581.6 L1362.46 1581.6 L1362.46 1576.7 L1365.9 1576.7 Q1368.32 1576.7 1369.65 1575.56 Q1370.99 1574.41 1372.61 1570.14 L1373.66 1567.47 L1359.24 1532.4 L1365.45 1532.4 L1376.59 1560.28 L1387.73 1532.4 L1393.94 1532.4 L1378.28 1571.35 Z" fill="#000000" fill-rule="nonzero" fill-opacity="1" /><path clip-path="url(#clip720)" d="M1422.68 1537.87 Q1421.69 1537.3 1420.51 1537.04 Q1419.37 1536.76 1417.97 1536.76 Q1413 1536.76 1410.33 1540 Q1407.69 1543.22 1407.69 1549.27 L1407.69 1568.04 L1401.8 1568.04 L1401.8 1532.4 L1407.69 1532.4 L1407.69 1537.93 Q1409.53 1534.69 1412.49 1533.13 Q1415.45 1531.54 1419.69 1531.54 Q1420.29 1531.54 1421.02 1531.63 Q1421.76 1531.7 1422.65 1531.85 L1422.68 1537.87 Z" fill="#000000" fill-rule="nonzero" fill-opacity="1" /><path clip-path="url(#clip720)" d="M1427.9 1518.58 L1432.99 1518.58 Q1437.77 1526.09 1440.12 1533.29 Q1442.51 1540.48 1442.51 1547.58 Q1442.51 1554.71 1440.12 1561.93 Q1437.77 1569.16 1432.99 1576.64 L1427.9 1576.64 Q1432.13 1569.35 1434.2 1562.16 Q1436.3 1554.93 1436.3 1547.58 Q1436.3 1540.23 1434.2 1533.06 Q1432.13 1525.9 1427.9 1518.58 Z" fill="#000000" fill-rule="nonzero" fill-opacity="1" /><polyline clip-path="url(#clip722)" style="stroke:#000000; stroke-linecap:round; stroke-linejoin:round; stroke-width:2; stroke-opacity:0.1; fill:none" points="174.126,1200.02 2352.76,1200.02 "/>
<polyline clip-path="url(#clip722)" style="stroke:#000000; stroke-linecap:round; stroke-linejoin:round; stroke-width:2; stroke-opacity:0.1; fill:none" points="174.126,945.439 2352.76,945.439 "/>
<polyline clip-path="url(#clip722)" style="stroke:#000000; stroke-linecap:round; stroke-linejoin:round; stroke-width:2; stroke-opacity:0.1; fill:none" points="174.126,690.862 2352.76,690.862 "/>
<polyline clip-path="url(#clip722)" style="stroke:#000000; stroke-linecap:round; stroke-linejoin:round; stroke-width:2; stroke-opacity:0.1; fill:none" points="174.126,436.286 2352.76,436.286 "/>
<polyline clip-path="url(#clip722)" style="stroke:#000000; stroke-linecap:round; stroke-linejoin:round; stroke-width:2; stroke-opacity:0.1; fill:none" points="174.126,181.709 2352.76,181.709 "/>
<polyline clip-path="url(#clip720)" style="stroke:#000000; stroke-linecap:round; stroke-linejoin:round; stroke-width:4; stroke-opacity:1; fill:none" points="174.126,1423.18 174.126,47.2441 "/>
<polyline clip-path="url(#clip720)" style="stroke:#000000; stroke-linecap:round; stroke-linejoin:round; stroke-width:4; stroke-opacity:1; fill:none" points="174.126,1200.02 193.023,1200.02 "/>
<polyline clip-path="url(#clip720)" style="stroke:#000000; stroke-linecap:round; stroke-linejoin:round; stroke-width:4; stroke-opacity:1; fill:none" points="174.126,945.439 193.023,945.439 "/>
<polyline clip-path="url(#clip720)" style="stroke:#000000; stroke-linecap:round; stroke-linejoin:round; stroke-width:4; stroke-opacity:1; fill:none" points="174.126,690.862 193.023,690.862 "/>
<polyline clip-path="url(#clip720)" style="stroke:#000000; stroke-linecap:round; stroke-linejoin:round; stroke-width:4; stroke-opacity:1; fill:none" points="174.126,436.286 193.023,436.286 "/>
<polyline clip-path="url(#clip720)" style="stroke:#000000; stroke-linecap:round; stroke-linejoin:round; stroke-width:4; stroke-opacity:1; fill:none" points="174.126,181.709 193.023,181.709 "/>
<path clip-path="url(#clip720)" d="M117.223 1182.74 L135.579 1182.74 L135.579 1186.67 L121.505 1186.67 L121.505 1195.14 Q122.524 1194.8 123.543 1194.63 Q124.561 1194.45 125.58 1194.45 Q131.367 1194.45 134.746 1197.62 Q138.126 1200.79 138.126 1206.21 Q138.126 1211.79 134.654 1214.89 Q131.181 1217.97 124.862 1217.97 Q122.686 1217.97 120.418 1217.6 Q118.172 1217.23 115.765 1216.49 L115.765 1211.79 Q117.848 1212.92 120.07 1213.48 Q122.293 1214.03 124.769 1214.03 Q128.774 1214.03 131.112 1211.93 Q133.45 1209.82 133.45 1206.21 Q133.45 1202.6 131.112 1200.49 Q128.774 1198.38 124.769 1198.38 Q122.894 1198.38 121.019 1198.8 Q119.168 1199.22 117.223 1200.1 L117.223 1182.74 Z" fill="#000000" fill-rule="nonzero" fill-opacity="1" /><path clip-path="url(#clip720)" d="M126.598 943.576 Q123.45 943.576 121.598 945.728 Q119.769 947.881 119.769 951.631 Q119.769 955.358 121.598 957.534 Q123.45 959.687 126.598 959.687 Q129.746 959.687 131.575 957.534 Q133.427 955.358 133.427 951.631 Q133.427 947.881 131.575 945.728 Q129.746 943.576 126.598 943.576 M135.88 928.923 L135.88 933.182 Q134.121 932.349 132.316 931.909 Q130.533 931.469 128.774 931.469 Q124.144 931.469 121.691 934.594 Q119.26 937.719 118.913 944.039 Q120.279 942.025 122.339 940.96 Q124.399 939.872 126.876 939.872 Q132.084 939.872 135.093 943.043 Q138.126 946.191 138.126 951.631 Q138.126 956.955 134.978 960.173 Q131.83 963.39 126.598 963.39 Q120.603 963.39 117.431 958.807 Q114.26 954.2 114.26 945.474 Q114.26 937.279 118.149 932.418 Q122.038 927.534 128.589 927.534 Q130.348 927.534 132.13 927.881 Q133.936 928.228 135.88 928.923 Z" fill="#000000" fill-rule="nonzero" fill-opacity="1" /><path clip-path="url(#clip720)" d="M115.904 673.582 L138.126 673.582 L138.126 675.573 L125.58 708.142 L120.695 708.142 L132.501 677.518 L115.904 677.518 L115.904 673.582 Z" fill="#000000" fill-rule="nonzero" fill-opacity="1" /><path clip-path="url(#clip720)" d="M126.274 437.154 Q122.941 437.154 121.019 438.936 Q119.121 440.719 119.121 443.844 Q119.121 446.969 121.019 448.751 Q122.941 450.533 126.274 450.533 Q129.607 450.533 131.529 448.751 Q133.45 446.945 133.45 443.844 Q133.45 440.719 131.529 438.936 Q129.63 437.154 126.274 437.154 M121.598 435.163 Q118.589 434.422 116.899 432.362 Q115.232 430.302 115.232 427.339 Q115.232 423.196 118.172 420.788 Q121.135 418.381 126.274 418.381 Q131.436 418.381 134.376 420.788 Q137.316 423.196 137.316 427.339 Q137.316 430.302 135.626 432.362 Q133.959 434.422 130.973 435.163 Q134.353 435.95 136.228 438.242 Q138.126 440.533 138.126 443.844 Q138.126 448.867 135.047 451.552 Q131.992 454.237 126.274 454.237 Q120.556 454.237 117.478 451.552 Q114.422 448.867 114.422 443.844 Q114.422 440.533 116.32 438.242 Q118.218 435.95 121.598 435.163 M119.885 427.779 Q119.885 430.464 121.552 431.969 Q123.242 433.473 126.274 433.473 Q129.283 433.473 130.973 431.969 Q132.686 430.464 132.686 427.779 Q132.686 425.094 130.973 423.589 Q129.283 422.084 126.274 422.084 Q123.242 422.084 121.552 423.589 Q119.885 425.094 119.885 427.779 Z" fill="#000000" fill-rule="nonzero" fill-opacity="1" /><path clip-path="url(#clip720)" d="M116.506 198.272 L116.506 194.012 Q118.265 194.846 120.07 195.285 Q121.876 195.725 123.612 195.725 Q128.242 195.725 130.672 192.623 Q133.126 189.498 133.473 183.156 Q132.13 185.147 130.07 186.211 Q128.01 187.276 125.51 187.276 Q120.325 187.276 117.293 184.151 Q114.283 181.003 114.283 175.563 Q114.283 170.239 117.431 167.022 Q120.58 163.804 125.811 163.804 Q131.806 163.804 134.954 168.411 Q138.126 172.994 138.126 181.744 Q138.126 189.915 134.237 194.799 Q130.371 199.66 123.82 199.66 Q122.061 199.66 120.255 199.313 Q118.45 198.966 116.506 198.272 M125.811 183.619 Q128.959 183.619 130.788 181.466 Q132.64 179.313 132.64 175.563 Q132.64 171.837 130.788 169.684 Q128.959 167.508 125.811 167.508 Q122.663 167.508 120.811 169.684 Q118.982 171.837 118.982 175.563 Q118.982 179.313 120.811 181.466 Q122.663 183.619 125.811 183.619 Z" fill="#000000" fill-rule="nonzero" fill-opacity="1" /><path clip-path="url(#clip720)" d="M58.657 768.361 L77.5631 768.361 L77.5631 774.25 L28.3562 774.25 L28.3562 768.361 L33.7671 768.361 Q30.5842 766.515 29.0564 763.714 Q27.4968 760.882 27.4968 756.967 Q27.4968 750.474 32.6531 746.432 Q37.8093 742.357 46.212 742.357 Q54.6147 742.357 59.771 746.432 Q64.9272 750.474 64.9272 756.967 Q64.9272 760.882 63.3994 763.714 Q61.8398 766.515 58.657 768.361 M46.212 748.437 Q39.7508 748.437 36.0905 751.11 Q32.3984 753.752 32.3984 758.399 Q32.3984 763.046 36.0905 765.72 Q39.7508 768.361 46.212 768.361 Q52.6732 768.361 56.3653 765.72 Q60.0256 763.046 60.0256 758.399 Q60.0256 753.752 56.3653 751.11 Q52.6732 748.437 46.212 748.437 Z" fill="#000000" fill-rule="nonzero" fill-opacity="1" /><path clip-path="url(#clip720)" d="M16.4842 732.395 L16.4842 725.966 L35.9632 725.966 L35.9632 702.604 L16.4842 702.604 L16.4842 696.174 L64.0042 696.174 L64.0042 702.604 L41.3741 702.604 L41.3741 725.966 L64.0042 725.966 L64.0042 732.395 L16.4842 732.395 Z" fill="#000000" fill-rule="nonzero" fill-opacity="1" /><polyline clip-path="url(#clip722)" style="stroke:#009af9; stroke-linecap:round; stroke-linejoin:round; stroke-width:4; stroke-opacity:1; fill:none" points="235.785,1384.24 235.785,1384.24 235.785,1384.24 235.785,1384.24 235.785,1384.24 235.785,1384.24 235.785,1384.24 235.785,1384.24 235.785,1384.24 235.785,1384.24 235.785,1384.24 235.785,1384.24 235.785,1384.24 235.785,1384.24 235.785,1384.24 235.785,1384.24 235.785,1384.24 235.785,1384.24 235.785,1384.24 235.785,1384.24 235.785,1384.24 235.785,1384.24 235.785,1384.24 235.785,1384.24 235.785,1384.24 235.785,1384.24 235.785,1384.24 235.785,1384.24 235.785,1384.24 235.785,1384.24 235.785,1384.24 235.785,1384.24 235.785,1384.24 235.785,1384.24 235.785,1384.24 235.785,1384.24 235.785,1384.24 235.785,1384.24 235.786,1384.24 235.787,1384.24 235.788,1384.23 235.791,1384.23 235.797,1384.21 235.81,1384.19 235.834,1384.14 235.884,1384.03 235.983,1383.83 236.18,1383.42 236.575,1382.61 237.365,1380.98 238.945,1377.71 240.525,1374.45 242.105,1371.19 243.312,1368.71 244.283,1366.71 245.131,1364.98 245.865,1363.47 246.6,1361.97 247.261,1360.62 247.856,1359.41 248.451,1358.2 249.046,1356.99 249.641,1355.79 250.236,1354.59 250.831,1353.39 251.426,1352.19 252.616,1349.8 253.806,1347.43 254.996,1345.07 256.186,1342.72 258.565,1338.07 260.945,1333.48 263.325,1328.95 266.273,1323.44 269.22,1318.05 272.167,1312.76 275.114,1307.59 278.062,1302.54 281.009,1297.6 283.956,1292.78 286.903,1288.07 289.85,1283.48 292.798,1279 295.745,1274.62 298.692,1270.34 301.639,1266.17 304.587,1262.1 307.534,1258.11 310.481,1254.23 313.428,1250.42 316.376,1246.71 319.323,1243.07 322.27,1239.51 325.217,1236.03 328.165,1232.62 334.059,1226.01 339.954,1219.66 345.848,1213.54 351.742,1207.65 357.637,1201.96 364.847,1195.26 372.057,1188.83 379.267,1182.63 386.478,1176.65 393.688,1170.87 400.898,1165.28 408.108,1159.87 415.318,1154.61 422.529,1149.5 429.739,1144.52 436.949,1139.68 444.159,1134.95 451.369,1130.34 458.58,1125.83 465.79,1121.41 471.205,1118.16 476.621,1114.95 482.036,1111.79 487.451,1108.67 492.867,1105.6 498.282,1102.57 503.698,1099.57 509.113,1096.62 514.529,1093.69 519.944,1090.81 525.359,1087.95 530.775,1085.13 536.19,1082.33 541.606,1079.56 547.021,1076.82 552.437,1074.11 557.852,1071.42 563.267,1068.75 570.243,1065.35 577.219,1061.98 584.195,1058.64 591.171,1055.34 598.147,1052.07 612.098,1045.6 624.655,1039.86 637.211,1034.2 649.768,1028.59 662.324,1023.04 687.437,1012.07 710.039,1002.31 732.64,992.607 755.242,982.937 777.844,973.26 800.445,963.538 832.18,949.742 863.914,935.677 892.475,922.685 917.282,911.064 942.089,899.051 964.416,887.828 983.88,877.664 1003.34,867.083 1020.86,857.143 1036.63,847.806 1050.82,839.041 1065,829.886 1079.19,820.289 1091.96,811.221 1103.46,802.667 1114.95,793.696 1125.29,785.222 1135.64,776.327 1145.98,766.963 1156.32,757.079 1166.67,746.616 1177.01,735.514 1187.36,723.707 1197.7,711.14 1207.01,699.137 1216.32,686.456 1224.63,674.572 1232.94,662.185 1241.25,649.357 1249.56,636.186 1257.87,622.8 1266.18,609.351 1274.49,595.999 1282.8,582.893 1291.11,570.158 1299.42,557.883 1307.73,546.129 1315.21,536.019 1322.68,526.351 1330.16,517.121 1337.64,508.312 1345.12,499.901 1352.6,491.867 1360.08,484.184 1367.56,476.83 1375.04,469.78 1382.51,463.015 1389.25,457.148 1395.98,451.48 1402.03,446.538 1408.09,441.738 1414.15,437.07 1426.27,428.105 1436.33,420.998 1446.4,414.171 1456.47,407.602 1466.54,401.268 1476.6,395.149 1486.67,389.227 1496.74,383.488 1506.81,377.916 1516.87,372.502 1526.94,367.229 1537.01,362.096 1543.88,358.66 1550.74,355.283 1556.92,352.288 1563.1,349.334 1569.28,346.42 1575.46,343.542 1587.83,337.894 1600.19,332.378 1612.55,326.984 1624.91,321.702 1637.27,316.525 1661.99,306.454 1686.71,296.714 1711.43,287.259 1736.15,278.047 1760.87,269.045 1785.59,260.219 1810.31,251.543 1835.03,242.991 1859.76,234.54 1891.75,223.718 1923.75,212.987 1955.75,202.311 1987.75,191.654 2019.75,180.982 2055.35,169.051 2090.95,157.024 2126.56,144.862 2162.16,132.535 2197.76,120.015 2233.37,107.287 2268.97,94.3406 2291.1,86.1857 "/>
<path clip-path="url(#clip720)" d="M246.747 196.789 L870.51 196.789 L870.51 93.1086 L246.747 93.1086  Z" fill="#ffffff" fill-rule="evenodd" fill-opacity="1"/>
<polyline clip-path="url(#clip720)" style="stroke:#000000; stroke-linecap:round; stroke-linejoin:round; stroke-width:4; stroke-opacity:1; fill:none" points="246.747,196.789 870.51,196.789 870.51,93.1086 246.747,93.1086 246.747,196.789 "/>
<polyline clip-path="url(#clip720)" style="stroke:#009af9; stroke-linecap:round; stroke-linejoin:round; stroke-width:4; stroke-opacity:1; fill:none" points="270.954,144.949 416.196,144.949 "/>
<path clip-path="url(#clip720)" d="M452.301 139.289 Q448.875 139.289 446.884 141.974 Q444.894 144.636 444.894 149.289 Q444.894 153.942 446.861 156.627 Q448.852 159.289 452.301 159.289 Q455.704 159.289 457.694 156.604 Q459.685 153.918 459.685 149.289 Q459.685 144.682 457.694 141.997 Q455.704 139.289 452.301 139.289 M452.301 135.678 Q457.856 135.678 461.028 139.289 Q464.199 142.9 464.199 149.289 Q464.199 155.655 461.028 159.289 Q457.856 162.9 452.301 162.9 Q446.722 162.9 443.551 159.289 Q440.403 155.655 440.403 149.289 Q440.403 142.9 443.551 139.289 Q446.722 135.678 452.301 135.678 Z" fill="#000000" fill-rule="nonzero" fill-opacity="1" /><path clip-path="url(#clip720)" d="M489.916 137.298 L489.916 141.28 Q488.111 140.284 486.282 139.798 Q484.477 139.289 482.625 139.289 Q478.481 139.289 476.19 141.928 Q473.898 144.544 473.898 149.289 Q473.898 154.034 476.19 156.673 Q478.481 159.289 482.625 159.289 Q484.477 159.289 486.282 158.803 Q488.111 158.293 489.916 157.298 L489.916 161.233 Q488.134 162.067 486.213 162.483 Q484.315 162.9 482.162 162.9 Q476.305 162.9 472.856 159.219 Q469.407 155.539 469.407 149.289 Q469.407 142.946 472.879 139.312 Q476.375 135.678 482.44 135.678 Q484.407 135.678 486.282 136.095 Q488.157 136.488 489.916 137.298 Z" fill="#000000" fill-rule="nonzero" fill-opacity="1" /><path clip-path="url(#clip720)" d="M519.5 148.201 L519.5 150.284 L499.916 150.284 Q500.194 154.682 502.555 156.997 Q504.939 159.289 509.176 159.289 Q511.629 159.289 513.921 158.687 Q516.236 158.085 518.504 156.881 L518.504 160.909 Q516.213 161.881 513.805 162.391 Q511.398 162.9 508.921 162.9 Q502.717 162.9 499.083 159.289 Q495.472 155.678 495.472 149.52 Q495.472 143.155 498.898 139.428 Q502.347 135.678 508.18 135.678 Q513.412 135.678 516.444 139.057 Q519.5 142.414 519.5 148.201 M515.24 146.951 Q515.194 143.456 513.273 141.372 Q511.375 139.289 508.226 139.289 Q504.662 139.289 502.509 141.303 Q500.379 143.317 500.055 146.974 L515.24 146.951 Z" fill="#000000" fill-rule="nonzero" fill-opacity="1" /><path clip-path="url(#clip720)" d="M538.273 149.196 Q533.111 149.196 531.12 150.377 Q529.129 151.557 529.129 154.405 Q529.129 156.673 530.611 158.016 Q532.115 159.335 534.685 159.335 Q538.226 159.335 540.356 156.835 Q542.509 154.312 542.509 150.145 L542.509 149.196 L538.273 149.196 M546.768 147.437 L546.768 162.229 L542.509 162.229 L542.509 158.293 Q541.05 160.655 538.874 161.789 Q536.699 162.9 533.55 162.9 Q529.569 162.9 527.208 160.678 Q524.87 158.432 524.87 154.682 Q524.87 150.307 527.787 148.085 Q530.726 145.863 536.537 145.863 L542.509 145.863 L542.509 145.446 Q542.509 142.507 540.564 140.909 Q538.643 139.289 535.148 139.289 Q532.925 139.289 530.819 139.821 Q528.712 140.354 526.768 141.419 L526.768 137.483 Q529.106 136.581 531.305 136.141 Q533.504 135.678 535.587 135.678 Q541.212 135.678 543.99 138.594 Q546.768 141.511 546.768 147.437 Z" fill="#000000" fill-rule="nonzero" fill-opacity="1" /><path clip-path="url(#clip720)" d="M577.092 146.581 L577.092 162.229 L572.833 162.229 L572.833 146.719 Q572.833 143.039 571.397 141.21 Q569.962 139.382 567.092 139.382 Q563.643 139.382 561.652 141.581 Q559.661 143.78 559.661 147.576 L559.661 162.229 L555.379 162.229 L555.379 136.303 L559.661 136.303 L559.661 140.331 Q561.189 137.993 563.249 136.835 Q565.333 135.678 568.041 135.678 Q572.509 135.678 574.8 138.456 Q577.092 141.21 577.092 146.581 Z" fill="#000000" fill-rule="nonzero" fill-opacity="1" /><path clip-path="url(#clip720)" d="M586.189 156.349 L591.073 156.349 L591.073 162.229 L586.189 162.229 L586.189 156.349 Z" fill="#000000" fill-rule="nonzero" fill-opacity="1" /><path clip-path="url(#clip720)" d="M604.777 158.34 L604.777 172.09 L600.495 172.09 L600.495 136.303 L604.777 136.303 L604.777 140.238 Q606.119 137.923 608.157 136.812 Q610.217 135.678 613.064 135.678 Q617.786 135.678 620.726 139.428 Q623.689 143.178 623.689 149.289 Q623.689 155.4 620.726 159.15 Q617.786 162.9 613.064 162.9 Q610.217 162.9 608.157 161.789 Q606.119 160.655 604.777 158.34 M619.268 149.289 Q619.268 144.59 617.323 141.928 Q615.402 139.243 612.022 139.243 Q608.643 139.243 606.698 141.928 Q604.777 144.59 604.777 149.289 Q604.777 153.988 606.698 156.673 Q608.643 159.335 612.022 159.335 Q615.402 159.335 617.323 156.673 Q619.268 153.988 619.268 149.289 Z" fill="#000000" fill-rule="nonzero" fill-opacity="1" /><path clip-path="url(#clip720)" d="M630.934 127.669 L635.61 127.669 L635.61 141.835 L652.601 141.835 L652.601 127.669 L657.277 127.669 L657.277 162.229 L652.601 162.229 L652.601 145.77 L635.61 145.77 L635.61 162.229 L630.934 162.229 L630.934 127.669 Z" fill="#000000" fill-rule="nonzero" fill-opacity="1" /><path clip-path="url(#clip720)" d="M676.628 126.257 Q673.527 131.581 672.022 136.789 Q670.517 141.997 670.517 147.344 Q670.517 152.692 672.022 157.946 Q673.55 163.178 676.628 168.479 L672.925 168.479 Q669.452 163.039 667.716 157.784 Q666.003 152.53 666.003 147.344 Q666.003 142.182 667.716 136.951 Q669.429 131.72 672.925 126.257 L676.628 126.257 Z" fill="#000000" fill-rule="nonzero" fill-opacity="1" /><path clip-path="url(#clip720)" d="M703.55 137.298 L703.55 141.28 Q701.744 140.284 699.915 139.798 Q698.11 139.289 696.258 139.289 Q692.114 139.289 689.823 141.928 Q687.531 144.544 687.531 149.289 Q687.531 154.034 689.823 156.673 Q692.114 159.289 696.258 159.289 Q698.11 159.289 699.915 158.803 Q701.744 158.293 703.55 157.298 L703.55 161.233 Q701.767 162.067 699.846 162.483 Q697.948 162.9 695.795 162.9 Q689.938 162.9 686.489 159.219 Q683.04 155.539 683.04 149.289 Q683.04 142.946 686.513 139.312 Q690.008 135.678 696.073 135.678 Q698.04 135.678 699.915 136.095 Q701.79 136.488 703.55 137.298 Z" fill="#000000" fill-rule="nonzero" fill-opacity="1" /><path clip-path="url(#clip720)" d="M733.133 148.201 L733.133 150.284 L713.549 150.284 Q713.827 154.682 716.188 156.997 Q718.573 159.289 722.809 159.289 Q725.262 159.289 727.554 158.687 Q729.869 158.085 732.137 156.881 L732.137 160.909 Q729.846 161.881 727.438 162.391 Q725.031 162.9 722.554 162.9 Q716.35 162.9 712.716 159.289 Q709.105 155.678 709.105 149.52 Q709.105 143.155 712.531 139.428 Q715.98 135.678 721.813 135.678 Q727.045 135.678 730.077 139.057 Q733.133 142.414 733.133 148.201 M728.873 146.951 Q728.827 143.456 726.906 141.372 Q725.008 139.289 721.86 139.289 Q718.295 139.289 716.142 141.303 Q714.012 143.317 713.688 146.974 L728.873 146.951 Z" fill="#000000" fill-rule="nonzero" fill-opacity="1" /><path clip-path="url(#clip720)" d="M740.123 126.21 L744.383 126.21 L744.383 162.229 L740.123 162.229 L740.123 126.21 Z" fill="#000000" fill-rule="nonzero" fill-opacity="1" /><path clip-path="url(#clip720)" d="M753.295 126.21 L757.554 126.21 L757.554 162.229 L753.295 162.229 L753.295 126.21 Z" fill="#000000" fill-rule="nonzero" fill-opacity="1" /><path clip-path="url(#clip720)" d="M767.021 140.701 L796.697 140.701 L796.697 144.59 L767.021 144.59 L767.021 140.701 M767.021 150.145 L796.697 150.145 L796.697 154.081 L767.021 154.081 L767.021 150.145 Z" fill="#000000" fill-rule="nonzero" fill-opacity="1" /><path clip-path="url(#clip720)" d="M807.6 158.293 L815.239 158.293 L815.239 131.928 L806.929 133.595 L806.929 129.335 L815.192 127.669 L819.868 127.669 L819.868 158.293 L827.507 158.293 L827.507 162.229 L807.6 162.229 L807.6 158.293 Z" fill="#000000" fill-rule="nonzero" fill-opacity="1" /><path clip-path="url(#clip720)" d="M835.678 126.257 L839.382 126.257 Q842.854 131.72 844.567 136.951 Q846.303 142.182 846.303 147.344 Q846.303 152.53 844.567 157.784 Q842.854 163.039 839.382 168.479 L835.678 168.479 Q838.757 163.178 840.262 157.946 Q841.79 152.692 841.79 147.344 Q841.79 141.997 840.262 136.789 Q838.757 131.581 835.678 126.257 Z" fill="#000000" fill-rule="nonzero" fill-opacity="1" /></svg>
