<?xml version="1.0" encoding="utf-8"?>
<svg xmlns="http://www.w3.org/2000/svg" xmlns:xlink="http://www.w3.org/1999/xlink" width="600" height="400" viewBox="0 0 2400 1600">
<defs>
  <clipPath id="clip650">
    <rect x="0" y="0" width="2400" height="1600"/>
  </clipPath>
</defs>
<path clip-path="url(#clip650)" d="
M0 1600 L2400 1600 L2400 0 L0 0  Z
  " fill="#ffffff" fill-rule="evenodd" fill-opacity="1"/>
<defs>
  <clipPath id="clip651">
    <rect x="480" y="0" width="1681" height="1600"/>
  </clipPath>
</defs>
<path clip-path="url(#clip650)" d="
M175.445 1423.18 L2352.76 1423.18 L2352.76 47.2441 L175.445 47.2441  Z
  " fill="#ffffff" fill-rule="evenodd" fill-opacity="1"/>
<defs>
  <clipPath id="clip652">
    <rect x="175" y="47" width="2178" height="1377"/>
  </clipPath>
</defs>
<polyline clip-path="url(#clip652)" style="stroke:#000000; stroke-linecap:butt; stroke-linejoin:round; stroke-width:2; stroke-opacity:0.1; fill:none" points="
  237.067,1423.18 237.067,47.2441 
  "/>
<polyline clip-path="url(#clip652)" style="stroke:#000000; stroke-linecap:butt; stroke-linejoin:round; stroke-width:2; stroke-opacity:0.1; fill:none" points="
  750.584,1423.18 750.584,47.2441 
  "/>
<polyline clip-path="url(#clip652)" style="stroke:#000000; stroke-linecap:butt; stroke-linejoin:round; stroke-width:2; stroke-opacity:0.1; fill:none" points="
  1264.1,1423.18 1264.1,47.2441 
  "/>
<polyline clip-path="url(#clip652)" style="stroke:#000000; stroke-linecap:butt; stroke-linejoin:round; stroke-width:2; stroke-opacity:0.1; fill:none" points="
  1777.62,1423.18 1777.62,47.2441 
  "/>
<polyline clip-path="url(#clip652)" style="stroke:#000000; stroke-linecap:butt; stroke-linejoin:round; stroke-width:2; stroke-opacity:0.1; fill:none" points="
  2291.13,1423.18 2291.13,47.2441 
  "/>
<polyline clip-path="url(#clip650)" style="stroke:#000000; stroke-linecap:butt; stroke-linejoin:round; stroke-width:4; stroke-opacity:1; fill:none" points="
  175.445,1423.18 2352.76,1423.18 
  "/>
<polyline clip-path="url(#clip650)" style="stroke:#000000; stroke-linecap:butt; stroke-linejoin:round; stroke-width:4; stroke-opacity:1; fill:none" points="
  237.067,1423.18 237.067,1404.28 
  "/>
<polyline clip-path="url(#clip650)" style="stroke:#000000; stroke-linecap:butt; stroke-linejoin:round; stroke-width:4; stroke-opacity:1; fill:none" points="
  750.584,1423.18 750.584,1404.28 
  "/>
<polyline clip-path="url(#clip650)" style="stroke:#000000; stroke-linecap:butt; stroke-linejoin:round; stroke-width:4; stroke-opacity:1; fill:none" points="
  1264.1,1423.18 1264.1,1404.28 
  "/>
<polyline clip-path="url(#clip650)" style="stroke:#000000; stroke-linecap:butt; stroke-linejoin:round; stroke-width:4; stroke-opacity:1; fill:none" points="
  1777.62,1423.18 1777.62,1404.28 
  "/>
<polyline clip-path="url(#clip650)" style="stroke:#000000; stroke-linecap:butt; stroke-linejoin:round; stroke-width:4; stroke-opacity:1; fill:none" points="
  2291.13,1423.18 2291.13,1404.28 
  "/>
<path clip-path="url(#clip650)" d="M214.452 1454.1 Q210.84 1454.1 209.012 1457.66 Q207.206 1461.2 207.206 1468.33 Q207.206 1475.44 209.012 1479.01 Q210.84 1482.55 214.452 1482.55 Q218.086 1482.55 219.891 1479.01 Q221.72 1475.44 221.72 1468.33 Q221.72 1461.2 219.891 1457.66 Q218.086 1454.1 214.452 1454.1 M214.452 1450.39 Q220.262 1450.39 223.317 1455 Q226.396 1459.58 226.396 1468.33 Q226.396 1477.06 223.317 1481.67 Q220.262 1486.25 214.452 1486.25 Q208.641 1486.25 205.563 1481.67 Q202.507 1477.06 202.507 1468.33 Q202.507 1459.58 205.563 1455 Q208.641 1450.39 214.452 1450.39 Z" fill="#000000" fill-rule="evenodd" fill-opacity="1" /><path clip-path="url(#clip650)" d="M234.614 1479.7 L239.498 1479.7 L239.498 1485.58 L234.614 1485.58 L234.614 1479.7 Z" fill="#000000" fill-rule="evenodd" fill-opacity="1" /><path clip-path="url(#clip650)" d="M259.683 1454.1 Q256.072 1454.1 254.243 1457.66 Q252.437 1461.2 252.437 1468.33 Q252.437 1475.44 254.243 1479.01 Q256.072 1482.55 259.683 1482.55 Q263.317 1482.55 265.123 1479.01 Q266.951 1475.44 266.951 1468.33 Q266.951 1461.2 265.123 1457.66 Q263.317 1454.1 259.683 1454.1 M259.683 1450.39 Q265.493 1450.39 268.549 1455 Q271.627 1459.58 271.627 1468.33 Q271.627 1477.06 268.549 1481.67 Q265.493 1486.25 259.683 1486.25 Q253.873 1486.25 250.794 1481.67 Q247.738 1477.06 247.738 1468.33 Q247.738 1459.58 250.794 1455 Q253.873 1450.39 259.683 1450.39 Z" fill="#000000" fill-rule="evenodd" fill-opacity="1" /><path clip-path="url(#clip650)" d="M722.32 1481.64 L738.64 1481.64 L738.64 1485.58 L716.695 1485.58 L716.695 1481.64 Q719.357 1478.89 723.941 1474.26 Q728.547 1469.61 729.728 1468.27 Q731.973 1465.74 732.852 1464.01 Q733.755 1462.25 733.755 1460.56 Q733.755 1457.8 731.811 1456.07 Q729.89 1454.33 726.788 1454.33 Q724.589 1454.33 722.135 1455.09 Q719.704 1455.86 716.927 1457.41 L716.927 1452.69 Q719.751 1451.55 722.204 1450.97 Q724.658 1450.39 726.695 1450.39 Q732.065 1450.39 735.26 1453.08 Q738.454 1455.77 738.454 1460.26 Q738.454 1462.39 737.644 1464.31 Q736.857 1466.2 734.751 1468.8 Q734.172 1469.47 731.07 1472.69 Q727.968 1475.88 722.32 1481.64 Z" fill="#000000" fill-rule="evenodd" fill-opacity="1" /><path clip-path="url(#clip650)" d="M748.454 1479.7 L753.338 1479.7 L753.338 1485.58 L748.454 1485.58 L748.454 1479.7 Z" fill="#000000" fill-rule="evenodd" fill-opacity="1" /><path clip-path="url(#clip650)" d="M763.57 1451.02 L781.926 1451.02 L781.926 1454.96 L767.852 1454.96 L767.852 1463.43 Q768.871 1463.08 769.889 1462.92 Q770.908 1462.73 771.926 1462.73 Q777.713 1462.73 781.093 1465.9 Q784.473 1469.08 784.473 1474.49 Q784.473 1480.07 781 1483.17 Q777.528 1486.25 771.209 1486.25 Q769.033 1486.25 766.764 1485.88 Q764.519 1485.51 762.112 1484.77 L762.112 1480.07 Q764.195 1481.2 766.417 1481.76 Q768.639 1482.32 771.116 1482.32 Q775.121 1482.32 777.459 1480.21 Q779.797 1478.1 779.797 1474.49 Q779.797 1470.88 777.459 1468.77 Q775.121 1466.67 771.116 1466.67 Q769.241 1466.67 767.366 1467.08 Q765.514 1467.5 763.57 1468.38 L763.57 1451.02 Z" fill="#000000" fill-rule="evenodd" fill-opacity="1" /><path clip-path="url(#clip650)" d="M1231.27 1451.02 L1249.62 1451.02 L1249.62 1454.96 L1235.55 1454.96 L1235.55 1463.43 Q1236.57 1463.08 1237.58 1462.92 Q1238.6 1462.73 1239.62 1462.73 Q1245.41 1462.73 1248.79 1465.9 Q1252.17 1469.08 1252.17 1474.49 Q1252.17 1480.07 1248.7 1483.17 Q1245.22 1486.25 1238.9 1486.25 Q1236.73 1486.25 1234.46 1485.88 Q1232.21 1485.51 1229.81 1484.77 L1229.81 1480.07 Q1231.89 1481.2 1234.11 1481.76 Q1236.33 1482.32 1238.81 1482.32 Q1242.82 1482.32 1245.15 1480.21 Q1247.49 1478.1 1247.49 1474.49 Q1247.49 1470.88 1245.15 1468.77 Q1242.82 1466.67 1238.81 1466.67 Q1236.94 1466.67 1235.06 1467.08 Q1233.21 1467.5 1231.27 1468.38 L1231.27 1451.02 Z" fill="#000000" fill-rule="evenodd" fill-opacity="1" /><path clip-path="url(#clip650)" d="M1261.38 1479.7 L1266.26 1479.7 L1266.26 1485.58 L1261.38 1485.58 L1261.38 1479.7 Z" fill="#000000" fill-rule="evenodd" fill-opacity="1" /><path clip-path="url(#clip650)" d="M1286.45 1454.1 Q1282.84 1454.1 1281.01 1457.66 Q1279.2 1461.2 1279.2 1468.33 Q1279.2 1475.44 1281.01 1479.01 Q1282.84 1482.55 1286.45 1482.55 Q1290.08 1482.55 1291.89 1479.01 Q1293.72 1475.44 1293.72 1468.33 Q1293.72 1461.2 1291.89 1457.66 Q1290.08 1454.1 1286.45 1454.1 M1286.45 1450.39 Q1292.26 1450.39 1295.32 1455 Q1298.39 1459.58 1298.39 1468.33 Q1298.39 1477.06 1295.32 1481.67 Q1292.26 1486.25 1286.45 1486.25 Q1280.64 1486.25 1277.56 1481.67 Q1274.51 1477.06 1274.51 1468.33 Q1274.51 1459.58 1277.56 1455 Q1280.64 1450.39 1286.45 1450.39 Z" fill="#000000" fill-rule="evenodd" fill-opacity="1" /><path clip-path="url(#clip650)" d="M1743.94 1451.02 L1766.16 1451.02 L1766.16 1453.01 L1753.61 1485.58 L1748.73 1485.58 L1760.53 1454.96 L1743.94 1454.96 L1743.94 1451.02 Z" fill="#000000" fill-rule="evenodd" fill-opacity="1" /><path clip-path="url(#clip650)" d="M1775.28 1479.7 L1780.16 1479.7 L1780.16 1485.58 L1775.28 1485.58 L1775.28 1479.7 Z" fill="#000000" fill-rule="evenodd" fill-opacity="1" /><path clip-path="url(#clip650)" d="M1790.39 1451.02 L1808.75 1451.02 L1808.75 1454.96 L1794.68 1454.96 L1794.68 1463.43 Q1795.7 1463.08 1796.71 1462.92 Q1797.73 1462.73 1798.75 1462.73 Q1804.54 1462.73 1807.92 1465.9 Q1811.3 1469.08 1811.3 1474.49 Q1811.3 1480.07 1807.83 1483.17 Q1804.35 1486.25 1798.03 1486.25 Q1795.86 1486.25 1793.59 1485.88 Q1791.34 1485.51 1788.94 1484.77 L1788.94 1480.07 Q1791.02 1481.2 1793.24 1481.76 Q1795.46 1482.32 1797.94 1482.32 Q1801.95 1482.32 1804.28 1480.21 Q1806.62 1478.1 1806.62 1474.49 Q1806.62 1470.88 1804.28 1468.77 Q1801.95 1466.67 1797.94 1466.67 Q1796.07 1466.67 1794.19 1467.08 Q1792.34 1467.5 1790.39 1468.38 L1790.39 1451.02 Z" fill="#000000" fill-rule="evenodd" fill-opacity="1" /><path clip-path="url(#clip650)" d="M2243.21 1481.64 L2250.84 1481.64 L2250.84 1455.28 L2242.53 1456.95 L2242.53 1452.69 L2250.8 1451.02 L2255.47 1451.02 L2255.47 1481.64 L2263.11 1481.64 L2263.11 1485.58 L2243.21 1485.58 L2243.21 1481.64 Z" fill="#000000" fill-rule="evenodd" fill-opacity="1" /><path clip-path="url(#clip650)" d="M2282.56 1454.1 Q2278.95 1454.1 2277.12 1457.66 Q2275.31 1461.2 2275.31 1468.33 Q2275.31 1475.44 2277.12 1479.01 Q2278.95 1482.55 2282.56 1482.55 Q2286.19 1482.55 2288 1479.01 Q2289.83 1475.44 2289.83 1468.33 Q2289.83 1461.2 2288 1457.66 Q2286.19 1454.1 2282.56 1454.1 M2282.56 1450.39 Q2288.37 1450.39 2291.42 1455 Q2294.5 1459.58 2294.5 1468.33 Q2294.5 1477.06 2291.42 1481.67 Q2288.37 1486.25 2282.56 1486.25 Q2276.75 1486.25 2273.67 1481.67 Q2270.61 1477.06 2270.61 1468.33 Q2270.61 1459.58 2273.67 1455 Q2276.75 1450.39 2282.56 1450.39 Z" fill="#000000" fill-rule="evenodd" fill-opacity="1" /><path clip-path="url(#clip650)" d="M2302.72 1479.7 L2307.6 1479.7 L2307.6 1485.58 L2302.72 1485.58 L2302.72 1479.7 Z" fill="#000000" fill-rule="evenodd" fill-opacity="1" /><path clip-path="url(#clip650)" d="M2327.79 1454.1 Q2324.18 1454.1 2322.35 1457.66 Q2320.54 1461.2 2320.54 1468.33 Q2320.54 1475.44 2322.35 1479.01 Q2324.18 1482.55 2327.79 1482.55 Q2331.42 1482.55 2333.23 1479.01 Q2335.06 1475.44 2335.06 1468.33 Q2335.06 1461.2 2333.23 1457.66 Q2331.42 1454.1 2327.79 1454.1 M2327.79 1450.39 Q2333.6 1450.39 2336.65 1455 Q2339.73 1459.58 2339.73 1468.33 Q2339.73 1477.06 2336.65 1481.67 Q2333.6 1486.25 2327.79 1486.25 Q2321.98 1486.25 2318.9 1481.67 Q2315.84 1477.06 2315.84 1468.33 Q2315.84 1459.58 2318.9 1455 Q2321.98 1450.39 2327.79 1450.39 Z" fill="#000000" fill-rule="evenodd" fill-opacity="1" /><path clip-path="url(#clip650)" d="M1095.22 1522.27 L1095.22 1532.4 L1107.28 1532.4 L1107.28 1536.95 L1095.22 1536.95 L1095.22 1556.3 Q1095.22 1560.66 1096.4 1561.9 Q1097.61 1563.14 1101.27 1563.14 L1107.28 1563.14 L1107.28 1568.04 L1101.27 1568.04 Q1094.49 1568.04 1091.91 1565.53 Q1089.33 1562.98 1089.33 1556.3 L1089.33 1536.95 L1085.03 1536.95 L1085.03 1532.4 L1089.33 1532.4 L1089.33 1522.27 L1095.22 1522.27 Z" fill="#000000" fill-rule="evenodd" fill-opacity="1" /><path clip-path="url(#clip650)" d="M1142.74 1539.24 Q1144.93 1535.29 1147.99 1533.41 Q1151.05 1531.54 1155.18 1531.54 Q1160.75 1531.54 1163.78 1535.45 Q1166.8 1539.33 1166.8 1546.53 L1166.8 1568.04 L1160.91 1568.04 L1160.91 1546.72 Q1160.91 1541.59 1159.1 1539.11 Q1157.28 1536.63 1153.56 1536.63 Q1149.01 1536.63 1146.37 1539.65 Q1143.73 1542.68 1143.73 1547.9 L1143.73 1568.04 L1137.84 1568.04 L1137.84 1546.72 Q1137.84 1541.56 1136.02 1539.11 Q1134.21 1536.63 1130.42 1536.63 Q1125.93 1536.63 1123.29 1539.68 Q1120.65 1542.71 1120.65 1547.9 L1120.65 1568.04 L1114.76 1568.04 L1114.76 1532.4 L1120.65 1532.4 L1120.65 1537.93 Q1122.65 1534.66 1125.46 1533.1 Q1128.26 1531.54 1132.11 1531.54 Q1135.99 1531.54 1138.7 1533.51 Q1141.43 1535.48 1142.74 1539.24 Z" fill="#000000" fill-rule="evenodd" fill-opacity="1" /><path clip-path="url(#clip650)" d="M1192.3 1536.5 Q1187.58 1536.5 1184.85 1540.19 Q1182.11 1543.85 1182.11 1550.25 Q1182.11 1556.65 1184.82 1560.34 Q1187.55 1564 1192.3 1564 Q1196.97 1564 1199.71 1560.31 Q1202.45 1556.62 1202.45 1550.25 Q1202.45 1543.92 1199.71 1540.23 Q1196.97 1536.5 1192.3 1536.5 M1192.3 1531.54 Q1199.93 1531.54 1204.29 1536.5 Q1208.66 1541.47 1208.66 1550.25 Q1208.66 1559 1204.29 1564 Q1199.93 1568.97 1192.3 1568.97 Q1184.62 1568.97 1180.26 1564 Q1175.94 1559 1175.94 1550.25 Q1175.94 1541.47 1180.26 1536.5 Q1184.62 1531.54 1192.3 1531.54 Z" fill="#000000" fill-rule="evenodd" fill-opacity="1" /><path clip-path="url(#clip650)" d="M1241.82 1537.81 L1241.82 1518.52 L1247.68 1518.52 L1247.68 1568.04 L1241.82 1568.04 L1241.82 1562.7 Q1239.97 1565.88 1237.14 1567.44 Q1234.34 1568.97 1230.39 1568.97 Q1223.93 1568.97 1219.86 1563.81 Q1215.82 1558.65 1215.82 1550.25 Q1215.82 1541.85 1219.86 1536.69 Q1223.93 1531.54 1230.39 1531.54 Q1234.34 1531.54 1237.14 1533.1 Q1239.97 1534.62 1241.82 1537.81 M1221.86 1550.25 Q1221.86 1556.71 1224.51 1560.4 Q1227.18 1564.07 1231.83 1564.07 Q1236.47 1564.07 1239.15 1560.4 Q1241.82 1556.71 1241.82 1550.25 Q1241.82 1543.79 1239.15 1540.13 Q1236.47 1536.44 1231.83 1536.44 Q1227.18 1536.44 1224.51 1540.13 Q1221.86 1543.79 1221.86 1550.25 Z" fill="#000000" fill-rule="evenodd" fill-opacity="1" /><path clip-path="url(#clip650)" d="M1290.23 1548.76 L1290.23 1551.62 L1263.3 1551.62 Q1263.69 1557.67 1266.93 1560.85 Q1270.21 1564 1276.04 1564 Q1279.41 1564 1282.56 1563.17 Q1285.74 1562.35 1288.86 1560.69 L1288.86 1566.23 Q1285.71 1567.57 1282.4 1568.27 Q1279.09 1568.97 1275.69 1568.97 Q1267.16 1568.97 1262.16 1564 Q1257.19 1559.04 1257.19 1550.57 Q1257.19 1541.82 1261.9 1536.69 Q1266.65 1531.54 1274.67 1531.54 Q1281.86 1531.54 1286.03 1536.18 Q1290.23 1540.8 1290.23 1548.76 M1284.38 1547.04 Q1284.31 1542.23 1281.67 1539.37 Q1279.06 1536.5 1274.73 1536.5 Q1269.83 1536.5 1266.87 1539.27 Q1263.94 1542.04 1263.5 1547.07 L1284.38 1547.04 Z" fill="#000000" fill-rule="evenodd" fill-opacity="1" /><path clip-path="url(#clip650)" d="M1299.84 1518.52 L1305.7 1518.52 L1305.7 1568.04 L1299.84 1568.04 L1299.84 1518.52 Z" fill="#000000" fill-rule="evenodd" fill-opacity="1" /><path clip-path="url(#clip650)" d="M1352.74 1518.58 Q1348.48 1525.9 1346.41 1533.06 Q1344.34 1540.23 1344.34 1547.58 Q1344.34 1554.93 1346.41 1562.16 Q1348.51 1569.35 1352.74 1576.64 L1347.65 1576.64 Q1342.88 1569.16 1340.49 1561.93 Q1338.13 1554.71 1338.13 1547.58 Q1338.13 1540.48 1340.49 1533.29 Q1342.84 1526.09 1347.65 1518.58 L1352.74 1518.58 Z" fill="#000000" fill-rule="evenodd" fill-opacity="1" /><path clip-path="url(#clip650)" d="M1378.94 1571.35 Q1376.46 1577.72 1374.1 1579.66 Q1371.74 1581.6 1367.8 1581.6 L1363.12 1581.6 L1363.12 1576.7 L1366.56 1576.7 Q1368.98 1576.7 1370.31 1575.56 Q1371.65 1574.41 1373.27 1570.14 L1374.32 1567.47 L1359.9 1532.4 L1366.11 1532.4 L1377.25 1560.28 L1388.39 1532.4 L1394.6 1532.4 L1378.94 1571.35 Z" fill="#000000" fill-rule="evenodd" fill-opacity="1" /><path clip-path="url(#clip650)" d="M1423.34 1537.87 Q1422.35 1537.3 1421.17 1537.04 Q1420.03 1536.76 1418.63 1536.76 Q1413.66 1536.76 1410.99 1540 Q1408.35 1543.22 1408.35 1549.27 L1408.35 1568.04 L1402.46 1568.04 L1402.46 1532.4 L1408.35 1532.4 L1408.35 1537.93 Q1410.19 1534.69 1413.15 1533.13 Q1416.11 1531.54 1420.35 1531.54 Q1420.95 1531.54 1421.68 1531.63 Q1422.42 1531.7 1423.31 1531.85 L1423.34 1537.87 Z" fill="#000000" fill-rule="evenodd" fill-opacity="1" /><path clip-path="url(#clip650)" d="M1428.56 1518.58 L1433.65 1518.58 Q1438.43 1526.09 1440.78 1533.29 Q1443.17 1540.48 1443.17 1547.58 Q1443.17 1554.71 1440.78 1561.93 Q1438.43 1569.16 1433.65 1576.64 L1428.56 1576.64 Q1432.79 1569.35 1434.86 1562.16 Q1436.96 1554.93 1436.96 1547.58 Q1436.96 1540.23 1434.86 1533.06 Q1432.79 1525.9 1428.56 1518.58 Z" fill="#000000" fill-rule="evenodd" fill-opacity="1" /><polyline clip-path="url(#clip652)" style="stroke:#000000; stroke-linecap:butt; stroke-linejoin:round; stroke-width:2; stroke-opacity:0.1; fill:none" points="
  175.445,1393.05 2352.76,1393.05 
  "/>
<polyline clip-path="url(#clip652)" style="stroke:#000000; stroke-linecap:butt; stroke-linejoin:round; stroke-width:2; stroke-opacity:0.1; fill:none" points="
  175.445,1131.68 2352.76,1131.68 
  "/>
<polyline clip-path="url(#clip652)" style="stroke:#000000; stroke-linecap:butt; stroke-linejoin:round; stroke-width:2; stroke-opacity:0.1; fill:none" points="
  175.445,870.304 2352.76,870.304 
  "/>
<polyline clip-path="url(#clip652)" style="stroke:#000000; stroke-linecap:butt; stroke-linejoin:round; stroke-width:2; stroke-opacity:0.1; fill:none" points="
  175.445,608.931 2352.76,608.931 
  "/>
<polyline clip-path="url(#clip652)" style="stroke:#000000; stroke-linecap:butt; stroke-linejoin:round; stroke-width:2; stroke-opacity:0.1; fill:none" points="
  175.445,347.558 2352.76,347.558 
  "/>
<polyline clip-path="url(#clip652)" style="stroke:#000000; stroke-linecap:butt; stroke-linejoin:round; stroke-width:2; stroke-opacity:0.1; fill:none" points="
  175.445,86.1857 2352.76,86.1857 
  "/>
<polyline clip-path="url(#clip650)" style="stroke:#000000; stroke-linecap:butt; stroke-linejoin:round; stroke-width:4; stroke-opacity:1; fill:none" points="
  175.445,1423.18 175.445,47.2441 
  "/>
<polyline clip-path="url(#clip650)" style="stroke:#000000; stroke-linecap:butt; stroke-linejoin:round; stroke-width:4; stroke-opacity:1; fill:none" points="
  175.445,1393.05 194.343,1393.05 
  "/>
<polyline clip-path="url(#clip650)" style="stroke:#000000; stroke-linecap:butt; stroke-linejoin:round; stroke-width:4; stroke-opacity:1; fill:none" points="
  175.445,1131.68 194.343,1131.68 
  "/>
<polyline clip-path="url(#clip650)" style="stroke:#000000; stroke-linecap:butt; stroke-linejoin:round; stroke-width:4; stroke-opacity:1; fill:none" points="
  175.445,870.304 194.343,870.304 
  "/>
<polyline clip-path="url(#clip650)" style="stroke:#000000; stroke-linecap:butt; stroke-linejoin:round; stroke-width:4; stroke-opacity:1; fill:none" points="
  175.445,608.931 194.343,608.931 
  "/>
<polyline clip-path="url(#clip650)" style="stroke:#000000; stroke-linecap:butt; stroke-linejoin:round; stroke-width:4; stroke-opacity:1; fill:none" points="
  175.445,347.558 194.343,347.558 
  "/>
<polyline clip-path="url(#clip650)" style="stroke:#000000; stroke-linecap:butt; stroke-linejoin:round; stroke-width:4; stroke-opacity:1; fill:none" points="
  175.445,86.1857 194.343,86.1857 
  "/>
<path clip-path="url(#clip650)" d="M127.501 1378.85 Q123.89 1378.85 122.061 1382.41 Q120.255 1385.95 120.255 1393.08 Q120.255 1400.19 122.061 1403.76 Q123.89 1407.3 127.501 1407.3 Q131.135 1407.3 132.941 1403.76 Q134.769 1400.19 134.769 1393.08 Q134.769 1385.95 132.941 1382.41 Q131.135 1378.85 127.501 1378.85 M127.501 1375.14 Q133.311 1375.14 136.367 1379.75 Q139.445 1384.33 139.445 1393.08 Q139.445 1401.81 136.367 1406.42 Q133.311 1411 127.501 1411 Q121.691 1411 118.612 1406.42 Q115.556 1401.81 115.556 1393.08 Q115.556 1384.33 118.612 1379.75 Q121.691 1375.14 127.501 1375.14 Z" fill="#000000" fill-rule="evenodd" fill-opacity="1" /><path clip-path="url(#clip650)" d="M119.538 1145.02 L127.177 1145.02 L127.177 1118.66 L118.867 1120.32 L118.867 1116.06 L127.13 1114.4 L131.806 1114.4 L131.806 1145.02 L139.445 1145.02 L139.445 1148.96 L119.538 1148.96 L119.538 1145.02 Z" fill="#000000" fill-rule="evenodd" fill-opacity="1" /><path clip-path="url(#clip650)" d="M123.126 883.649 L139.445 883.649 L139.445 887.584 L117.501 887.584 L117.501 883.649 Q120.163 880.894 124.746 876.265 Q129.353 871.612 130.533 870.269 Q132.779 867.746 133.658 866.01 Q134.561 864.251 134.561 862.561 Q134.561 859.806 132.617 858.07 Q130.695 856.334 127.593 856.334 Q125.394 856.334 122.941 857.098 Q120.51 857.862 117.732 859.413 L117.732 854.691 Q120.556 853.556 123.01 852.978 Q125.464 852.399 127.501 852.399 Q132.871 852.399 136.066 855.084 Q139.26 857.769 139.26 862.26 Q139.26 864.39 138.45 866.311 Q137.663 868.209 135.556 870.802 Q134.978 871.473 131.876 874.691 Q128.774 877.885 123.126 883.649 Z" fill="#000000" fill-rule="evenodd" fill-opacity="1" /><path clip-path="url(#clip650)" d="M132.316 607.577 Q135.672 608.295 137.547 610.563 Q139.445 612.832 139.445 616.165 Q139.445 621.281 135.927 624.082 Q132.408 626.882 125.927 626.882 Q123.751 626.882 121.436 626.443 Q119.144 626.026 116.691 625.17 L116.691 620.656 Q118.635 621.79 120.95 622.369 Q123.265 622.947 125.788 622.947 Q130.186 622.947 132.478 621.211 Q134.792 619.475 134.792 616.165 Q134.792 613.109 132.64 611.396 Q130.51 609.66 126.691 609.66 L122.663 609.66 L122.663 605.818 L126.876 605.818 Q130.325 605.818 132.154 604.452 Q133.982 603.063 133.982 600.471 Q133.982 597.809 132.084 596.397 Q130.209 594.961 126.691 594.961 Q124.769 594.961 122.57 595.378 Q120.371 595.795 117.732 596.674 L117.732 592.508 Q120.394 591.767 122.709 591.397 Q125.047 591.026 127.107 591.026 Q132.431 591.026 135.533 593.457 Q138.635 595.864 138.635 599.984 Q138.635 602.855 136.992 604.846 Q135.348 606.813 132.316 607.577 Z" fill="#000000" fill-rule="evenodd" fill-opacity="1" /><path clip-path="url(#clip650)" d="M129.862 334.352 L118.056 352.801 L129.862 352.801 L129.862 334.352 M128.635 330.278 L134.515 330.278 L134.515 352.801 L139.445 352.801 L139.445 356.69 L134.515 356.69 L134.515 364.838 L129.862 364.838 L129.862 356.69 L114.26 356.69 L114.26 352.176 L128.635 330.278 Z" fill="#000000" fill-rule="evenodd" fill-opacity="1" /><path clip-path="url(#clip650)" d="M118.543 68.9057 L136.899 68.9057 L136.899 72.8408 L122.825 72.8408 L122.825 81.313 Q123.843 80.9658 124.862 80.8038 Q125.88 80.6186 126.899 80.6186 Q132.686 80.6186 136.066 83.7899 Q139.445 86.9611 139.445 92.3778 Q139.445 97.9564 135.973 101.058 Q132.501 104.137 126.181 104.137 Q124.005 104.137 121.737 103.767 Q119.492 103.396 117.084 102.655 L117.084 97.9564 Q119.168 99.0907 121.39 99.6462 Q123.612 100.202 126.089 100.202 Q130.093 100.202 132.431 98.0953 Q134.769 95.9889 134.769 92.3778 Q134.769 88.7667 132.431 86.6602 Q130.093 84.5537 126.089 84.5537 Q124.214 84.5537 122.339 84.9704 Q120.487 85.3871 118.543 86.2667 L118.543 68.9057 Z" fill="#000000" fill-rule="evenodd" fill-opacity="1" /><path clip-path="url(#clip650)" d="M33.7671 1049.3 L14.479 1049.3 L14.479 1043.44 L64.0042 1043.44 L64.0042 1049.3 L58.657 1049.3 Q61.8398 1051.14 63.3994 1053.97 Q64.9272 1056.78 64.9272 1060.72 Q64.9272 1067.18 59.771 1071.26 Q54.6147 1075.3 46.212 1075.3 Q37.8093 1075.3 32.6531 1071.26 Q27.4968 1067.18 27.4968 1060.72 Q27.4968 1056.78 29.0564 1053.97 Q30.5842 1051.14 33.7671 1049.3 M46.212 1069.25 Q52.6732 1069.25 56.3653 1066.61 Q60.0256 1063.94 60.0256 1059.29 Q60.0256 1054.64 56.3653 1051.97 Q52.6732 1049.3 46.212 1049.3 Q39.7508 1049.3 36.0905 1051.97 Q32.3984 1054.64 32.3984 1059.29 Q32.3984 1063.94 36.0905 1066.61 Q39.7508 1069.25 46.212 1069.25 Z" fill="#000000" fill-rule="evenodd" fill-opacity="1" /><path clip-path="url(#clip650)" d="M44.7161 1000.88 L47.5806 1000.88 L47.5806 1027.81 Q53.6281 1027.43 56.8109 1024.18 Q59.9619 1020.9 59.9619 1015.08 Q59.9619 1011.71 59.1344 1008.56 Q58.3069 1005.37 56.6518 1002.25 L62.1899 1002.25 Q63.5267 1005.4 64.227 1008.71 Q64.9272 1012.02 64.9272 1015.43 Q64.9272 1023.96 59.9619 1028.96 Q54.9967 1033.92 46.5303 1033.92 Q37.7774 1033.92 32.6531 1029.21 Q27.4968 1024.47 27.4968 1016.45 Q27.4968 1009.26 32.1438 1005.09 Q36.7589 1000.88 44.7161 1000.88 M42.9973 1006.74 Q38.1912 1006.8 35.3266 1009.45 Q32.4621 1012.06 32.4621 1016.39 Q32.4621 1021.29 35.2312 1024.25 Q38.0002 1027.18 43.0292 1027.62 L42.9973 1006.74 Z" fill="#000000" fill-rule="evenodd" fill-opacity="1" /><path clip-path="url(#clip650)" d="M29.7248 965.619 L35.1993 965.619 Q33.8307 968.101 33.1623 970.616 Q32.4621 973.098 32.4621 975.645 Q32.4621 981.342 36.0905 984.493 Q39.6872 987.644 46.212 987.644 Q52.7369 987.644 56.3653 984.493 Q59.9619 981.342 59.9619 975.645 Q59.9619 973.098 59.2935 970.616 Q58.5933 968.101 57.2247 965.619 L62.6355 965.619 Q63.7814 968.07 64.3543 970.711 Q64.9272 973.321 64.9272 976.281 Q64.9272 984.334 59.8664 989.076 Q54.8057 993.819 46.212 993.819 Q37.491 993.819 32.4939 989.045 Q27.4968 984.238 27.4968 975.899 Q27.4968 973.194 28.0697 970.616 Q28.6108 968.038 29.7248 965.619 Z" fill="#000000" fill-rule="evenodd" fill-opacity="1" /><path clip-path="url(#clip650)" d="M46.0847 939.233 Q46.0847 946.331 47.7079 949.068 Q49.3312 951.805 53.2461 951.805 Q56.3653 951.805 58.2114 949.768 Q60.0256 947.699 60.0256 944.166 Q60.0256 939.297 56.5881 936.368 Q53.1188 933.408 47.3897 933.408 L46.0847 933.408 L46.0847 939.233 M43.6657 927.552 L64.0042 927.552 L64.0042 933.408 L58.5933 933.408 Q61.8398 935.413 63.3994 938.405 Q64.9272 941.397 64.9272 945.726 Q64.9272 951.2 61.8716 954.447 Q58.7843 957.662 53.6281 957.662 Q47.6125 957.662 44.5569 953.651 Q41.5014 949.609 41.5014 941.62 L41.5014 933.408 L40.9285 933.408 Q36.8862 933.408 34.6901 936.082 Q32.4621 938.724 32.4621 943.53 Q32.4621 946.585 33.1941 949.482 Q33.9262 952.378 35.3903 955.052 L29.9795 955.052 Q28.7381 951.837 28.1334 948.813 Q27.4968 945.79 27.4968 942.925 Q27.4968 935.191 31.5072 931.371 Q35.5176 927.552 43.6657 927.552 Z" fill="#000000" fill-rule="evenodd" fill-opacity="1" /><path clip-path="url(#clip650)" d="M67.3143 900.657 Q73.68 903.139 75.6216 905.495 Q77.5631 907.85 77.5631 911.797 L77.5631 916.475 L72.6615 916.475 L72.6615 913.038 Q72.6615 910.619 71.5157 909.282 Q70.3699 907.945 66.1048 906.322 L63.4312 905.272 L28.3562 919.69 L28.3562 913.484 L56.238 902.344 L28.3562 891.204 L28.3562 884.997 L67.3143 900.657 Z" fill="#000000" fill-rule="evenodd" fill-opacity="1" /><path clip-path="url(#clip650)" d="M74.8259 849.827 L79.3773 849.827 L79.3773 883.692 L74.8259 883.692 L74.8259 849.827 Z" fill="#000000" fill-rule="evenodd" fill-opacity="1" /><path clip-path="url(#clip650)" d="M14.479 826.273 L19.3487 826.273 L19.3487 831.875 Q19.3487 835.026 20.6219 836.268 Q21.895 837.477 25.2052 837.477 L28.3562 837.477 L28.3562 827.833 L32.9077 827.833 L32.9077 837.477 L64.0042 837.477 L64.0042 843.365 L32.9077 843.365 L32.9077 848.967 L28.3562 848.967 L28.3562 843.365 L25.8736 843.365 Q19.9216 843.365 17.2162 840.596 Q14.479 837.827 14.479 831.812 L14.479 826.273 Z" fill="#000000" fill-rule="evenodd" fill-opacity="1" /><path clip-path="url(#clip650)" d="M14.479 821.372 L14.479 815.515 L64.0042 815.515 L64.0042 821.372 L14.479 821.372 Z" fill="#000000" fill-rule="evenodd" fill-opacity="1" /><path clip-path="url(#clip650)" d="M49.9359 803.866 L28.3562 803.866 L28.3562 798.01 L49.7131 798.01 Q54.7739 798.01 57.3202 796.036 Q59.8346 794.063 59.8346 790.116 Q59.8346 785.374 56.8109 782.636 Q53.7872 779.867 48.5673 779.867 L28.3562 779.867 L28.3562 774.011 L64.0042 774.011 L64.0042 779.867 L58.5296 779.867 Q61.7762 782 63.3676 784.833 Q64.9272 787.634 64.9272 791.358 Q64.9272 797.5 61.1078 800.683 Q57.2883 803.866 49.9359 803.866 M27.4968 789.13 L27.4968 789.13 Z" fill="#000000" fill-rule="evenodd" fill-opacity="1" /><path clip-path="url(#clip650)" d="M28.3562 732.316 L45.7028 745.206 L64.0042 731.647 L64.0042 738.554 L49.9996 748.93 L64.0042 759.306 L64.0042 766.213 L45.3526 752.368 L28.3562 765.035 L28.3562 758.129 L41.0558 748.675 L28.3562 739.222 L28.3562 732.316 Z" fill="#000000" fill-rule="evenodd" fill-opacity="1" /><path clip-path="url(#clip650)" d="M14.5426 688.583 Q21.8632 692.848 29.0246 694.917 Q36.186 696.986 43.5384 696.986 Q50.8908 696.986 58.1159 694.917 Q65.3091 692.816 72.5979 688.583 L72.5979 693.676 Q65.1182 698.45 57.8931 700.837 Q50.668 703.192 43.5384 703.192 Q36.4406 703.192 29.2474 700.837 Q22.0542 698.482 14.5426 693.676 L14.5426 688.583 Z" fill="#000000" fill-rule="evenodd" fill-opacity="1" /><path clip-path="url(#clip650)" d="M35.1993 649.466 Q31.2526 647.27 29.3747 644.214 Q27.4968 641.159 27.4968 637.021 Q27.4968 631.451 31.4117 628.427 Q35.2948 625.404 42.4881 625.404 L64.0042 625.404 L64.0042 631.292 L42.679 631.292 Q37.5546 631.292 35.072 633.106 Q32.5894 634.92 32.5894 638.644 Q32.5894 643.196 35.6131 645.837 Q38.6368 648.479 43.8567 648.479 L64.0042 648.479 L64.0042 654.367 L42.679 654.367 Q37.5228 654.367 35.072 656.182 Q32.5894 657.996 32.5894 661.784 Q32.5894 666.271 35.6449 668.913 Q38.6686 671.555 43.8567 671.555 L64.0042 671.555 L64.0042 677.443 L28.3562 677.443 L28.3562 671.555 L33.8944 671.555 Q30.616 669.55 29.0564 666.749 Q27.4968 663.948 27.4968 660.097 Q27.4968 656.214 29.4702 653.508 Q31.4436 650.771 35.1993 649.466 Z" fill="#000000" fill-rule="evenodd" fill-opacity="1" /><path clip-path="url(#clip650)" d="M32.4621 599.909 Q32.4621 604.619 36.1542 607.357 Q39.8145 610.094 46.212 610.094 Q52.6095 610.094 56.3017 607.389 Q59.9619 604.651 59.9619 599.909 Q59.9619 595.23 56.2698 592.493 Q52.5777 589.756 46.212 589.756 Q39.8781 589.756 36.186 592.493 Q32.4621 595.23 32.4621 599.909 M27.4968 599.909 Q27.4968 592.27 32.4621 587.91 Q37.4273 583.549 46.212 583.549 Q54.9649 583.549 59.9619 587.91 Q64.9272 592.27 64.9272 599.909 Q64.9272 607.58 59.9619 611.94 Q54.9649 616.269 46.212 616.269 Q37.4273 616.269 32.4621 611.94 Q27.4968 607.58 27.4968 599.909 Z" fill="#000000" fill-rule="evenodd" fill-opacity="1" /><path clip-path="url(#clip650)" d="M14.479 573.841 L14.479 567.985 L64.0042 567.985 L64.0042 573.841 L14.479 573.841 Z" fill="#000000" fill-rule="evenodd" fill-opacity="1" /><path clip-path="url(#clip650)" d="M67.3143 520.178 Q73.68 522.661 75.6216 525.016 Q77.5631 527.372 77.5631 531.318 L77.5631 535.997 L72.6615 535.997 L72.6615 532.56 Q72.6615 530.141 71.5157 528.804 Q70.3699 527.467 66.1048 525.844 L63.4312 524.794 L28.3562 539.212 L28.3562 533.005 L56.238 521.865 L28.3562 510.725 L28.3562 504.519 L67.3143 520.178 Z" fill="#000000" fill-rule="evenodd" fill-opacity="1" /><path clip-path="url(#clip650)" d="M33.8307 475.778 Q33.2578 476.764 33.0032 477.942 Q32.7167 479.088 32.7167 480.488 Q32.7167 485.453 35.9632 488.127 Q39.1779 490.769 45.2253 490.769 L64.0042 490.769 L64.0042 496.657 L28.3562 496.657 L28.3562 490.769 L33.8944 490.769 Q30.6479 488.923 29.0883 485.963 Q27.4968 483.003 27.4968 478.769 Q27.4968 478.165 27.5923 477.433 Q27.656 476.701 27.8151 475.809 L33.8307 475.778 Z" fill="#000000" fill-rule="evenodd" fill-opacity="1" /><path clip-path="url(#clip650)" d="M43.5384 476.764 L43.5384 459.609 L48.7583 459.609 L48.7583 476.764 L43.5384 476.764 Z" fill="#000000" fill-rule="evenodd" fill-opacity="1" /><path clip-path="url(#clip650)" d="M58.5933 448.341 L58.5933 437.838 L22.3406 437.838 L24.6323 449.264 L18.7758 449.264 L16.4842 437.902 L16.4842 431.472 L58.5933 431.472 L58.5933 420.969 L64.0042 420.969 L64.0042 448.341 L58.5933 448.341 Z" fill="#000000" fill-rule="evenodd" fill-opacity="1" /><path clip-path="url(#clip650)" d="M14.5426 409.733 L14.5426 404.641 Q22.0542 399.867 29.2474 397.511 Q36.4406 395.124 43.5384 395.124 Q50.668 395.124 57.8931 397.511 Q65.1182 399.867 72.5979 404.641 L72.5979 409.733 Q65.3091 405.5 58.1159 403.431 Q50.8908 401.331 43.5384 401.331 Q36.186 401.331 29.0246 403.431 Q21.8632 405.5 14.5426 409.733 Z" fill="#000000" fill-rule="evenodd" fill-opacity="1" /><polyline clip-path="url(#clip652)" style="stroke:#009af9; stroke-linecap:butt; stroke-linejoin:round; stroke-width:4; stroke-opacity:1; fill:none" points="
  237.067,86.1857 237.99,89.1159 238.914,92.0396 241.202,99.2612 243.491,106.447 245.78,113.595 249.252,124.361 255.366,143.104 272.878,195.286 281.495,220.15 
  290.111,244.498 298.727,268.34 313.279,307.488 327.83,345.271 342.382,381.737 356.934,416.932 389.809,491.994 422.684,561.28 455.559,625.238 488.434,684.279 
  521.309,738.78 554.184,789.09 587.059,835.532 619.934,878.403 652.809,917.977 685.684,954.508 718.559,988.23 751.434,1019.36 784.309,1048.09 817.184,1074.62 
  850.059,1099.11 882.934,1121.71 915.809,1142.57 948.684,1161.83 981.559,1179.61 1014.43,1196.03 1047.31,1211.18 1080.18,1225.16 1113.06,1238.07 1145.93,1249.99 
  1178.81,1260.99 1211.68,1271.14 1244.56,1280.52 1277.43,1289.17 1310.31,1297.16 1343.18,1304.53 1376.06,1311.34 1408.93,1317.62 1441.81,1323.42 1474.68,1328.78 
  1507.56,1333.72 1540.43,1338.28 1573.31,1342.49 1606.18,1346.38 1639.06,1349.97 1671.93,1353.28 1704.81,1356.34 1737.68,1359.16 1770.56,1361.77 1803.43,1364.17 
  1836.31,1366.39 1869.18,1368.44 1902.06,1370.34 1934.93,1372.08 1967.81,1373.69 2000.68,1375.18 2033.56,1376.56 2066.43,1377.82 2099.31,1379 2132.18,1380.08 
  2165.06,1381.07 2197.93,1381.99 2230.81,1382.84 2263.68,1383.63 2291.13,1384.24 
  "/>
<path clip-path="url(#clip650)" d="
M1628.67 196.789 L2280.18 196.789 L2280.18 93.1086 L1628.67 93.1086  Z
  " fill="#ffffff" fill-rule="evenodd" fill-opacity="1"/>
<polyline clip-path="url(#clip650)" style="stroke:#000000; stroke-linecap:butt; stroke-linejoin:round; stroke-width:4; stroke-opacity:1; fill:none" points="
  1628.67,196.789 2280.18,196.789 2280.18,93.1086 1628.67,93.1086 1628.67,196.789 
  "/>
<polyline clip-path="url(#clip650)" style="stroke:#009af9; stroke-linecap:butt; stroke-linejoin:round; stroke-width:4; stroke-opacity:1; fill:none" points="
  1652.87,144.949 1798.02,144.949 
  "/>
<path clip-path="url(#clip650)" d="M1841.12 148.965 Q1841.12 144.335 1839.2 141.789 Q1837.31 139.243 1833.86 139.243 Q1830.43 139.243 1828.51 141.789 Q1826.61 144.335 1826.61 148.965 Q1826.61 153.571 1828.51 156.118 Q1830.43 158.664 1833.86 158.664 Q1837.31 158.664 1839.2 156.118 Q1841.12 153.571 1841.12 148.965 M1845.38 159.011 Q1845.38 165.631 1842.44 168.849 Q1839.5 172.09 1833.44 172.09 Q1831.19 172.09 1829.2 171.742 Q1827.21 171.418 1825.34 170.724 L1825.34 166.58 Q1827.21 167.599 1829.04 168.085 Q1830.87 168.571 1832.77 168.571 Q1836.96 168.571 1839.04 166.372 Q1841.12 164.196 1841.12 159.775 L1841.12 157.668 Q1839.81 159.96 1837.75 161.094 Q1835.69 162.229 1832.81 162.229 Q1828.05 162.229 1825.13 158.594 Q1822.21 154.96 1822.21 148.965 Q1822.21 142.946 1825.13 139.312 Q1828.05 135.678 1832.81 135.678 Q1835.69 135.678 1837.75 136.812 Q1839.81 137.946 1841.12 140.238 L1841.12 136.303 L1845.38 136.303 L1845.38 159.011 Z" fill="#000000" fill-rule="evenodd" fill-opacity="1" /><path clip-path="url(#clip650)" d="M1854.16 126.21 L1858.42 126.21 L1858.42 162.229 L1854.16 162.229 L1854.16 126.21 Z" fill="#000000" fill-rule="evenodd" fill-opacity="1" /><path clip-path="url(#clip650)" d="M1877.37 139.289 Q1873.95 139.289 1871.96 141.974 Q1869.97 144.636 1869.97 149.289 Q1869.97 153.942 1871.94 156.627 Q1873.93 159.289 1877.37 159.289 Q1880.78 159.289 1882.77 156.604 Q1884.76 153.918 1884.76 149.289 Q1884.76 144.682 1882.77 141.997 Q1880.78 139.289 1877.37 139.289 M1877.37 135.678 Q1882.93 135.678 1886.1 139.289 Q1889.27 142.9 1889.27 149.289 Q1889.27 155.655 1886.1 159.289 Q1882.93 162.9 1877.37 162.9 Q1871.8 162.9 1868.62 159.289 Q1865.48 155.655 1865.48 149.289 Q1865.48 142.9 1868.62 139.289 Q1871.8 135.678 1877.37 135.678 Z" fill="#000000" fill-rule="evenodd" fill-opacity="1" /><path clip-path="url(#clip650)" d="M1914.94 149.289 Q1914.94 144.59 1913 141.928 Q1911.08 139.243 1907.7 139.243 Q1904.32 139.243 1902.37 141.928 Q1900.45 144.59 1900.45 149.289 Q1900.45 153.988 1902.37 156.673 Q1904.32 159.335 1907.7 159.335 Q1911.08 159.335 1913 156.673 Q1914.94 153.988 1914.94 149.289 M1900.45 140.238 Q1901.8 137.923 1903.83 136.812 Q1905.89 135.678 1908.74 135.678 Q1913.46 135.678 1916.4 139.428 Q1919.37 143.178 1919.37 149.289 Q1919.37 155.4 1916.4 159.15 Q1913.46 162.9 1908.74 162.9 Q1905.89 162.9 1903.83 161.789 Q1901.8 160.655 1900.45 158.34 L1900.45 162.229 L1896.17 162.229 L1896.17 126.21 L1900.45 126.21 L1900.45 140.238 Z" fill="#000000" fill-rule="evenodd" fill-opacity="1" /><path clip-path="url(#clip650)" d="M1938.21 149.196 Q1933.05 149.196 1931.06 150.377 Q1929.06 151.557 1929.06 154.405 Q1929.06 156.673 1930.55 158.016 Q1932.05 159.335 1934.62 159.335 Q1938.16 159.335 1940.29 156.835 Q1942.44 154.312 1942.44 150.145 L1942.44 149.196 L1938.21 149.196 M1946.7 147.437 L1946.7 162.229 L1942.44 162.229 L1942.44 158.293 Q1940.99 160.655 1938.81 161.789 Q1936.63 162.9 1933.49 162.9 Q1929.5 162.9 1927.14 160.678 Q1924.81 158.432 1924.81 154.682 Q1924.81 150.307 1927.72 148.085 Q1930.66 145.863 1936.47 145.863 L1942.44 145.863 L1942.44 145.446 Q1942.44 142.507 1940.5 140.909 Q1938.58 139.289 1935.08 139.289 Q1932.86 139.289 1930.75 139.821 Q1928.65 140.354 1926.7 141.419 L1926.7 137.483 Q1929.04 136.581 1931.24 136.141 Q1933.44 135.678 1935.52 135.678 Q1941.15 135.678 1943.93 138.594 Q1946.7 141.511 1946.7 147.437 Z" fill="#000000" fill-rule="evenodd" fill-opacity="1" /><path clip-path="url(#clip650)" d="M1955.48 126.21 L1959.74 126.21 L1959.74 162.229 L1955.48 162.229 L1955.48 126.21 Z" fill="#000000" fill-rule="evenodd" fill-opacity="1" /><path clip-path="url(#clip650)" d="M1969.25 156.349 L1974.13 156.349 L1974.13 162.229 L1969.25 162.229 L1969.25 156.349 Z" fill="#000000" fill-rule="evenodd" fill-opacity="1" /><path clip-path="url(#clip650)" d="M2000.78 140.238 L2000.78 126.21 L2005.04 126.21 L2005.04 162.229 L2000.78 162.229 L2000.78 158.34 Q1999.43 160.655 1997.37 161.789 Q1995.34 162.9 1992.47 162.9 Q1987.77 162.9 1984.8 159.15 Q1981.86 155.4 1981.86 149.289 Q1981.86 143.178 1984.8 139.428 Q1987.77 135.678 1992.47 135.678 Q1995.34 135.678 1997.37 136.812 Q1999.43 137.923 2000.78 140.238 M1986.26 149.289 Q1986.26 153.988 1988.18 156.673 Q1990.13 159.335 1993.51 159.335 Q1996.89 159.335 1998.83 156.673 Q2000.78 153.988 2000.78 149.289 Q2000.78 144.59 1998.83 141.928 Q1996.89 139.243 1993.51 139.243 Q1990.13 139.243 1988.18 141.928 Q1986.26 144.59 1986.26 149.289 Z" fill="#000000" fill-rule="evenodd" fill-opacity="1" /><path clip-path="url(#clip650)" d="M2035.99 148.201 L2035.99 150.284 L2016.4 150.284 Q2016.68 154.682 2019.04 156.997 Q2021.42 159.289 2025.66 159.289 Q2028.11 159.289 2030.41 158.687 Q2032.72 158.085 2034.99 156.881 L2034.99 160.909 Q2032.7 161.881 2030.29 162.391 Q2027.88 162.9 2025.41 162.9 Q2019.2 162.9 2015.57 159.289 Q2011.96 155.678 2011.96 149.52 Q2011.96 143.155 2015.38 139.428 Q2018.83 135.678 2024.67 135.678 Q2029.9 135.678 2032.93 139.057 Q2035.99 142.414 2035.99 148.201 M2031.73 146.951 Q2031.68 143.456 2029.76 141.372 Q2027.86 139.289 2024.71 139.289 Q2021.15 139.289 2018.99 141.303 Q2016.86 143.317 2016.54 146.974 L2031.73 146.951 Z" fill="#000000" fill-rule="evenodd" fill-opacity="1" /><path clip-path="url(#clip650)" d="M2061.63 137.298 L2061.63 141.28 Q2059.83 140.284 2058 139.798 Q2056.19 139.289 2054.34 139.289 Q2050.2 139.289 2047.91 141.928 Q2045.61 144.544 2045.61 149.289 Q2045.61 154.034 2047.91 156.673 Q2050.2 159.289 2054.34 159.289 Q2056.19 159.289 2058 158.803 Q2059.83 158.293 2061.63 157.298 L2061.63 161.233 Q2059.85 162.067 2057.93 162.483 Q2056.03 162.9 2053.88 162.9 Q2048.02 162.9 2044.57 159.219 Q2041.12 155.539 2041.12 149.289 Q2041.12 142.946 2044.6 139.312 Q2048.09 135.678 2054.16 135.678 Q2056.12 135.678 2058 136.095 Q2059.87 136.488 2061.63 137.298 Z" fill="#000000" fill-rule="evenodd" fill-opacity="1" /><path clip-path="url(#clip650)" d="M2080.82 149.196 Q2075.66 149.196 2073.67 150.377 Q2071.68 151.557 2071.68 154.405 Q2071.68 156.673 2073.16 158.016 Q2074.67 159.335 2077.23 159.335 Q2080.78 159.335 2082.91 156.835 Q2085.06 154.312 2085.06 150.145 L2085.06 149.196 L2080.82 149.196 M2089.32 147.437 L2089.32 162.229 L2085.06 162.229 L2085.06 158.293 Q2083.6 160.655 2081.42 161.789 Q2079.25 162.9 2076.1 162.9 Q2072.12 162.9 2069.76 160.678 Q2067.42 158.432 2067.42 154.682 Q2067.42 150.307 2070.34 148.085 Q2073.28 145.863 2079.09 145.863 L2085.06 145.863 L2085.06 145.446 Q2085.06 142.507 2083.11 140.909 Q2081.19 139.289 2077.7 139.289 Q2075.48 139.289 2073.37 139.821 Q2071.26 140.354 2069.32 141.419 L2069.32 137.483 Q2071.66 136.581 2073.86 136.141 Q2076.05 135.678 2078.14 135.678 Q2083.76 135.678 2086.54 138.594 Q2089.32 141.511 2089.32 147.437 Z" fill="#000000" fill-rule="evenodd" fill-opacity="1" /><path clip-path="url(#clip650)" d="M2108.88 164.636 Q2107.07 169.266 2105.36 170.678 Q2103.65 172.09 2100.78 172.09 L2097.37 172.09 L2097.37 168.525 L2099.87 168.525 Q2101.63 168.525 2102.61 167.692 Q2103.58 166.858 2104.76 163.756 L2105.52 161.812 L2095.04 136.303 L2099.55 136.303 L2107.65 156.581 L2115.75 136.303 L2120.27 136.303 L2108.88 164.636 Z" fill="#000000" fill-rule="evenodd" fill-opacity="1" /><path clip-path="url(#clip650)" d="M2145.85 170.099 L2145.85 173.409 L2121.22 173.409 L2121.22 170.099 L2145.85 170.099 Z" fill="#000000" fill-rule="evenodd" fill-opacity="1" /><path clip-path="url(#clip650)" d="M2162.98 126.21 L2162.98 129.752 L2158.9 129.752 Q2156.61 129.752 2155.71 130.678 Q2154.83 131.604 2154.83 134.011 L2154.83 136.303 L2161.84 136.303 L2161.84 139.613 L2154.83 139.613 L2154.83 162.229 L2150.54 162.229 L2150.54 139.613 L2146.47 139.613 L2146.47 136.303 L2150.54 136.303 L2150.54 134.497 Q2150.54 130.169 2152.56 128.201 Q2154.57 126.21 2158.95 126.21 L2162.98 126.21 Z" fill="#000000" fill-rule="evenodd" fill-opacity="1" /><path clip-path="url(#clip650)" d="M2166.54 126.21 L2170.8 126.21 L2170.8 162.229 L2166.54 162.229 L2166.54 126.21 Z" fill="#000000" fill-rule="evenodd" fill-opacity="1" /><path clip-path="url(#clip650)" d="M2179.27 151.997 L2179.27 136.303 L2183.53 136.303 L2183.53 151.835 Q2183.53 155.516 2184.97 157.368 Q2186.4 159.196 2189.27 159.196 Q2192.72 159.196 2194.71 156.997 Q2196.72 154.798 2196.72 151.002 L2196.72 136.303 L2200.98 136.303 L2200.98 162.229 L2196.72 162.229 L2196.72 158.247 Q2195.17 160.608 2193.11 161.766 Q2191.08 162.9 2188.37 162.9 Q2183.9 162.9 2181.59 160.122 Q2179.27 157.344 2179.27 151.997 M2189.99 135.678 L2189.99 135.678 Z" fill="#000000" fill-rule="evenodd" fill-opacity="1" /><path clip-path="url(#clip650)" d="M2231.31 136.303 L2221.93 148.919 L2231.79 162.229 L2226.77 162.229 L2219.22 152.043 L2211.68 162.229 L2206.66 162.229 L2216.72 148.664 L2207.51 136.303 L2212.54 136.303 L2219.41 145.539 L2226.28 136.303 L2231.31 136.303 Z" fill="#000000" fill-rule="evenodd" fill-opacity="1" /></svg>
